/* XPM */
static char *bb0272a02b4140e19241e2afb14217e5oBpXm5SftmmwTrQF[] = {
/* columns rows colors chars-per-pixel */
"64 64 151 2 ",
"   c None",
".  c #016D96",
"X  c #026F98",
"o  c #07729A",
"O  c #0C769E",
"+  c #0C789F",
"@  c #167A9E",
"#  c #197A9E",
"$  c #0F7CA0",
"%  c #147CA2",
"&  c #1D7DA1",
"*  c #1D7FA8",
"=  c #207EA1",
"-  c #1583A3",
";  c #1885A6",
":  c #1988A5",
">  c #1C86AA",
",  c #1F8CAC",
"<  c #2283A4",
"1  c #2486A9",
"2  c #2B86A9",
"3  c #228BAD",
"4  c #2B8BAA",
"5  c #348EAE",
"6  c #3A8FAF",
"7  c #2D94AA",
"8  c #3093AF",
"9  c #3991AF",
"0  c #248EB4",
"q  c #338EB1",
"w  c #2691B6",
"e  c #2A92B5",
"r  c #2F98B5",
"t  c #2D93B8",
"y  c #3295B3",
"u  c #3A96B3",
"i  c #339AB5",
"p  c #399CB5",
"a  c #3497B9",
"s  c #329AB9",
"d  c #3B9BBB",
"f  c #3CA3BB",
"g  c #4495B3",
"h  c #4A96B3",
"j  c #459DB6",
"k  c #4999B6",
"l  c #449DBD",
"z  c #4E9BB9",
"x  c #539DB8",
"c  c #589EB9",
"v  c #43A4BD",
"b  c #4BA3BD",
"n  c #45A9BE",
"m  c #48A8BF",
"M  c #52A4BC",
"N  c #5AA2BC",
"B  c #52A8BF",
"V  c #67A8BF",
"C  c #46A1C1",
"Z  c #4BA6C2",
"A  c #4CADC2",
"S  c #53A6C4",
"D  c #54AAC6",
"F  c #5CADC3",
"G  c #55ABC9",
"H  c #4EB0C2",
"J  c #54B3C4",
"K  c #5BB4C5",
"L  c #5EBBC6",
"P  c #5CB2C8",
"I  c #5EBAC8",
"U  c #63AAC3",
"Y  c #6AACC4",
"T  c #60BEC7",
"R  c #6DBDC3",
"E  c #63B4CA",
"W  c #6AB5CA",
"Q  c #64BDC9",
"!  c #6BBDCD",
"~  c #70B2C6",
"^  c #77B3C8",
"/  c #7AB7CD",
"(  c #72BDCE",
")  c #7CBBCD",
"_  c #6ABCD1",
"`  c #75BED6",
"'  c #7BBBD1",
"]  c #6EC2C5",
"[  c #65C2CA",
"{  c #6BC0CD",
"}  c #72C4C6",
"|  c #71C0CE",
" . c #76C5D1",
".. c #7BC3D3",
"X. c #77C9D2",
"o. c #7CC5D8",
"O. c #81B7CB",
"+. c #8ABED0",
"@. c #84C4D4",
"#. c #8DC6D6",
"$. c #88C7D9",
"%. c #8CCADC",
"&. c #95C4D7",
"*. c #98C9D7",
"=. c #96CAD8",
"-. c #9FCCDB",
";. c #8BD0DE",
":. c #95D5DF",
">. c #A1D2DE",
",. c #8FCEE1",
"<. c #96D1E2",
"1. c #9BD6E3",
"2. c #ABD7E3",
"3. c #A2DBE3",
"4. c #ACDAE5",
"5. c #A1D7E8",
"6. c #A5DBE9",
"7. c #ABDEEC",
"8. c #B3DAE4",
"9. c #BADEE7",
"0. c #B3DEEA",
"q. c #BCDEE9",
"w. c #AEE0EE",
"e. c #B3E2EE",
"r. c #BCE3ED",
"t. c #B4E4F1",
"y. c #BBE6F1",
"u. c #BFE8F2",
"i. c #C3E5EE",
"p. c #CAE6EE",
"a. c #C5E9EF",
"s. c #CDE9EF",
"d. c #D0E7EC",
"f. c #D4EAEE",
"g. c #DDE8EE",
"h. c #C2E7F2",
"j. c #C4E9F2",
"k. c #CCEBF3",
"l. c #CDEEF8",
"z. c #D3EEF4",
"x. c #D8EFF7",
"c. c #D9EFF8",
"v. c #CCF1F7",
"b. c #CCF2F9",
"n. c #D5F1F6",
"m. c #D8F2F7",
"M. c #D4F3F9",
"N. c #DCF3FA",
"B. c #E1EDF2",
"V. c #E2F4FA",
"C. c #E8F6FC",
/* pixels */
"                                                                                                                                ",
"                                                                                                                                ",
"                                                                                                                                ",
"                                                                                                                                ",
"                                                                                                                                ",
"                                                                                                                                ",
"                                                                                                                                ",
"                                                                                                                                ",
"                                                                                                                                ",
"                                                                                                                                ",
"                                                                                                                                ",
"                                                                                                                                ",
"                                                                                                                                ",
"                                                                                                                                ",
"                                                                                                                                ",
"                                                                                                                                ",
"                                                                                                                                ",
"                                                  n.m.                                                                          ",
"                                                  k.n.                                                                          ",
"                                                4.j.j.k.                                                                        ",
"                                              z.e.j.y.k.                                                                        ",
"                                              j.e.t.y.j.f.z.                                                                    ",
"                                            a.e.7.e.w.k.M.M.                                                                    ",
"                                            k.e.e.w.t.v.h.z.s.                                                                  ",
"                                            n.j.w.w.w.y.t.u.h.k.z.                                                              ",
"                                        z.k.j.u.e.w.w.w.7.t.y.k.z.      k.                                                      ",
"                                        k.e.e.e.e.w.w.,.S %.t.y.j.      j.0.B.                                                  ",
"                                        f.y.<.` <.w.w.G w G 1.t.j.z.    e.h.C.g.        k.                                      ",
"                                        z.j.Z e f _ P s 0 C o.0.k.l.i.h.t.c.V.V.V.    r.r.                                      ",
"                                p.a.p.k.j.e.S % d a r r % k G 7.y.j.0.t.y.M.n.M.V.  p.e.r.                                      ",
"                                r.0.t.j.e.=.U o 5 3 y e % z a 1.y.y.w.w.u.v.v.b.c.  k.t.e.                                      ",
"                                a.e.w.e.7.$.Y < 2 # O o & M 3 ..j.t.w.t.b.b.b.v.V.i.j.7.1.j.z.                                  ",
"                                r.e.w.w.7.W N g 2 &.6 x g 5 - J e.k.y.y.v.v.b.b.N.u.w...K e.M.d.f.                              ",
"                                M.u.w.w.6.v : 9 / V.d.N.s.j + i _ l.l.l.b.M.v.b.M.m.k.r.#.<.n.n.n.                              ",
"                                f.j.w.w.o.3 4 5 q.M.M.M.m.>.- - u h.M.v.m.O.u / a.v.M.C.0.@.j.n.z.                              ",
"                                  p.j.1.p 4 8.8.M.v.v.v.m.p.u - u f.V.l.r.x . X U v.b.C.2...:.z.                                ",
"                                    k.1.i 8 s.V.M.b.v.b.M.N.K : F V.V.v.O.x . X & 0.v.k.K J 1.t.9.                              ",
"                                  k.7.( W j i.N.M.l.b.M.b.b.@.3 =.C.M.i.g h $ o o #.M.p.a v 1.7.e.                              ",
"                                  j.4.J i M j.N.M.b.0.+.j.M.r.( z.M.M.) & k 0 > X ) M.f.b n 6.e.j.                              ",
"                                  n.j.{ i K l.b.b.M.^ x *.n.N.V.V.v.2.= 0 S w 0 o ..M.a.n B 7.j.z.                              ",
"                                    r.;.B r.n.v.k.+.@ c h 5.b.N.M.M.~ o a C w w $ +.c...f [ w.j.                                ",
"                                    u.1.[ s.m.e.h O % U 2 g k.v.v.M.z o l C t 0 % -.M.` A <.w.                                  ",
"                                      1.B e.M.8.# % e D e * &.M.v.2.h $ G d e 0 x r.M.q.1.w.e.                                  ",
"                                      1.[ i.v.r.U 0 t C e 0 k z.0.5 z 0 E a e d U @.M.m.j.w.e.n.                                ",
"                                      w.w.n.v.s.=.d t v e e b ~ 6 > E v W y s W 2 U v.v.j.w.e.v.                                ",
"                                    a.e.r.v.M.>.&.E s Z s s D i > i W E P s Z .., 1 b ..e.2.                                    ",
"                                        e.  n.@.b @.v A f f P C f m W ( Z f W E f r > u 4.                                      ",
"                                              V f ' P A A C P A n A | ! A A ! K m H i 8                                         ",
"                                                n Q I A H H Q J A I | J H J { L B K f e                                         ",
"                                                D L _ J J J K I L ! Q L L L X.T T T n 7                                         ",
"                                                  L { T L L L T L [ [ L T [ X.[ [ [ J                                           ",
"                                                          R R R R R R ] ] ] } } } }                                             ",
"                                                                                                                                ",
"                                                                                                                                ",
"                                                                                                                                ",
"                                                                                                                                ",
"                                                                                                                                ",
"                                                                                                                                ",
"                                                                                                                                ",
"                                                                                                                                ",
"                                                                                                                                ",
"                                                                                                                                ",
"                                                                                                                                ",
"                                                                                                                                "
};
