/* XPM */
static char *b068cbafd4934844ca0b09489d45cafbfSLysfZIMK8Gqk64[] = {
/* columns rows colors chars-per-pixel */
"64 64 168 2 ",
"   c None",
".  c #016E97",
"X  c #057299",
"o  c #0B759C",
"O  c #0C7A9E",
"+  c #11769E",
"@  c #127C9E",
"#  c #18799E",
"$  c #0F7CA1",
"%  c #117DA2",
"&  c #1C7EA2",
"*  c #12809F",
"=  c #1582A4",
"-  c #1B85A6",
";  c #1E8AA7",
":  c #1A86A8",
">  c #1D89AB",
",  c #2484A5",
"<  c #2B84A7",
"1  c #228BA7",
"2  c #228CAA",
"3  c #2C8BAC",
"4  c #358CAC",
"5  c #398DAE",
"6  c #2492AD",
"7  c #2A94AE",
"8  c #3790AF",
"9  c #3990AF",
"0  c #3599AF",
"q  c #228CB2",
"w  c #2791B7",
"e  c #2B94B3",
"r  c #2D99B1",
"t  c #2D93B8",
"y  c #3494B3",
"u  c #3B93B3",
"i  c #349CB4",
"p  c #3B9DB6",
"a  c #3397BA",
"s  c #369CBB",
"d  c #3C9EBC",
"f  c #36A1B6",
"g  c #3AA1B6",
"h  c #37A3B8",
"j  c #3BA4BA",
"k  c #3EA8BB",
"l  c #4196B3",
"z  c #449AB4",
"x  c #4C9AB7",
"c  c #469EB9",
"v  c #4C9DB8",
"b  c #549DB9",
"n  c #44A2B7",
"m  c #43A5BB",
"M  c #4BA4BB",
"N  c #43ABBD",
"B  c #4BABBB",
"V  c #54A1BA",
"C  c #5BA4BD",
"Z  c #53AABF",
"A  c #4DB2BF",
"S  c #51B1BF",
"D  c #62A7BE",
"F  c #46A3C0",
"G  c #4CA6C3",
"H  c #47A8C0",
"J  c #4BACC1",
"K  c #5CA6C0",
"L  c #51ABC3",
"P  c #5BADC4",
"I  c #55ABC9",
"U  c #5CAEC9",
"Y  c #4FB0C1",
"T  c #54B3C3",
"R  c #5AB3C5",
"E  c #5CBBC5",
"W  c #57B1C8",
"Q  c #5DB3C9",
"!  c #60A5C0",
"~  c #66A9C1",
"^  c #6CACC1",
"/  c #60AFC8",
"(  c #63B3C6",
")  c #6AB2C7",
"_  c #61BCC6",
"`  c #63B4CB",
"'  c #68B5C9",
"]  c #63BBCB",
"[  c #6BBCCE",
"{  c #70B4C7",
"}  c #73B7CC",
"|  c #7BB7CE",
" . c #72BCCE",
".. c #6DBCD1",
"X. c #73BBD3",
"o. c #79BFD3",
"O. c #66C2CA",
"+. c #6EC2CE",
"@. c #74C1D3",
"#. c #7EC4D4",
"$. c #7BC9D4",
"%. c #7BC2D8",
"&. c #7FC8DB",
"*. c #87BBCE",
"=. c #88BCCF",
"-. c #84C2D3",
";. c #8DC2D3",
":. c #83C9D5",
">. c #81C4DA",
",. c #83C9DB",
"<. c #8BCCDC",
"1. c #94C4D5",
"2. c #9EC9D7",
"3. c #94CBDF",
"4. c #8AD0D7",
"5. c #8CD1DC",
"6. c #95D1DE",
"7. c #9ED2DD",
"8. c #A4CCDC",
"9. c #A8CFDE",
"0. c #A6D0DB",
"q. c #91CFE2",
"w. c #93D3E1",
"e. c #9AD4E4",
"r. c #9CDAE0",
"t. c #9ED6E8",
"y. c #A9D5E2",
"u. c #A3D9E5",
"i. c #AEDCE6",
"p. c #A1D7E9",
"a. c #A3DAE9",
"s. c #ABDEEB",
"d. c #B1D4E3",
"f. c #B2DBE4",
"g. c #B2DFEB",
"h. c #BEDEE9",
"j. c #AEE0EE",
"k. c #B3E2EE",
"l. c #BBE4EE",
"z. c #B4E2F0",
"x. c #BCE5F1",
"c. c #BCEAF2",
"v. c #C3DFEB",
"b. c #C4E4ED",
"n. c #CCE6EC",
"m. c #C9E8EF",
"M. c #D1E7EC",
"N. c #D5EAEE",
"B. c #C1E7F2",
"V. c #CBE7F0",
"C. c #C4EAF3",
"Z. c #CBEBF3",
"A. c #CEEFF8",
"S. c #D0E6F0",
"D. c #D4EDF4",
"F. c #DCEEF3",
"G. c #D7EFF9",
"H. c #D8EEF8",
"J. c #CDF0F7",
"K. c #CBF2F9",
"L. c #D5F1F6",
"P. c #D9F1F7",
"I. c #D4F2F9",
"U. c #DCF3FB",
"Y. c #E1EDF2",
"T. c #E4F1F7",
"R. c #E3F3FB",
"E. c #E9F6FD",
/* pixels */
"                                                                                                                                ",
"                                                                                                                                ",
"                                                                                                                                ",
"                                                                                                                                ",
"                                                                                                                                ",
"                                                                                                                                ",
"                                                                                                                                ",
"                                                                                                                                ",
"                                                                                                                                ",
"                                                                                                                                ",
"                                                                                                                                ",
"                                                                                                                                ",
"                            N.                                                                                                  ",
"                            L.D.                                                                                                ",
"                            D.P.      D.D.  M.                                                                                  ",
"                              A.Z.    C.Z.D.L.P.                                                                                ",
"                              Z.k.    l.k.c.C.I.                                                                                ",
"                              A.k.D.n.Z.k.j.z.l.                                                                                ",
"                              l.k.C.c.Z.z.j.j.k.                                                                                ",
"                              k.j.k.k.x.k.j.j.j.l.                                                                              ",
"                              x.z.s.k.z.x.j.j.s.z.h.G.I.                                                                        ",
"                              c.s.k.t.a.x.j.z.a.e.z.Z.I.l.  D.                                                                  ",
"                              Z.z.t.F F s.z.e.G s ..x.Z.g.k.G.G.                    N.                                          ",
"                M.          l.Z.x.X.q t U I s q & t w.B.j.k.z.x.Z.                D.A.A.H.D.                                    ",
"                Z.b.      Z.k.z.z.I w q G a q o . 8 X.e.j.j.j.j.b.              C.B.z.j.x.A.H.      D.      F.D.                ",
"                C.l.      D.z.j.s.F t % x c X . . z / L <.j.j.p.k.D.            z.j.z.j.j.z.C.z.s.x.Z.D.n.C.L.L.                ",
"              M.Z.z.D.    A.z.j.#.U e O & 5 . X o 5 K d s ..Q F %.B.D.D.      l.j.j.=.I <.j.j.j.j.j.k.L.C.j.C.I.D.              ",
"              D.x.j.x.B.B.x.p.w.G [ s X & 3 X o % 3 3 : : e s F H 5.C.P.D.  g.j.z.p.d > d p.j.j.j.j.k.x.k.k.Z.L.                ",
"              D.z.j.j.j.C.z.L m j Q p o - y 3 = $ - = % * 2 j #.6...s.C.B.k.s.j.z.z.q.u % ..z.j.k.s.s.x.Z.C.Z.D.                ",
"                x.j.g.A.U.s.N e 1 y l = - ) x.#.V o.P = : 1 i [ K.,.,.j.k.l.x.Z.G.R.E.M.x t <.j.e.@.s.A.B.l.n.                  ",
"                k.j.B.U.I.c.W 1 : 2 n ; ; #.s.@.%.U ' M M y 6 j 4.j.%.D.G.I.R.R.U.I.U.U.h.l m ` U <./ o.k.B.                    ",
"                C.k.D.I.K.K.j.N 2 2 p e 6 #.X.p L <.m.F.P.b.-.Z +.C.D.R.I.K.I.I.K.K.K.K.P.8.e s ` 8 X c a.B.                    ",
"                Z.j.H.I.K.K.c.O.i 7 r 7 7 $.5.:.Z.I.R.R.U.U.R.A.C.U.I.K.K.K.I.I.K.K.K.K.I.U.! - c o o a e.k.D.                  ",
"                C.z.G.U.K.K.c._ g i f f i &.Z.J.I.K.J.K.K.K.I.I.K.L.J.K.K.K.I.I.K.K.K.K.I.E.h.3 2 = ; m w.j.C.                  ",
"                l.k.B.E.I.K.C.+.k h j j N i.U.K.K.K.K.K.K.K.K.K.K.K.I.I.K.K.K.K.K.K.K.K.J.I.I.;.> 2 g @.s.j.Z.                  ",
"                m.k.z.I.I.K.K.j.+.T A N 4.U.I.K.K.K.I.I.K.A.I.I.J.J.U.E.K.K.K.K.K.K.K.K.K.K.K.Z.Z r J 5.k.k.                    ",
"                  Z.k.b.P.P.I.J.c.7.4.j.P.I.J.K.K.K.U.E.R.R.E.R.U.I.H.n.I.I.K.K.J.K.K.K.K.K.K.R.y.k A w.k.                      ",
"                        F.R.U.I.K.K.L.P.I.K.K.K.K.I.D.8.D.T.R.R.U.I.f.4 h.R.K.K.K.I.I.K.K.K.K.U.R.6.+.a.c.                      ",
"                          E.T.R.K.K.K.K.K.K.J.J.K.U.1.C 7.v.E.I.K.I.;.& ;.F.I.K.J.R.D.U.K.K.K.K.P.c.s.s.c.                      ",
"                          T.  U.K.P.U.K.K.K.I.l.m.U.C ) { *.E.E.U.U.| 8 v ;.I.K.I.9.~ Z.R.I.K.K.C.j.j.j.l.                      ",
"                              T.R.R.T.I.K.I.P.v D 9., -.l D Y.d.E.R.~ b < 4 Z.I.I.D 5 =.R.I.K.J.C.i.i.g.f.                      ",
"                              R.R.Y.F.R.K.I.n.* o # # -.& 5 D 5 F.V.5 K + X C y.1.< 5 V 9.U.K.K.Z.                              ",
"                              T.T.    T.I.I.b.3 . . 4  .# . X o ^ b 3 M . X X % + - y 4 9 n.I.J.D.                              ",
"                                      T.P.9.C z X 7 ]  .@ o o o o X V y > = O $ O , y - % ) R.R.T.                              ",
"                                        C 1 & c f T +.@.7 O * * $ - ` m F s : = 1 a m > = - 2.T.                                ",
"                                        * * 1 E _ 0 m E B ; = * : L ] B ] +.m H G W W p 2 1                                     ",
"                                          g _ $.n : u g E m r f A $._ J &.s.<.q.R Q L k s 7                                     ",
"                                          O.E T 0 > p i f _ O.O.O.$.n i [ j.j.$.R R p p N n                                     ",
"                                          0 e f n 6 i i 7 f A S S R r r A &.$.E R R g f N                                       ",
"                                          0 i i m i i i r f i i f B g i m E E A J T j j m                                       ",
"                                            g h j f h h h j j k h j j k k k N N N Y N N N                                       ",
"                                              n n m m n M B m B B B B B B B B B B B B B                                         ",
"                                                                                                                                ",
"                                                                                                                                ",
"                                                                                                                                ",
"                                                                                                                                ",
"                                                                                                                                ",
"                                                                                                                                ",
"                                                                                                                                ",
"                                                                                                                                ",
"                                                                                                                                ",
"                                                                                                                                ",
"                                                                                                                                ",
"                                                                                                                                "
};
