/* XPM */
static char *b4a9b12f472241888d3af933c0fa30acRe6smsGajlgbCW68[] = {
/* columns rows colors chars-per-pixel */
"64 64 158 2 ",
"   c None",
".  c #016D96",
"X  c #086F97",
"o  c #036E99",
"O  c #037197",
"+  c #087096",
"@  c #057199",
"#  c #0C749B",
"$  c #0F799F",
"%  c #11769C",
"&  c #157A9E",
"*  c #1C7C9F",
"=  c #0E7BA1",
"-  c #147EA1",
";  c #197CA2",
":  c #217FA2",
">  c #1581A4",
",  c #1C84A5",
"<  c #1C88A6",
"1  c #1680A8",
"2  c #1C86AB",
"3  c #1E8BA9",
"4  c #2382A5",
"5  c #2B87A7",
"6  c #268DA6",
"7  c #2B88A7",
"8  c #2286AB",
"9  c #2986A8",
"0  c #238CAB",
"q  c #2B8CAC",
"w  c #3087A7",
"e  c #348CAD",
"r  c #3A8EAD",
"t  c #2791AC",
"y  c #2C93AE",
"u  c #3293AF",
"i  c #3F90AF",
"p  c #248EB3",
"a  c #318FB1",
"s  c #2690B5",
"d  c #2A92B3",
"f  c #2D94BA",
"g  c #3395B3",
"h  c #3C95B2",
"j  c #3499B4",
"k  c #3B9BB5",
"l  c #3397BA",
"z  c #359BB9",
"x  c #3A9DBA",
"c  c #3DA1B7",
"v  c #3DA2BE",
"b  c #4394B2",
"n  c #4D97B6",
"m  c #449BB6",
"M  c #4C99B6",
"N  c #439ABA",
"B  c #539CB6",
"V  c #549EBA",
"C  c #43A5BC",
"Z  c #4DA3BB",
"A  c #44A9BE",
"S  c #4BAABD",
"D  c #55A3BD",
"F  c #5BA3BC",
"G  c #63A5BE",
"H  c #43A4C1",
"J  c #4CA6C4",
"K  c #46A9C0",
"L  c #4CACC1",
"P  c #51A6C2",
"I  c #5CA5C0",
"U  c #54ACC4",
"Y  c #5BAEC9",
"T  c #54B1C4",
"R  c #5AB3C6",
"E  c #5BB2C9",
"W  c #6AA7C0",
"Q  c #63AEC3",
"!  c #6BAFC5",
"~  c #73ACC4",
"^  c #6BB1C5",
"/  c #61BBC6",
"(  c #63B5CB",
")  c #6DB2C8",
"_  c #65BBCC",
"`  c #6ABBCE",
"'  c #73B1C6",
"]  c #7BB6CB",
"[  c #70BFCF",
"{  c #7EBACE",
"}  c #65B5D0",
"|  c #68B7D0",
" . c #6AB8D1",
".. c #73BDD1",
"X. c #6CC4CC",
"o. c #72C3CE",
"O. c #73C2D1",
"+. c #7CC3D3",
"@. c #7DC4D9",
"#. c #82BACC",
"$. c #84BDD0",
"%. c #8ABFD0",
"&. c #8BC3D4",
"*. c #88C9D6",
"=. c #84C6DA",
"-. c #83C9DB",
";. c #8BCADC",
":. c #92C4D6",
">. c #93CDDC",
",. c #9CCCDC",
"<. c #93D2DD",
"1. c #9AD2DE",
"2. c #A4CDDC",
"3. c #A8CFDC",
"4. c #A5D1DE",
"5. c #8DCDE1",
"6. c #91CFE1",
"7. c #96D2E3",
"8. c #9AD4E3",
"9. c #9BD8E4",
"0. c #A3D4E1",
"q. c #A8D6E2",
"w. c #A5D9E4",
"e. c #ADDAE4",
"r. c #A3D9E8",
"t. c #ABDEEB",
"y. c #B4D5E2",
"u. c #B4DBE6",
"i. c #BADBE5",
"p. c #B3DEEB",
"a. c #BDDFE9",
"s. c #AEE0EE",
"d. c #B3E2EE",
"f. c #BBE3EC",
"g. c #BCE8EF",
"h. c #B6E4F0",
"j. c #BCE5F1",
"k. c #BFE8F3",
"l. c #C3E3EC",
"z. c #CBE6ED",
"x. c #C2E8EF",
"c. c #CCE9EE",
"v. c #D4EAEE",
"b. c #C2E7F1",
"n. c #C4EBF3",
"m. c #CCECF4",
"M. c #D3EDF4",
"N. c #DBEEF4",
"B. c #CCF1F6",
"V. c #CCF2F9",
"C. c #D3F1F6",
"Z. c #DBF1F6",
"A. c #D4F3F9",
"S. c #DCF3FA",
"D. c #E3EEF3",
"F. c #E3F1F7",
"G. c #E3F4FB",
"H. c #EBF6FB",
/* pixels */
"                                                                                                                                ",
"                                                                                                                                ",
"                                                                                                                                ",
"                                                                                                                                ",
"                                                                                                                                ",
"                                                                                                                                ",
"                                                                                                                                ",
"                                                                                                                                ",
"                                                                                                                                ",
"                                                                                                                                ",
"                                                                                                                                ",
"                                                                                                                                ",
"                                                                                  l.                                            ",
"                                                                                  d.                                            ",
"                                                                                    f.                                          ",
"                                M.l.                                                f.                                          ",
"                                m.d.                                                f.                                          ",
"                                M.f.                                                                                            ",
"                                  b.f.                                                                                          ",
"                                  b.g.v.C.M.                                    M.M.                                            ",
"                                  b.h.A.b.M.                  M.                m.f.                                            ",
"                                z.h.s.b.g.M.                M.S.A.    v.        n.d.                                            ",
"                                m.h.s.s.d.M.                C.C.b.A.M.S.A.N.M.b.s.b.N.                                          ",
"                              c.h.s.s.s.s.m.M.  N.          S.A.j.m.C.C.m.n.j.h.b.M.S.                                          ",
"                    c.        m.h.5.} r.s.k.b.M.A.        M.A.m.j.b.m.m.j.8.} p.G.G.A.b.N.                                      ",
"                        i.    f.t.J p } s.s.j.m.j.C.    v.A.m.b.j.d.d.n.j.| s q.S.S.n.h.F.                                      ",
"                              j.7.l p x 8.s.d.b.d.b.m.M.b.n.j.d.h.s.s.j.t.H p %.A.b.r.h.S.m.e.p.M.                              ",
"                              b.5.f ; 2 | s.d.h.;.;.s.h.s.d.h.h.h.s.s.h.5.f - ] A.&.P t.M.m.t.h.M.                              ",
"                    t.d.j.    h. .s @ $ x 7.h.t.v z Y 6.s.h.h.h.h.s.s.t.Y } q 4.C.b 2 ..C.m.s.b.C.                              ",
"                  f.h.n.n.d.s.s.E p @ @ p E r.7.x x l v | 7.h.h.h.s.s.6.U z.y.M.N.b X C n.b.s.j.m.                              ",
"                  S.n.V.V.k.s.9.H , . . 8 v T _ L q.I 0 x L r.h.h.j.p.| ..G.G.A.S.&.+ m m.f.d.d.m.v.l.d.p.l.                    ",
"                  S.M.V.n.d.s.O.x - . O > U C E E C.d.h z A -.j.h.M.p.Y u.S.V.V.V.m.W ,.b. .;.t.n.1.@.*.9.h.m.                  ",
"                  V.S.n.g.r.d.s.*.#.% . u f.o.( _ b.A.&.0 A ( d.d.M.;.>.S.V.V.V.V.V.C.A.m.u.R @.o.A A A T 9.V.                  ",
"                  m.S.j.7._ f.S.A.N.r . #.A.q.S ( x.A.1.& A T 7.t.m.8.a.S.V.V.V.V.V.A.V.G.l.R ..S L *.` S +.x.                  ",
"                  V.A.b.O.A 2.H.A.S.F 4 f.A.f.4 F A.V.:.@ d R X._ f.A.G.V.V.V.V.V.V.V.V.G.$.e h $ ^ G.e.S o.                    ",
"                  V.V.n.O.c r { m.V.&.] A.V.n.! i.S.B.&.O & A _ C u.A.V.V.V.V.V.V.V.V.V.C.M w 4 y 4.A.m.<.t.                    ",
"                N.B.A.C.w.8.6 ; u.V.V.Z.A.B.B.V.Z.V.V.1.8 $ > g > 4.A.>.I u.A.V.V.V.V.V.n.M Z S o.k.V.B.d.k.v.                  ",
"                Z.B.B.A.G.G.:.] N.B.A.S.u.e.A.V.B.B.V.B.z.#., q , e.n.e . V C.B.C.V.V.V.A.<.X.X.9.n.n.g.s.s.b.C.                ",
"                S.A.V.A.S.A.S.Z.S.V.B.B.F b M.C.>.2.A.V.G.z.y 6 u x.d.* . b m.b.#.m.V.V.A.m.7.9.h.n.h.s.s.s.d.m.                ",
"                  S.S.A.A.V.A.B.V.S.S.8.& + %.l.4 b C.A.B.x.k 3 Q C.t.; & &.N.3.& 3.A.B.V.B.b.s.g.V.  s.s.s.d.                  ",
"                    N.C.V.V.A.B.n.' ' ^ = O ; F & ; y.z.m.n.Z j e.S.t.% D D y.%.. G F.A.V.V.b.t.m.B.                            ",
"                      S.V.A.  S.i.% . N x 2 @ 5 : # B e &.S.+.+.M.A.0.4 ) $ F b . w v.A.V.C.B.C.S.B.                            ",
"                      S.A.D.  Z.    + g J s ; 8 a # 9 . n M.M.m.A.A.;.P U 1 X . o = y.G.a.2.C.A.B.V.C.                          ",
"                    N.A.S.            8 N 2 p ; ) r 9 . 4 x.B.A.B.V.I D 8 8 h D % X 2.F.G : u.B.V.B.                            ",
"                    Z.B.S.            8 b 2 x 2 Q I a @ $ ,.n.r.n.9.9 h X m =.>.{ I ;.n # . ~ S.A.A.                            ",
"                    F.A.F.              e 9 Y N g ..J 2 X h M 8 b 6 4 7 4 F 8 d 1.j.N # ; %     F.                              ",
"                    F.G.D.              , q k @.Y  .E z d k j > @ @ q , u 7 > z x k 6 z v c                                     ",
"                      D.                - q 0 @.8.X.J < c E c = $ = y 8 k - > A L S C 6 3 C                                     ",
"                                          g k C R G c > < C t > > > q j j > > v X.L 0 > > 0                                     ",
"                                          q k 3 y j c < < 3 0 , < < 3 c y 3 3 y c t < < 3                                       ",
"                                          6 t 0 0 t t 3 0 3 0 t t 3 0 g t 0 t t 0 0 t t 0                                       ",
"                                                                                                                                ",
"                                                                                                                                ",
"                                                                                                                                ",
"                                                                                                                                ",
"                                                                                                                                ",
"                                                                                                                                ",
"                                                                                                                                ",
"                                                                                                                                ",
"                                                                                                                                ",
"                                                                                                                                ",
"                                                                                                                                ",
"                                                                                                                                ",
"                                                                                                                                "
};
