/* XPM */
static char *e49a317fff484665a4d426e2b8f43a48RGEBofRCPfbxxM6J[] = {
/* columns rows colors chars-per-pixel */
"64 64 30 1 ",
"  c None",
". c #770F18",
"X c #7C1116",
"o c #7E1319",
"O c #84131C",
"+ c #8C141D",
"@ c #92141D",
"# c #9E161F",
"$ c #93181D",
"% c #99191F",
"& c #A1171E",
"* c #831320",
"= c #921622",
"- c #9E1722",
"; c #9F1823",
": c #A11622",
"> c #A91722",
", c #A01922",
"< c #AD1923",
"1 c #B41A24",
"2 c #BB1B25",
"3 c #B61B28",
"4 c #BC1B29",
"5 c #C41C27",
"6 c #CC1D27",
"7 c #C41C29",
"8 c #CC1D29",
"9 c #D51C27",
"0 c #D61C29",
"q c #D91D2A",
/* pixels */
"               *@++*+***+*********OO+*****+**+O+O+OX            ",
"              ;8qq00000000090qqq000900q0000099009065+           ",
"              :8qqq000000090000000900000000090900q97@           ",
"              :8q00q00000090000009000000000000000084+           ",
"              :8qqq00000000000q0000900000000000qqq87$           ",
"              :8qqq0q00000qqqqq0qq00qqq0000000000q95@           ",
"             +<8q0q00990052><1<<<&<<<370000000000q05%           ",
"o:77777777777880000000900:.           >0000000000q006577777777;o",
"*<qq0000qqq000q0q000000q9-            &9000000000000000qqq00qq<*",
"*<qq00000q0000000990q00q8#            &900000000000000008q00q0<*",
"*<qq0000000000000q0099009#            ,8q000000000000000q909qq<*",
"*<00009900000000000000009#            :0q00000q000000000qq09qq1*",
"*<qq00000000000000009q9q9#            ,0qq000000q00000000000qq<*",
"*>0q00000000q00000000q9q8;            ;8qq000000000000q00000qq<*",
"O<00q000000000000000009q8#            <000000000000000q00000qq<*",
"O<00q00000000000000000qq8#            &900000000000q00000000qq<*",
"O>qq00000000000000q0000q9;            ;800008qq8000q0000qq00q0<*",
"*<0q0000000q00000000000q9&            ;qq008qqqq000000000q00q0<*",
"*>qq000000000000q000000q8,            ;8q0qqqqqq000000000000qq3o",
"O>qq0000000000q0000000909#            ;qq0qq8qqqq00qq000qq00q03*",
"*<0000000000q9990000009q8;            =47777777777777777777777;o",
"*<0q00000000q99qq009q09q8-                                      ",
"*<0q900000009qqq090q009q0-                                      ",
"*<009000000000000000009q0:                                      ",
"*<0q9000000000000000009q9#                                      ",
"*>0q0000000000000q00q09q9>                                      ",
"*<00900000000000q900009q0:                                      ",
"O<qq0000000000000000000q0:                                      ",
"O>0q0000q00000000000000q0;                                      ",
"O<0q000000000000000q909q0;                                      ",
"X1qq0000000q0000q000q09q8;                                      ",
"O&qq9000000000009000000q0;                                      ",
"O10q90090000q900000000qq0:                                      ",
"O>0q90000000000000000qq88;                                      ",
"O>009900000000000000000q0;                                      ",
"O>qq990000000000000000008;                                      ",
"O>9q0000000000000000000q8;                                      ",
"O>9q90000000000q0000000q8:                                      ",
"O<0q00000000000000q000qq8;                                      ",
"O<0q00000q0000q00000qqqq8;                                      ",
"O>9q990q0000000000q0000q0;                                      ",
"O>qq9q0900000000q00000008;                                      ",
"O>9q9q00000000000000000q8;            =77778787778787678787787,o",
"O&999000000000q0000000000;            ;qqqqqqqqqq00qq0qqqq0qqq<O",
"O<0q0000000000000000q00q0;            ;8qq00q000000000009qq9q0<O",
"X>qq9000000000q0000000008;            ;8qq00000000000000qq99qq<O",
"O&00900000q000000q00000q8;            ;8qqq00000q90000009q99q9<O",
"O10q9q00000000000000000q0;            ;8q8000000qqq000009999q9<O",
"X<qqqqq900000000000009000-            ;0q00000009qq900q00000q0<O",
"O&9q9q990000000000q0000q8-            ;8000000008q0000000909q0<O",
"o<9q98990000q000q900000q8-            ;8q000000000000000000999<O",
"o<qq9q9q000000000000000q0-            ;0q0000000000000000000q9<O",
"o&q000q900000q00000000008;            -800000q00000000009qqqqq1O",
"O10000qq0000000000000q008;            #9q0000090000000009999qq<O",
"O&qq000q00000qq9000000000;            -0q000000000000000qqq9qq1O",
" $22111111111280000q000q8>o          X>0000009q000095233333121% ",
"              <8q00q00900877254444522569000000000097$           ",
"              -8qqqq000000q00qq0qqq0qq9900000000q007            ",
"              :8qq00000000000000q000009000000q00qq94$           ",
"              &8q00000000000000090000009000000000q94=           ",
"              ,8qqq00q000000000099q0q0qqq0000q0qqq07=           ",
"              %5869888886889889886686666888888888083            ",
"                                                                ",
"                                                                "
};
