/* XPM */
static char *result[] = {
/* columns rows colors chars-per-pixel */
"64 64 239 2 ",
"   c #2D3D19",
".  c #35381C",
"X  c #2C1324",
"o  c #361F27",
"O  c #331B28",
"+  c #362125",
"@  c #3B2329",
"#  c #392429",
"$  c #382A31",
"%  c #293634",
"&  c #3C3435",
"*  c #393937",
"=  c #32342A",
"-  c #1A3535",
";  c #48241D",
":  c #422A2C",
">  c #4B2E2B",
",  c #462926",
"<  c #47352B",
"1  c #54332B",
"2  c #462C33",
"3  c #413435",
"4  c #4C3434",
"5  c #493A38",
"6  c #523633",
"7  c #543B36",
"8  c #543C3A",
"9  c #5A3D3B",
"0  c #593838",
"q  c #522F33",
"w  c #66342C",
"e  c #663B39",
"r  c #35471C",
"t  c #3A4426",
"y  c #3B4932",
"u  c #4A5D22",
"i  c #465727",
"p  c #4A453B",
"a  c #55423B",
"s  c #5B423C",
"d  c #594639",
"f  c #53502F",
"g  c #62443D",
"h  c #63493F",
"j  c #6D493C",
"k  c #72453C",
"l  c #665438",
"z  c #4C6324",
"x  c #52682B",
"c  c #5C6A31",
"v  c #637727",
"b  c #736A39",
"n  c #414F1F",
"m  c #613D46",
"M  c #1C5343",
"N  c #464A40",
"B  c #5C4441",
"V  c #534941",
"C  c #5A5648",
"Z  c #624641",
"A  c #654B43",
"S  c #694D42",
"D  c #634E4D",
"F  c #6A4A47",
"G  c #744945",
"H  c #6C5243",
"J  c #6D534A",
"K  c #685847",
"L  c #725646",
"P  c #7D5546",
"I  c #7B5B46",
"U  c #725649",
"Y  c #755B4A",
"T  c #795D4C",
"R  c #755944",
"E  c #7D4655",
"W  c #6E5952",
"Q  c #735E53",
"!  c #7A5E51",
"~  c #795855",
"^  c #5C644C",
"/  c #58664C",
"(  c #496E58",
")  c #5C6B54",
"_  c #577356",
"`  c #476D4E",
"'  c #636B4D",
"]  c #67674A",
"[  c #7C634E",
"{  c #76684D",
"}  c #636B52",
"|  c #6A6755",
" . c #7C6252",
".. c #786858",
"X. c #677459",
"o. c #787759",
"O. c #7E7749",
"+. c #7A6C66",
"@. c #787A63",
"#. c #767D7A",
"$. c #527661",
"%. c #8B4E47",
"&. c #875648",
"*. c #875B54",
"=. c #965956",
"-. c #935355",
";. c #A95F56",
":. c #88674E",
">. c #99684E",
",. c #846A5C",
"<. c #856955",
"1. c #966957",
"2. c #8B735A",
"3. c #87785B",
"4. c #937C5B",
"5. c #9C7C5B",
"6. c #977756",
"7. c #98734A",
"8. c #A76255",
"9. c #A07C5A",
"0. c #A2765F",
"q. c #A26B4E",
"w. c #836E63",
"e. c #8D6D62",
"r. c #857365",
"t. c #897262",
"y. c #8B7C62",
"u. c #89776A",
"i. c #957D64",
"p. c #957B68",
"a. c #8D7E7A",
"s. c #8A7A71",
"d. c #927F71",
"f. c #976461",
"g. c #B37A65",
"h. c #A96763",
"j. c #3D8E72",
"k. c #7F805E",
"l. c #798365",
"z. c #738B6B",
"x. c #449A76",
"c. c #91885D",
"v. c #A3825D",
"b. c #878667",
"n. c #95836C",
"m. c #9C846B",
"M. c #958C6A",
"N. c #9C8B6C",
"B. c #998564",
"V. c #97936C",
"C. c #8A8876",
"Z. c #948475",
"A. c #9C8B72",
"S. c #94867B",
"D. c #96887C",
"F. c #988977",
"G. c #899372",
"H. c #999877",
"J. c #8D9464",
"K. c #AC8C65",
"L. c #A38D6D",
"P. c #AB8D6B",
"I. c #A48967",
"U. c #B18E64",
"Y. c #B2866D",
"T. c #A9946B",
"R. c #B5936A",
"E. c #BA9669",
"W. c #A38D72",
"Q. c #A58771",
"!. c #AA9474",
"~. c #A99578",
"^. c #B49D7A",
"/. c #B59977",
"(. c #B18471",
"). c #B4A17B",
"_. c #B9A27D",
"`. c #BEA97F",
"'. c #ADAE71",
"]. c #9BA378",
"[. c #C19A6A",
"{. c #C8A575",
"}. c #D3AC75",
"|. c #D5AF78",
" X c #D6B17B",
".X c #C7A26F",
"XX c #687083",
"oX c #897886",
"OX c #3DAA85",
"+X c #46AE8A",
"@X c #998B82",
"#X c #968980",
"$X c #9C9786",
"%X c #8F8E91",
"&X c #AC9A84",
"*X c #AD9E8A",
"=X c #A49687",
"-X c #B59D86",
";X c #A59A92",
":X c #A99E94",
">X c #A49790",
",X c #B6AA84",
"<X c #B4A38C",
"1X c #BAA885",
"2X c #BCAC95",
"3X c #AAA58F",
"4X c #9793B2",
"5X c #C3AC84",
"6X c #C4AE8A",
"7X c #C6B289",
"8X c #CCB38A",
"9X c #C7B287",
"0X c #D0B78C",
"qX c #D2B98E",
"wX c #D9B986",
"eX c #CDBA99",
"rX c #C8B695",
"tX c #D3BD93",
"yX c #D3BC96",
"uX c #BFC4AB",
"iX c #CCC296",
"pX c #D5C39C",
"aX c #D8C59A",
"sX c #E4CA97",
"dX c #EDD39E",
"fX c #DECBA3",
"gX c #D8C6A1",
"hX c #E1CDA5",
"jX c #E9D6A9",
"kX c #F3DDAC",
"lX c #F2D9A5",
"zX c #F1DEB2",
"xX c #ECDEB3",
"cX c #F5E1B2",
"vX c #F9E5B5",
"bX c #FBE9B9",
"nX c #FBE8B7",
"mX c #F5E0AE",
"MX c None",
/* pixels */
"MXMXMXMXMXMXMXMXMXMXMXMXMXMXMXMXMXMXMXMXMXMXMXMXMXMXMXMXMXMXMXMXMXMXMXMXMXMXMXMXMXMXMXMXMXMXMXMXMXMXMXMXMXMXMXMXMXMXMXMXMXMXMXMX",
"MXMXMXMXMXMXMXMXMXMXMXMXMXMXMXMXMXMXMXMXMXMXMXMXMXMXMXMXMXMXMXMXMXMXMXMXMXMXMXMXMXMXMXMXMXMXMXMXMXMXMXMXMXMXMXMXMXMXMXMXMXMXMXMX",
"MXMXMXMXMXMXMXMXMXMXMXMXMXMXMXMXMXMXMXMXMXMXMXMXMXMXMXMXMXMXMXMXMXMXMXMXMXMXMXMXMXMXMXMXMXMXMXMXMXMXMXMXMXMXMXMXMXMXMXMXMXMXMXMX",
"MXMXMXMXMXMXMXMXMXMXMXMXMXMXMXMXMXMXMXMXMXMXMXMXMXMXMXMXMXMXMXMXMXMXMXMXMXMXMXMXMXMXMXMXMXMXMXMXMXMXMXMXMXMXMXMXMXMXMXMXMXMXMXMX",
"MXMXMXMXMXMXMXMXMXMXMXMXMXMXMXMXMXMXMXMXMXMXMXMXMXMXMXMXMXMXMXMXMXMXMXMXMXMXMXMXMXMXMXMXMXMXMXMXMXMXMXMXMXMXMXMXMXMXMXMXMXMXMXMX",
"MXMXMXMXMXMXMXMXMXMXMXMXMXMXMXMXMXMXMXMXMXMXMXMXMXMXMXMXMXMXMXMXMXMXMXMXMXMXMXMXMXMXMXMXMXMXMXMXMXMXMXMXMXMXMXMXMXMXMXMXMXMXMXMX",
"MXMXMXMXMXMXMXMXMXMXMXMXMXMXMXMXMXMXMXMXMXMXMXMXMXMXMXMXMXMXMXMXMXMXMXMXMXMXMXMXMXMXMXMXMXMXMXMXMXMXMXMXMXMXMXMXMXMXMXMXMXMXMXMX",
"MXMXMXMXMXMXMXMXMXMXMXMXMXMXMXMXMXMXMXMXMXMXMXMXMXMXMXMXMXMXMXMXMXMXMXMXMXMXMXMXMXMXMXMXMXMXMXMXMXMXV.B.MXMXMXMXMXMXMXMXMXMXMXMX",
"MXMXMXMXMXMXMXMXMXMXMXMXMXMXMXMXMXMXMXMXMXMXMXMXMXMXMXMXMXMXMXMXMXMXMXMXMXMXMXMXMXMXMXMXMXMXMXMXMX`.sX{.MXMXMXMXMXMXMXMXMXMXMXMX",
"MXMXMXMXMXMXMXMXMXMXMXMXMXMXMXMXMXMXMXMXMXMXMXMXMXMXMXMXMXMXMXMXMXMXMXMXMXMXMXMXMXMXMXMXMXMXMXMX{ b.b.b.K MXMXMXMXMXMXMXMXMXMXMX",
"MXMXMXMXMXMXMXMXMXMXMXMXMXMXMXMXMXMXMXMXMXMXMXMXMXMXMXMXMXMXMXMXMXMXMXMXMXMXMXMXMXMXMXMXMXMXMXMX| o.X.o.C MXMXMXMXMXMXMXMXMXMXMX",
"MXMXMXMXMXMXMXMXMXMXMXMXMXMXMXMXMXMXMXMXMXMXMXMXMXMXMXMXMXMXMXMXMXMXMXMXMXMXMXMXMXMXMXMXMXMXMXMXMX].X.G.H.MXMXMXMXMXMXMXMXMXMXMX",
"MXMXMXMXMXMXMXMXMXMXMXMXMXMXMXMXMXMXMXMXMXMXMXMXMXMXMXMXMXMXMXMXMXMXMXMXMXMXMXMXMXMXMXMXMXMXMXMXMX,XT.1X~.MXMXMXMXMXMXMXMXMXMXMX",
"MXMXMXMXMXMXMXMXMXMXMXMXMXMXMXMXMXMXMXMXMXMXMXMXMXMXMXMXMXMXMXMXMXMXMXMXMXMXMXMXMXMXMXMXMXMXMXMXMXW.1 6._.MXMXMXMXMXMXMXMXMXMXMX",
"MXMXMXMXMXMXMXMXMXMXMXMXMXMXMXMXMXMXMXMXMXMXMXMXMXMXMXMXMXMXMXMXMXMXMXMXMXMXMXMXMXMXMXMXMXMXMXMXMX!.{ m.).MXMXMXMXMXMXMXMXMXMXMX",
"MXMXMXMXMXMXMXMXMXMXMXMXMXMXMXMXMXMXMXMXMXMXMXMXMXMXMXMXMXMXMXMXMXb l MXMXMXMXMXMXMXMXMXMXMXMXMXMX).)._.).MXMXMXMXMXMXMXMXMXMXMX",
"MXMXMXMXMXMXMXMXMXMXMXMXMXMXMXMXMXMXMXMXMXMXMXMXMXMXMXMXMXMXMXMX6.v.2. .MXMXMXMXMXMXMXMXMXMXMXMXMXV.V.M.B.MXMXMXMXMXMXMXMXMXMXMX",
"MXMXMXMXMXMXMXMXMXMXMXMXMXMXMXMXMXMXMXMXMXMXMXMXMXMXMXMXMX^ n.m.N.L.A.B.2.o.C MXMXMXMXMXMXMXMXMX] ] ] ] ] MXMXMXMXMXMXMXMXMXMXMX",
"MXMXMXMXMXMXMXMXMXMXMXMXMXMXMXMXMXMXMXMXMXMXMXMXMXMXMX| ~.rXjXzXzXcXmXsX|.}.U.1.G MXMXMXMXMXMXMX{ b.b.o.| 7 MXMXMXMXMXMXMXMXMXMX",
"MXMXMXMXMXMXMXMXMXMXMXMXMXMXMXMXMXMXMXMXMXMXMXMXMXMX ./.lXvXkXlXjXlXlXsX}.{.wX}.0.F MXMXMXMXMXMXiXiXjXkXN.s MXMXMXMXMXMXMXMXMXMX",
"MXMXMXMXMXMXMXMXMXMXMXMXMXMXMXMXMXMXMXMXMXMXMXMXMXn.rXkXkXvXnXnXcXdX X|.}. XsX X|.6.8 MXMXMXMXMXc.b.^.H.3.MXMXMXMXMXMXMXMXMXMXMX",
"MXMXMXMXMXMXMXMXMXMXMXMXMXMXMXMXMXMXMXMXMXMXMXMX_ iXbXbXcXlXmXbXcXsX}.|.}.|..X}.}.I.V MXMXMXMXMXK ' ' / C MXMXMXMXMXMXMXMXMXMXMX",
"MXMXMXMXMXMXMXMXMXMXMXMXMXMXMXMXMXMXMXMXMXMXMXMXH.kXnXnXnXkXkXlXdX X}.}.}..XE.[.6.J B * MXMXMXMXMXG.z.z.b.MXMXMXMXMXMXMXMXMXMXMX",
"MXMXMXMXMXMXMXMXMXMXMXMXMXMXMXMXMXMXMXMXMXMXMXMXaXdXdXcXbXbXmXwX}.}.}.}.|.|.|.I.U A A V MXMXMXMXMX,X!.,X!.MXMXMXMXMXMXMXMXMXMXMX",
"MXMXMXMXMXMXMXMXMXMXMXMXMXMXMXMXMXMXMXMXMXMXMXMX9X[..XyXfXfXaX8X[.[.E.[.[.[.U.Y s Z s s MXMXMXMXMXT.1 <.).MXMXMXMXMXMXMXMXMXMXMX",
"MXMXMXMXMXMXMXMXMXMXMXMXMXMXMXMXMXMXMXMXMXMXMXMX^.L.).A.~.~.-XM.9Xc.7XA.B.U.[ s 5 5 5 8 MXMXMXMXMXB.0 :._.MXMXMXMXMXMXMXMXMXMXMX",
"MXMXMXMXMXMXMXMXMXMXk %.%.%.%.%.%.e F &.MXMXMXm.5Xb.,Xl.H.V.,Xl.yXX.sXF.c./.p A 5 V 5 a MXMXMXMXMXN.| +._.MXMXMXMXMXMXMXMXMXMXMX",
"MXMXMXMXMXMXMXMXMXg -.8.=.;.;.;.;.Z Z.=Xd.w.Z C ' _ X.} } } } ) X.' X.} ^ N * & & * * & MXMXMXMXMXW...u._.MXMXMXMXMXMXMXMXMXMXMX",
"MXMXMXMXMXMXMXMXe G %.J ,.,.,.p.1XW.*XrX=X..A V ^ ' } ' } ] ' ' ' ' ' ' p y & & * 3 3 3 MXMXMXMXMXV.1X,X3.MXMXMXMXMXMXMXMXMXMXMX",
"MXMXMXMXMXMXMXs *.1.1.Q.zXzXkXzXbXgXa.*X=XQ A Q ) / o.c.i.y.o.) ' o.{ B 5 3 & 3 & & 3 5 MXMXMXMXK ' k.k.l d MXMXMXMXMXMXMXMXMXMX",
"MXMXMXMXMXMXMXyXhXjXjXhX-X^.jXnXbXyXW *.*.G ,.].$XG.L.R.P.I.V.G.G.H.F.% V V 3 3 $ $ O # O MXMXMXl.z.J.b.| d MXMXMXMXMXMXMXMXMXMX",
"MXMXMXMXMXMXMXvXvXnXvXpXt.u.hXnXbXfX6XQ.p.Q.!.$XaXK.4.o.K.4.v.I.,Xz.H.@.H.V p 3 5 N 8 8 6 0 MXMX].,X'.J...MXMXMXMXMXMXMXMXMXMXMX",
"MXMXMXMXMXMXMXzXcXzXzXn.F ! aXnXbXfX6X=X,XrXqX9X{.6.T.o.[.T.T.:._.G.,XaX..p a 8 5 5 5 m 4 p z b c.O.v f a MXMXMXMXMXMXMXMXMXMXMX",
"MXMXMXMXMXMXMXvXnX1XeX~.W w.aXkXvXhXrXeXrXp.1X9X5.v..Xc.k.T.l.6.2.0X9X!.a 4 8 2 2 q 0 0 9 l v v v O.e.E 7 MXMXMXMXMXMXMXMXMXMXMX",
"MXMXMXMXMXMXMXiXzXpXzXxXjXxXkXhXlXfXfXbXxXM.,X5Xv.:.v.v.c.7.4.:.2.)./...B G *.~ E -.-.-.h.h.&.h i c l i . MXMXMXMXMXMXMXMXMXMXMX",
"MXMXMXMXMXx i J.J.b.vXnXnXbXvXkXlXfXgXxXyX/.5X`.v.:.' / ` / 3...9.!.L.^.t.L P &.&.G G I &.P P G e F a t & MXMXMXMXn MXMXMXMXMXMX",
"MXMXMXMXMXz z i i G.hXxXhXhXzXvXkXyX<XrX7X~.!.B.V._ ( 3X$.M ` G.3.T.!.6X,.j K l I I [ R H R I H Z 9 F g 4 MXMXz z z z x MXMXMXMX",
"MXMXMXMXu u r . y o.].d.B A eXbXbXpX*X2X&X).`.).G.( '.N.N.z.` V.P.).7X5XB.K { Y K { [ K K K Y U K S l s : MXz u r r r r MXMXMXMX",
"MXMXMXMXMXu     p =XxXu.6 B eXbXbXyX*XrX$XV.).9XJ.H.[ 0 7 y.b.' R.`.V.J.2.Y a S [ :.[ [ d A [ Y H J j A < MXMXu r   r t MXMXMXMX",
"MXMXMXMXMXz < r l.uXhXA.W ..eXyXvXgX:X2X~.H.{.).b.2.e g e k 6.o.N.5XM.B.4.a A B H Y [ B S d l J H U l H 8 MXMXu t = t MXMXMXMXMX",
"MXMXMXMXMXMX< f  .-X&Xf.*.w.^.aXkXgX<X2X<X8X6X/.9.R.T > : :.v.4.K.8X8X{.n.a S A S T  .A S A H J L Y H H 7 MXMXi . , MXMXMXMXMXMX",
"MXMXMXMXMXMX, t.p.e.s.d.e.W d.1XvXhX<X*X&XqX9XE.I.[.0 o o 9 [.v.K.8XiXqXm.B V a S T  .a s Z S U L I H h 7 MXMXMXMX; MXMXMXMXMXMX",
"MXMXMXMXMXMXMXW.pXxX&Xe.W f d ..1XgX<Xr.Z.0X9XR.i.[ @ @ X X 5.v.U.9XqX0Xp.5 - % p K ! : $ h H J L I H H 7 MXMXMXMX; MXMXMXMXMXMX",
"MXMXMXMXMXMX1 ,. .-Xe.e 7 x y * C $X<X2X-X0X9XU.t...@ + X X 9 6.U.8XqX0Xu.= - % * p ! @ + s H L U Y H h 9 MXMXMXMX; MXMXMXMXMXMX",
"MXMXMXMXMXMXG &.8.8.8.;.%.` OX+X+Xj.+.2X<X0X5XU.>.7 + + X X > 7.U.8XqX9Xy.g a s A Y [ @ + 9 H J U Y H h 6 MXMXMXMX; MXMXMXMXMXMX",
"MXMXMXMXMX4XoX:.g.g.g.g.>.$.OXOX+Xj.$ W &X0X9XE.9.7 @ @ X X > 6.U.8XqX0Xi.s H A H T  .@ + a H L L Y S 6 4 @ @ @ > ; MXMXMXMXMXMX",
"MXMXMXMXMX4X%XQ o...| o.a 3 p N p p @ B p.8X9XR.9.7 # O X X 2 5.K.8XqX0Xi.s S Z S T [ : @ s H J L Y H s : 6 7 8 6 ; MXMXMXMXMXMX",
"MXMXMXMXMX%X%X^.1X1XA.2.6Xn.s > : 7 @ m U 0X5XE.9.7 o O X X $ 6.K.8X0X0Xi.g A Z h [ ! 8 s Z S U L R A > 3 6 6 8 6 @ + MXMXMXMXMX",
"MXMXMXMXMX-XrXzXvXcXeX1XpX1XU w q F G E e.yX9XR.9.7 o o X X D 6.i.8XyX0Xi.6 S h S T  .S A A S L R Y S 6 3 4 8 8 6 > 4 MXMXMXMXMX",
"MXMXMXMXMX1XrXvXvX1X3.#.z.#.U w e W.p.p./.0X9XR.9.0 o @ X 4 /.2...8X=X6Xi.4 S S S T  .Z A Z S U L I A 4 4 6 7 7 6 > 9 4 MXMXMXMX",
"MXMXMXMXMX9.-XgXfX1Xo.N.V.B.F w w A.~.*Xd.8X5XR.9.9 o o $ p./.d m.rXXX%Xi.s A Z S T ! 9 B s S H L Y H h h &.&.&.&.&.F 6 MXMXMXMX",
"MXMXMXMXMX6.K.W H Z.+.E.}.6.e k k F w.w.Q 8X8XK.6.8 X 4 W._.] p /.tX#.C.4.7 s s h T Q @ 6 8 s S h H 9 7 j q.>.>.>.>.j : MXMXMXMX",
"MXMXMXMXMXu...u.r.+.Q t.i...r.u.t.w...W w.8XY.!.T.B F !.qX3.p C !.(.1X8Xp.6 6 # s T T # # O 4 s + > $ 2 6 0 q 6 w 6 6 W MXMXMXMX",
"MXMXMXMXMX:X>X;X>X;X;X;X>X>X>X@X=X>X>X$X@Xi.e p.!.s./.1X/.@.} y.(.e !.9X<.@ $ @ 6 s a 4 5 m D D D D Q a.,.L J U U H S D D MXMXMX",
"MXMXMXMX:X:X:X:X:X:X:X*X>X&X@X@X:X:X:X:X>XS.S.S.s.+.#X#X#X@X@X@XS.a.D.#XS.a.S.S.oXu.<.w.S.@X:X>X:X:X:X:X$X@X@X@X@X@XD.a.+.MXMXMX",
"MXMXMXu.F.D.F.S.S.S.Z.2.t.2.w.S.S.S.Z.S.S.D.D.D.+.C S.#XS.D.D.S.D.D.D.D.D.S.#XD.D.e.:.Y u.S.S.S.F.S.S.S.D.D.#XD.D.#XS.D.u.MXMXMX",
"MXMXMXMXMXMXMXMXMXMXMXMXMXMXMXMXMXMXMXMXMXMXMXMXMXMXMXMXMXMXMXMXMXMXMXMXMXMXMXMXMXMXMXMXMXMXMXMXMXMXMXMXMXMXMXMXMXMXMXMXMXMXMXMX",
"MXMXMXMXMXMXMXMXMXMXMXMXMXMXMXMXMXMXMXMXMXMXMXMXMXMXMXMXMXMXMXMXMXMXMXMXMXMXMXMXMXMXMXMXMXMXMXMXMXMXMXMXMXMXMXMXMXMXMXMXMXMXMXMX",
"MXMXMXMXMXMXMXMXMXMXMXMXMXMXMXMXMXMXMXMXMXMXMXMXMXMXMXMXMXMXMXMXMXMXMXMXMXMXMXMXMXMXMXMXMXMXMXMXMXMXMXMXMXMXMXMXMXMXMXMXMXMXMXMX",
"MXMXMXMXMXMXMXMXMXMXMXMXMXMXMXMXMXMXMXMXMXMXMXMXMXMXMXMXMXMXMXMXMXMXMXMXMXMXMXMXMXMXMXMXMXMXMXMXMXMXMXMXMXMXMXMXMXMXMXMXMXMXMXMX",
"MXMXMXMXMXMXMXMXMXMXMXMXMXMXMXMXMXMXMXMXMXMXMXMXMXMXMXMXMXMXMXMXMXMXMXMXMXMXMXMXMXMXMXMXMXMXMXMXMXMXMXMXMXMXMXMXMXMXMXMXMXMXMXMX",
"MXMXMXMXMXMXMXMXMXMXMXMXMXMXMXMXMXMXMXMXMXMXMXMXMXMXMXMXMXMXMXMXMXMXMXMXMXMXMXMXMXMXMXMXMXMXMXMXMXMXMXMXMXMXMXMXMXMXMXMXMXMXMXMX",
"MXMXMXMXMXMXMXMXMXMXMXMXMXMXMXMXMXMXMXMXMXMXMXMXMXMXMXMXMXMXMXMXMXMXMXMXMXMXMXMXMXMXMXMXMXMXMXMXMXMXMXMXMXMXMXMXMXMXMXMXMXMXMXMX",
"MXMXMXMXMXMXMXMXMXMXMXMXMXMXMXMXMXMXMXMXMXMXMXMXMXMXMXMXMXMXMXMXMXMXMXMXMXMXMXMXMXMXMXMXMXMXMXMXMXMXMXMXMXMXMXMXMXMXMXMXMXMXMXMX"
};
