/* XPM */
static char *result[] = {
/* columns rows colors chars-per-pixel */
"64 64 238 2 ",
"   c #030202",
".  c #0B0203",
"X  c #0B0B0C",
"o  c #070808",
"O  c #1A0C02",
"+  c #170507",
"@  c #16130F",
"#  c #0B0E14",
"$  c #0E1117",
"%  c #111212",
"&  c #14151A",
"*  c #1A181C",
"=  c #160D13",
"-  c #270506",
";  c #3C020E",
":  c #33010B",
">  c #261408",
",  c #241717",
"<  c #34100F",
"1  c #24221C",
"2  c #171A25",
"3  c #0E1520",
"4  c #251B24",
"5  c #381523",
"6  c #1D2431",
"7  c #232324",
"8  c #282928",
"9  c #36342A",
"0  c #292A33",
"q  c #3B3D3C",
"w  c #353737",
"e  c #332E2D",
"r  c #1E211F",
"t  c #490509",
"y  c #451D04",
"u  c #4D0213",
"i  c #460514",
"p  c #580412",
"a  c #560C06",
"s  c #6B040C",
"d  c #74020D",
"f  c #7A040C",
"g  c #630413",
"h  c #6C0614",
"j  c #750513",
"k  c #701218",
"l  c #4D2101",
"z  c #49260F",
"x  c #552402",
"c  c #4B2A13",
"v  c #66350D",
"b  c #68370F",
"n  c #793202",
"m  c #6A310E",
"M  c #4F1524",
"N  c #4F3131",
"B  c #712B33",
"V  c #3F403E",
"C  c #564439",
"Z  c #724F31",
"A  c #6C421F",
"S  c #222C45",
"D  c #2A3247",
"F  c #3C3E43",
"G  c #363D4C",
"H  c #363952",
"J  c #2E3A55",
"K  c #5A3246",
"L  c #3E4144",
"P  c #3A4359",
"I  c #3D4765",
"U  c #494D4D",
"Y  c #444749",
"T  c #55494C",
"R  c #565745",
"E  c #494C53",
"W  c #565858",
"Q  c #4F5051",
"!  c #6D534E",
"~  c #6C6D4E",
"^  c #66674B",
"/  c #6D6E51",
"(  c #666758",
")  c #6F7053",
"_  c #717152",
"`  c #7E7F5D",
"'  c #706F50",
"]  c #444D69",
"[  c #50586F",
"{  c #56617D",
"}  c #5B606B",
"|  c #666868",
" . c #6E6F76",
".. c #636975",
"X. c #6B717A",
"o. c #757676",
"O. c #776D70",
"+. c #84040E",
"@. c #910912",
"#. c #AB040D",
"$. c #BA030B",
"%. c #B00E15",
"&. c #883A05",
"*. c #893104",
"=. c #B71D26",
"-. c #8A2C35",
";. c #B32A34",
":. c #CB040B",
">. c #C3040C",
",. c #CA0B13",
"<. c #C4131C",
"1. c #CC1317",
"2. c #D11319",
"3. c #CB080B",
"4. c #C91A21",
"5. c #D01C22",
"6. c #C8252B",
"7. c #CF2D30",
"8. c #924817",
"9. c #8E5129",
"0. c #A35B28",
"q. c #A76535",
"w. c #9F5B2A",
"e. c #B73944",
"r. c #C33740",
"t. c #8F4C56",
"y. c #AA525F",
"u. c #B54651",
"i. c #986746",
"p. c #886657",
"a. c #AA714A",
"s. c #905A68",
"d. c #A75B68",
"f. c #B95A65",
"g. c #936D65",
"h. c #A5606D",
"j. c #AC7271",
"k. c #C85456",
"l. c #D85453",
"z. c #CD4449",
"x. c #D17871",
"c. c #DB615A",
"v. c #83825F",
"b. c #BA8356",
"n. c #8A8B67",
"m. c #9B9B6E",
"M. c #96976C",
"N. c #9D9D72",
"B. c #989974",
"V. c #8A8A75",
"C. c #B7957A",
"Z. c #A09F74",
"A. c #9EA177",
"S. c #A1A275",
"D. c #A3A279",
"F. c #C79577",
"G. c #CAA27F",
"H. c #5E6983",
"J. c #666D83",
"K. c #6A738B",
"L. c #6A7587",
"P. c #777B86",
"I. c #747B93",
"U. c #987B89",
"Y. c #8A7684",
"T. c #AF7884",
"R. c #7D8595",
"E. c #7AA0B9",
"W. c #868688",
"Q. c #97978C",
"!. c #8A8D99",
"~. c #848A9A",
"^. c #928796",
"/. c #928A99",
"(. c #8D929C",
"). c #979595",
"_. c #AE8B8B",
"`. c #A6979B",
"'. c #B5978E",
"]. c #898EA1",
"[. c #8D96A6",
"{. c #9597A6",
"}. c #A59CA6",
"|. c #9DA2AE",
" X c #86AABF",
".X c #91A5B7",
"XX c #93A7B9",
"oX c #AAADAC",
"OX c #A8AAB8",
"+X c #ADB3B8",
"@X c #B4B9BA",
"#X c #B1B5BA",
"$X c #B6B2AA",
"%X c #CD928D",
"&X c #EC9A8B",
"*X c #D3B796",
"=X c #CFA88D",
"-X c #C9B3AC",
";X c #F2B5A4",
":X c #E1A7A0",
">X c #BDC0B8",
",X c #DBC4A6",
"<X c #C3C6BB",
"1X c #DFD0B5",
"2X c #EDC6BA",
"3X c #EAC8B8",
"4X c #E8CFB7",
"5X c #86A9C1",
"6X c #89AAC1",
"7X c #9DB7C8",
"8X c #B7BAC4",
"9X c #A3B9C8",
"0X c #BDC1CA",
"qX c #C7CACA",
"wX c #D9CDC4",
"eX c #CDD2C7",
"rX c #D7D6CB",
"tX c #D6D9D4",
"yX c #CBCFD3",
"uX c #E7DBD1",
"iX c #E1DCCD",
"pX c #DDE2DA",
"aX c #E0E5DD",
"sX c #E5EBDD",
"dX c #E7E8D7",
"fX c #F1EED6",
"gX c #ECF1DE",
"hX c #F4F1DC",
"jX c #E9E2CC",
"kX c #E4E9E4",
"lX c #EDF2E3",
"zX c #F1F6E4",
"xX c #F6FAE6",
"cX c #F7FDE8",
"vX c #F9FFEA",
"bX c #F2EEEE",
"nX c #DDDEE2",
"mX c None",
/* pixels */
"mXmXmXmXmXmXmXmXmXmXmXmXmXmXmXmXmXmXmXmXmXmXmXmXmXmXmXmXmXmXmXmXmXmXmXmXmXmXmXmXmXmXmXmXmXmXmXmXmXmXmXmXmXmXmXmXmXmXmXmXmXmXmXmX",
"mXmXmXmXmXmXmXmXmXmXmXmXmXmXmXmXmXmXmXmXmXmXmXmXmXmXmXmXmXmXmXmXmXmXmXmXmXmXmXmXmXmXmXmXmXmXmXmXmXmXmXmXmXmXmXmXmXmXmXmXmXmXmXmX",
"mXmXmXmXmXmXmXmXmXmXmXmXmXmXmXmXmXmXmXmXmXmXmXmXmXmXmXmXmXmXmXmXmXmXmXmXmXmXmXmXmXmXmXmXmXmXmXmXmXmXmXmXmXmXmXmXmXmXmXmXmXmXmXmX",
"mXmXmXmXmXmXmXmXmXmXmXmXmXmXmXmXmXmXmXmXmXmXmXmXmXmXmXmXmXmXmXmXmXmXmXmXmXmXmXmXmXmXmXmXmXmXmXmXmXmXmXmXmXmXmXmXmXmXmXmXmXmXmXmX",
"mXmXmXmXmXmXmXmXmXmXmXmXmXmXmXmXmXmXU | W mXmXmXmXmXmXmXmXmXmXmXmXmXmXmXmXmXmXmXmXmXmXmXmXmXmXmXmXmXmXmXmXmXmXmXmXmXmXmXmXmXmXmX",
"mXmXmXmXmXmXmXmXmXmXmXmXmXmXmXmXmXV oXlX+Xq mXmXmXmXmXmXmXmXmXmXmXmXmXmXmXmXmXmXmXmXmXmXmXmXmXmXmXmXmXmXmXmXmXmXmXmXmXmXmXmXmXmX",
"mXmXmXmXmXmXmXmXmXmXmXmXmXmXmXmXo Q.0X X7X+XX   mXmXmXmXmXmXmXmXmXmXmXmXmXmXmXmXmXmXmXmXmXmXmXmXmXmXmXmXmXmXmXmXmXmXmXmXmXmXmXmX",
"mXmXmXmXmXmXmXmXmXmXmXmXmXmXmXmX  % X.7X0X|.% mXmXmXmXmXmXmXmXmXmXmXmXmXmXmXmXmXmXmXmXmXmXmXmXmXmXmXmXmXmXmXmXmXmXmXmXmXmXmXmXmX",
"mXmXmXmXmXmXmXmXmXmXmXmXmXmXmXmXmX   ..X6X@X% mXmXmXmXmXmXmXmXmXmXmXmXmXmXmXmXmXmXmXmXmXmXmXmXmXmXmXmXmXmXmXmXmXmXmXmXmXmXmXmXmX",
"mXmXmXmXmXmXmXmXmXmXmXmXmXmXmXmXmX   ..X6X@X% mXmXmXmXmXmXmXmXmXmXmXmXmXmXmXmXmXmXmXmXmXmXmXmXmXmXmXmXmXmXmXmXmXmXmXmXmXmXmXmXmX",
"mXmXmXmXmXmXmXmXmXmXmXmXmXmXmXmXmX   ..X6X@X% mXmXmXmXmXmX- : < 8 8 8 1 mXmXmXmXmXmXmXmXmXmXmXmXmXmXmXmXmXmXmXmXmXmXmXmXmXmXmXmX",
"mXmXmXmXmXmXmXmXmXmXmXmXmXmXmXmXmX   ..X5X@X% mXmXmXmXmXt =.=.%XpXdXaXQ.8 mXmXmXmXmXmXmXmXmXmXmXmXmXmXmXmXmXmXmXmXmXmXmXmXmXmXmX",
"mXmXmXmXmXmXmXmXmXmXmXmXmXmXmXmXmX   ..X5X@X% mXmXmXX a ;.}.`.wXhXcXvXzX>X@ mXmXmXmXmXmXmXmXmXmXmXmXmXmXmXmXmXmXmXmXmXmXmXmXmXmX",
"mXmXmXmXmXmXmXmXmXmXmXmXmXmXmXmXmX   ..X5X+X% mXmX. f $.7.XXu.6.c.hXvXbXqX( mXmXmXmXmXmXmXmXmXmXmXmXmXmXmXmXmXmXmXmXmXmXmXmXmXmX",
"mXmXmXmXmXmXmXmXmXmXmXmXmXmXmXmXmX  X..XE.+X% mXmX; @.=.e.T.4.<.k.uXkXtXqXpXq mXmXmXmXmXmXmXmXmXmXmXmXmXmXmXmXmXmXmXmXmXmXmXmXmX",
"mXmXmXmXmXmXmXmXmXmXmXmXmXmXmXmXmX   ..X5X#X% mXmXu F J.T.4.,.f.OX+X+XqXkX+Xe mXmXmXmXmXmXmXmXmXmXmXmXmXmXmXmXmXmXmXmXmXmXmXmXmX",
"mXmXmXmXmXmXmXmXmXmXmXmXmXmXmXmXmX   ..X5X@X% mXu u M N t.T.s.T E W q U Q Y %   o o     o o   o o o     mXmXmXmXmXmXmXmXmXmXmXmX",
"mXmXmXmXmXmXmXmXmXmXmXmXmXmXmXmXmX   ..X5X@X% mXu u : 5 M P L W 9 > v v v v b b A Q.p.v b b b m v v Z W.8 mXmXmXmXmXmXmXmXmXmXmX",
"mXmXmXmXmXmXmXmXmXmXmXmXmXmXmXmXmX   ..X5X@X% mXmXu + 2 S e g.&X! > < c z z c z b >XC.&.c z z z z z ! tX8 mXmXmXmXmXmXmXmXmXmXmX",
"mXmXmXmXmXmXmXmXmXmXmXmXmXmXmXmXmX   ..X6X#X% mXmXu + 2 S ! ;Xj.Q.W.* W.!.!.!.{.R.& Q }.!.~.!.!.!.W.|.dX8 mXmXmXmXmXmXmXmXmXmXmX",
"mXmXmXmXmXmXmXmXmXmXmXmXmXmXmXmXmX   ..X6X@X% mXmX- . # * p.;XT C q.Z rXaXaXnX-X'. .U.:XuXnXuXkXkX=Xi.a.> mXmXmXmXmXmXmXmXmXmXmX",
"mXmXmXmXmXmXmXmXmXmXmXmXmXmXmXmXmX   ..X6X@X% mXmX8 o X * N F.N l *.9.fXvXcXvXk.%.j.e.4.uXvXvXvXcX*Xw.&.O mXmXmXmXmXmXmXmXmXmXmX",
"mXmXmXmXmXmXmXmXmXmXmXmXmXmXmXmXmX   ..X X+XX X q <X| Q ..& M = x 9.Q.zXcXcXzXy.h =.4.<.;XvXvXvXcXzX,X&.O mXmXmXmXmXmXmXmXmXmXmX",
"mXmXmXmXmXmXmXmXmXmXmXmXmXmXmXmXmX  ...XE.[.7 W.dXaXdXoX{ { P & l b.vXcXvXvXzXl.%.U.u.2.wXvXvXvXcXcX1X&.O mXmXmXmXmXmXmXmXmXmXmX",
"mXmXmXmXmXmXmXmXmXmXmXmXmXmXmXmXmX   .+X6X..6 {.pXyXtXpXzXgX| % l q.*XxXvXvXvXl.<.^.y.,.x.;XbXvXvXvX,X8.O mXmXmXmXmXmXmXmXmXmXmX",
"mXmXmXmXmXmXmXmXmXmXmXmXmXmXmXmX  & F W.'.4 X P !.tXyX>X<XgX0XY x &.9.iXdX2X;Xl.;./.y.:.<.z.2XuXgXjX=X&.O mXmXmXmXmXmXmXmXmXmXmX",
"mXmXmXmXmXmXmXmXmXmXmXmXmXmXmXmXX J.q p e.^.8 & * [.lXQ.Y {.|.F x *.B }.}.6.4.h.{.[.d.4.U.u.4.T.OXf.=.&.O mXmXmXmXmXmXmXmXmXmXmX",
"mXmXmXmXmXmXmXmXmXmXmXmXmXmXmXmX. N g.! -.:XuXoXP |.>XeX$X .e o x n g y.{.U.U./.[.[.^.U.{.U.U.{.T.1.3.&.O mXmXmXmXmXmXmXmXmXmXmX",
"mXmXmXmXmXmXmXmXmXmXmXmXmXmXmXmX  ; Y.s.B ;XbX8XI [.W W.vXhXQ o y *.g ;.s.h.h.h.h.[.U.h.h.d.h.h.e.$.%.*.O mXmXmXmXmXmXmXmXmXmXmX",
"mXmXmXmXmXmXmXmXmXmXmXmXmXmXmXmX     ...e =XP.~.I { @XlXcXcX+Xq l n p g j >.:.:.4.^.y.:.>.:.>.:.#.p k &.O mXmXmXmXmXmXmXmXmXmXmX",
"mXmXmXmXmXmXmXmXmXmXmXmXmXmXmXmXmX  X.| - B P P 3 2 (.tXcXxX0XL l q.$X-X'.+.j #.<.^.d.>.+.d h d B -XC.&.O mXmXmXmXmXmXmXmXmXmXmX",
"mXmXmXmXmXmXmXmXmXmXmXmXmXmXmXmXmX   .(.T i 2 = - 2 R.8XyXcX0XL l i.8XvXbX'._.;.<.^.y.,.j._._._.=XcX1X&.O mXmXmXmXmXmXmXmXmXmXmX",
"mXmXmXmXmXmXmXmXmXmXmXmXmXmXmXmXmXmXQ ).oX: - : i H ~.OX#XyX+XL l i.8XcXvXvXvXl.<.U.d.2.2XvXvXvXvXvX4X&.O mXmXmXmXmXmXmXmXmXmXmX",
"mXmXmXmXmXmXmXmXmXmXmXmXmXmXmXmXmXmXmXW o.+ i u i J { K.K.K.H.0 T j.a.hXvXvXxXl.<.].y.<.2XvXvXvXvX*Xb.'., mXmXmXmXmXmXmXmXmXmXmX",
"mXmXmXmXmXmXmXmXmXmXmXmXmXmXmXmXmXmXmXs t u u u u S D P } } P $ T p.0.fXcXcXbXl.<.U.y.2.2XvXbXvXcXG.0.=Xe mXmXmXmXmXmXmXmXmXmXmX",
"mXmXmXmXmXmXmXmXmXmXmXmXmXmXmXmXmXmX+.+.p u u i + . $ q | | c > - a 0.fXcXcXxXl.<./.y.2.2XvXvXvXcXG.n v mXmXmXmXmXmXmXmXmXmXmXmX",
"mXmXmXmXmXmXmXmXmXmXmXmXmXmXmXmXmXa +.s u u u ; : 4 J K.qXgXZ x > < 0.hXvXcXxXl.<./.y.2.2XvXcXcXvX'.y . mXmXmXmXmXmXmXmXmXmXmXmX",
"mXmXmXmXmXmXmXmXmXmXmXmXmXmXmX, 1 %.:.d u u u u i [ K.I.!.<XQ c > > 9.1XjXcXxXl.,.U.e.<.2XvXcXvXhX`   mXmXmXmXmXmXmXmXmXmXmXmXmX",
"mXmXmXmXmXmXmXmXmXmXmXmXmX  O j.&X5.>.g u u u : @ {.pXlXqXW | } Y 2 > 8.q.fXxXk.#.4.$.%.3XvXvXvX=Xv   mXmXmXmXmXmXmXmXmXmXmXmXmX",
"mXmXmXmXmXmXmXmXmXmXmXmXmXN C c.c.2.$.g u i : - 0 qXvXlXpXsXV.W ..H + x 8.eXgXh.k @.@.B wXlXrX*Xi.<   mXmXmXmXmXmXmXmXmXmXmXmXmX",
"mXmXmXmXmXmXmXmXmXmXmXmX@ j.&X7.:.>.+.u u t . # ] tXvXtXqXlXzX .w L.& - v {.rXuX-Xp s.iXjXwX`.8.l   mXmXmXmXmXmXmXmXmXmXmXmXmXmX",
"mXmXmXmXmXmXmXmX  mX  N F.z.5.3.>.d u u u u . $ ] tXvXzXpX0XsXdX<X{.I 2 > 9.0.*XzX-X1XhXa.0.8.> X mXmXmXmXmXmXmXmXmXmXmXmXmXmXmX",
"mXmXmXmXmXmXmXmX  # W g.c.2.:.:.>.g u u u i   7 (.sXcXcXlXyXtXlXlX9X{ D * l &.q.=XhX4XC.8.n l . mXmXmXmXmXmXmXmXmXmXmXmXmXmXmXmX",
"mXmXmXmXmXmXmXmX  > -X&X:.:.:.:.$.p u u u ; . Y zXvXcXcXcXzXqXqXrXOXH.[ H # m *.8.V.i.8.n >   mXmXmXmXmXmXmXmXmXmXmXmXmXmXmXmXmX",
"mXmXmXmXmXmXmXmX- #.6.5.:.:.:.f g u u u ; . # L.zXvXvXcXcXcXzXo.F {...K.].P * x n O < 8.O   mXmXmXmXmXmXmXmXmXmXmXmXmXmXmXmXmXmX",
"mXmXmXmXmXmXmXmXmXmX:.:.:.d t u u u u : +   & L.lXvXcXcXcXlXV.q w Y [ I.{.I D 2 , l l < mXmXmXmXmXmXmXmXmXmXmXmXmXmXmXmXmXmXmXmX",
"mXmXmXmXmXmXmXmXmXmX#.#.>.:   p d u i -   mX& J.0XzXcXvXcXzXq 7 F   P I.|.{ [ I.o.@ O mXmXmXmXmXmXmXmXmXmXmXmXmXmXmXmXmXmXmXmXmX",
"mXmXmXmXmXmXmXmXmXmX  t @.- . f g j t     mX$ ] [.qXyXeXeX>Xq 8 L % P J.[.[.].].R.@ mXmXmXmXmXmXmXmXmXmXmXmXmXmXmXmXmXmXmXmXmXmX",
"mXmXmXmXmXmXmXmXmXmXmXmX+ mXmXmXmXmXmXmXmXmX  2 I ] ] ] P % w U U L H I I I I D X mXmXmXmXmXmXmXmXmXmXmXmXmXmXmXmXmXmXmXmXmXmXmX",
"mXmXmXmXmXmXmXmXmXmXmXmXmXmXmXmXmXmXmXmXmXmXX % 2 2 5 4 $ o w U E E 7 , 5 2 * 2 % mXmXmXmXmXmXmXmXmXmXmXmXmXmXmXmXmXmXmXmXmXmXmX",
"mXmXmXmXmXmXmXmXmXmXmXmXmXmXmXmXmXmXmXmXmX* o.L.S S =   % q U U U Y %   X 6 S L.$Xr mXmXmXmXmXmXmXmXmXmXmXmXmXmXmXmXmXmXmXmXmXmX",
"mXmXmXmXmXmXmXmXmXmXmXmXmXmXmXmXmXmXmXmXw {.L.H.{ ~.-.t & U U U U U % + 5 I I H.R.oXQ   mXmXmXmXmXmXmXmXmXmXmXmXmXmXmXmXmXmXmXmX",
"mXmXmXmXmXmXmXmXmXmXmXmXmXmXmXmXmXmX  F W.0X0X8X{.}.;.f X 7 w L w r o + i ] R.OXyXbXyXY.o mXmXmXmXmXmXmXmXmXmXmXmXmXmXmXmXmXmXmX",
"mXmXmXmXmXmXmXmXmXmXmXmXmXmXS.8       0 K.OXkXnX}.K %.d         o       + M Y.8X8X9XnXoX  9 D.A.D.D.A.mXmXmXmXmXmXmXmXmXmXmXmXmX",
"mXmXmXmXmXmXmXmXmXB.mXmXA.) ^ 9 r 9 % X 2 0 V q e - : +                   + 7 w 0 e w w 9 C m.m.n._ M.` mXmXmXmXmXmXmXmXmXmXmXmX",
"mXmXmXmXmXmXmXmXmXmX) ` M.1 o ^ n.m.` / / ^ ~ ~ / ' / ( ~ _ _ _ ' ' ' ' _ ) ~ ~ ^ ~ ) _ M.m.m.m.v.C r 9 / mXmXmXmXmXmXmXmXmXmXmX",
"mXmXmXmXmXmXmXmXmXmXD.A.M.1   _ S.N.S.S.v.9 M.S.S.S.D.) R m.m.m.m.m.m.m.m.S.N.) C M.A.A.N.N.N.N.S./   1 M.mXmXmXmXmXmXmXmXmXmXmX",
"mXmXmXmXmXmXmXmXmXmXmXmXmXmXmXmXmXmXmXmXmXmXmXmXmXmXmXmXn.mXN.m.m.m.m.m.m.mXB.n.n.B.mXmXmXmXmXmXmXmXmXmXmXmXmXmXmXmXmXmXmXmXmXmX",
"mXmXmXmXmXmXmXmXmXmXmXmXmXmXmXmXmXmXmXmXmXmXmXmXmXmXmXmXmXmXmXmXmXmXmXmXmXmXmXmXmXmXmXmXmXmXmXmXmXmXmXmXmXmXmXmXmXmXmXmXmXmXmXmX",
"mXmXmXmXmXmXmXmXmXmXmXmXmXmXmXmXmXmXmXmXmXmXmXmXmXmXmXmXmXmXmXmXmXmXmXmXmXmXmXmXmXmXmXmXmXmXmXmXmXmXmXmXmXmXmXmXmXmXmXmXmXmXmXmX",
"mXmXmXmXmXmXmXmXmXmXmXmXmXmXmXmXmXmXmXmXmXmXmXmXmXmXmXmXmXmXmXmXmXmXmXmXmXmXmXmXmXmXmXmXmXmXmXmXmXmXmXmXmXmXmXmXmXmXmXmXmXmXmXmX",
"mXmXmXmXmXmXmXmXmXmXmXmXmXmXmXmXmXmXmXmXmXmXmXmXmXmXmXmXmXmXmXmXmXmXmXmXmXmXmXmXmXmXmXmXmXmXmXmXmXmXmXmXmXmXmXmXmXmXmXmXmXmXmXmX",
"mXmXmXmXmXmXmXmXmXmXmXmXmXmXmXmXmXmXmXmXmXmXmXmXmXmXmXmXmXmXmXmXmXmXmXmXmXmXmXmXmXmXmXmXmXmXmXmXmXmXmXmXmXmXmXmXmXmXmXmXmXmXmXmX",
"mXmXmXmXmXmXmXmXmXmXmXmXmXmXmXmXmXmXmXmXmXmXmXmXmXmXmXmXmXmXmXmXmXmXmXmXmXmXmXmXmXmXmXmXmXmXmXmXmXmXmXmXmXmXmXmXmXmXmXmXmXmXmXmX"
};
