/* XPM */
static char *result[] = {
/* columns rows colors chars-per-pixel */
"64 64 190 2 ",
"   c #54464E",
".  c #5D5A5D",
"X  c #60595F",
"o  c #705950",
"O  c #735F58",
"+  c #5F6450",
"@  c #706857",
"#  c #78665B",
"$  c #5E5E62",
"%  c #6D6B66",
"&  c #777B71",
"*  c #747C7B",
"=  c #816F49",
"-  c #977C58",
";  c #A16743",
":  c #A56A45",
">  c #AE7446",
",  c #AD724E",
"<  c #A3704D",
"1  c #B2744B",
"2  c #AC7B55",
"3  c #B67752",
"4  c #B47C5A",
"5  c #8C7C6D",
"6  c #85786C",
"7  c #937F69",
"8  c #847770",
"9  c #8C7D72",
"0  c #A17F60",
"q  c #76986B",
"w  c #9F815F",
"e  c #AD8055",
"r  c #AB845D",
"t  c #AD8D5B",
"y  c #BD8D52",
"u  c #B78259",
"i  c #BB835D",
"p  c #B38C5B",
"a  c #B98E5D",
"s  c #BE8553",
"d  c #AF985F",
"f  c #BA9456",
"g  c #BE9B55",
"h  c #B5965B",
"j  c #BB945C",
"k  c #BD9A5B",
"l  c #BFA15C",
"z  c #8E8F63",
"x  c #9E8A6D",
"c  c #988369",
"v  c #849E68",
"b  c #899568",
"n  c #90966A",
"m  c #828779",
"M  c #8E8474",
"N  c #938778",
"B  c #978D7F",
"V  c #978772",
"C  c #9C9274",
"Z  c #9B957D",
"A  c #A28761",
"S  c #AA8667",
"D  c #AE8F62",
"F  c #A18A6E",
"G  c #AD8E6F",
"H  c #A58B62",
"J  c #B78061",
"K  c #B38D61",
"L  c #BB8D63",
"P  c #BE8F69",
"I  c #BB8666",
"U  c #AA956B",
"Y  c #B49464",
"T  c #BC9363",
"R  c #B39A63",
"E  c #BD9B64",
"W  c #BE936A",
"Q  c #B69F6D",
"!  c #BE9B6A",
"~  c #A89672",
"^  c #A59E77",
"/  c #AF9F70",
"(  c #BB9C71",
")  c #9FA067",
"_  c #A2A56F",
"`  c #BFA263",
"'  c #BCA36B",
"]  c #AEA677",
"[  c #B0AA70",
"{  c #BFA970",
"}  c #BCA072",
"|  c #BCB877",
" . c #BBB27D",
".. c #C58E57",
"X. c #C28B5C",
"o. c #C19656",
"O. c #C29E56",
"+. c #C89F56",
"@. c #C2945D",
"#. c #C29D5C",
"$. c #C4A556",
"%. c #C8AE57",
"&. c #C4A35C",
"*. c #C8A55D",
"=. c #C4AA5C",
"-. c #CAAC5B",
";. c #D2AB5F",
":. c #C7B15A",
">. c #CEB35D",
",. c #CCB95E",
"<. c #D0B55F",
"1. c #D4B85F",
"2. c #C48D61",
"3. c #C29563",
"4. c #C39C63",
"5. c #C99E62",
"6. c #C1946C",
"7. c #C39C6B",
"8. c #C89D6A",
"9. c #C59C72",
"0. c #C99E75",
"q. c #C5A463",
"w. c #C9A564",
"e. c #C5AA63",
"r. c #CAAB64",
"t. c #C4A46B",
"y. c #CAA56B",
"u. c #C6AA6A",
"i. c #CBAC6B",
"p. c #D3AC63",
"a. c #D0AE6B",
"s. c #C7B362",
"d. c #CCB264",
"f. c #CCBA64",
"g. c #CCB36C",
"h. c #CEB96D",
"j. c #D1B663",
"k. c #D4BB64",
"l. c #D2B46D",
"z. c #D5BB6C",
"x. c #D9BD6C",
"c. c #C5A273",
"v. c #CAA575",
"b. c #C6AA72",
"n. c #CDAC73",
"m. c #CAA679",
"M. c #C1AE7D",
"N. c #CDAC7B",
"B. c #D0A670",
"V. c #D1AD73",
"C. c #D0AD79",
"Z. c #D9AF78",
"A. c #CEB372",
"S. c #CFB971",
"D. c #CFB17B",
"F. c #CFBA7D",
"G. c #D3B574",
"H. c #D4BA74",
"J. c #D8BC74",
"K. c #D3B57A",
"L. c #D5BA7A",
"P. c #D9BD7A",
"I. c #DAB677",
"U. c #D2C065",
"Y. c #DAC266",
"T. c #D7CA63",
"R. c #DACE67",
"E. c #D4C26B",
"W. c #DAC36C",
"Q. c #D6C273",
"!. c #DAC374",
"~. c #DCCA73",
"^. c #D6C179",
"/. c #DAC37B",
"(. c #DCC879",
"). c #DFD272",
"_. c #E0D572",
"`. c #889285",
"'. c #939587",
"]. c #B09D81",
"[. c #95A095",
"{. c #B1AA89",
"}. c #B9BE9E",
"|. c #C1B181",
" X c #D3B682",
".X c #D6BC83",
"XX c #D8BE82",
"oX c #C8C38D",
"OX c #D6C382",
"+X c #D9C381",
/* pixels */
"{ }.Z h d.G.l.J.x.K.r.l.l.G.Q.G.r.r.H.l.J.H.G.q.H.l.I.z.G.w.g.l.G.J.H.g.r.H.g.J.x.G.e.l.z.G.E.G.g.i.l.G.P.x.G.q.G.l.K.x.I.e.g.l.",
"^ * $ c a.I.H.,.q.i.q.G.I.k.&.i.y.a.K.Q.-.e.i.w.J.H.k.&.A.q.G.H.Y.-.u.r.i.I.H.>.q.i.q.G.I.z.&.i.e.a.I.Q.%.w.i.w.H.G.f.&.A.q.G.I.",
"] O # x P.j.d.T c.A.K.z.k.l 6.A.K.H.k.s.L b.G.K.g.h.k 7.g.K.H.k.e.T n.G.K.k.f.T 0.S.K.z.k.l W A.G.H.k.s.W b.G.K.k.k.k 9.A.K.z.j.",
"p.r.l.i.k.k n.l.(.J.Y.&.b.n.!.!.W.>.E b.l.(.x.x.z Q a./.P.Y.=.t.n.H.!.H.k.k m.l.(.J.U.&.t.n./.!.x.>.E v.G.~.H.k.#.m.g.!.Q.Y.*.7.",
"Y.&.A.H.&.n.~.-.q.P.w.q.^.U.&.G.l.#.I.^. .u.H.q.*.Q.<.&.G.i.5.G.Y.&.i.H.#.i.~.-.q.H.e.y.^.k.l G.G.#.G.~.&.w.n h i.!.>.&.H.i.&.I.",
"4.9.u.G.^.e.r.! t.g.P.g.e.4.c.r.K.S.-.' 9 R G.P.r.r.7.t.g.P.h.e.e.7.u.G./.e.r.7.y.g.L.d.r.7.c.r.L.H.=.q.7.t.7.H.s.r.7.c.i.P.h.*.",
"D.^.i.G.g.i.a.XXl.n.h.i.r. XH.i.G.g.i.a.K.l.G.A.i.i.XXH.n.S.i.r.K.XXi.G.g.i.a..Xl.n.A.i.i.L.H.i.G.g.r.G.+Xg.I.S.i.i..XH.n.A.i.r.",
"H.k.G.r.w.J.G.z.j.G.#.H.G.z.j.L.w.a.H.H.k.l.g.q.J.G.z.j.G.&.l.I.l.k.H.i.w.H.G.P.~.~.H.H.G.z.j.L.e.i.H.G.k.l.g.#.J.G.z.j.G.&.l.L.",
",.a 7.A.G.x.E.g W h.z.J.P.:.a t.i.G.J.U.f ! i.n.x.Q.&.P r.n.I.Q.f.a q.n.K.H.+Xk.f j @.8.!.:.K y.n.G.H.U.f ! i.C.x.Q.&.L u.n.H.x.",
"t.C.(.H.z.&.u.m.~.a.y 3 w.t.K.^.J.z.&.y.b./.W.J.*.e.7.P.!.J.j.q.' C.(.L.~.~.h , 2.i.G.3.e.7.K.(.P.k.&.y.v.(.Q.P.*.e.8..XQ.!.j.#.",
"Y.s.G.H.&.y.OX_.y ; 2 y.K.Y.d.I.l.+.m./.j.l.H.-.5.L.k.f.K.z.o.C.W.d.N.H.k.W X.p.h.n *.5.L.Y.s.G.z.O.m.!.<.l.H.-.4.XXk.f.I.j.#.N.",
"-.T r.G.g.r.H.3.1 9.XXg.f.*.Y h.G.g.d.f.a t.H.A.s.z.#.T h.A.g.f.r.T 8.0.8.5.1.T E w.b.d.l.=.T g.G.g.d.d.T e.z.n.i.k.#.E h.G.g.i.",
"m.L.y.I.H.q.i.9.n.n.H.i.w.N.L.y.P.H.q.i. Xi.n.^.u.w. XG.y.P.g.w.n.L.y.G.Q.u.i.K.g.n./.i.q.N.K.y.I.S.q.i..Xi.V.^.e.i.K.G.y.P.g.q.",
"G.Q.H.g.w.J.g./.W.G.*.G.l.K.x.H.w.i.l.G.J.H.G.w.G.l.H.z.L.q.g.l.G.J.H.g.q.G.l.P.z.G.*.G.l.G.W.H.r.i.G.G.J.E.A.*.G.l.K.Q.Q.l.G.l.",
"U.g t.y.i.I.Q.%.T i.w.G.P.U.g y.y.l.P.E.$.4.r.t.V.!.,.j i.t.G.J.E.O.t.i.i.I.Q.%.E i.y.z.P.f.g u.y.a.H.E.$.E i.i.I. X~.k.r.w.g.L.",
"` 9.S.H.L.<.s.W D.H.L.z.s.E 0.S.H.H.>.e.W L.E 5 9 ' k m.H.P.l.<.` 7.S.L.P.<.s.W n.H.L.l.d.` 0.H.L.H.j.e.6.D.K. X~.S.p 1 X.8.3.w.",
"G.z.!.J.>.T K.z.!.H.k.#.m.l.E.P.x.-.7.A.z.^.q.2 F ' l.Q.J.x.&.c.G.z.J.J.>.E D.z.Q.H.k.#.n.l.W.P.x.-.7.G.z.XXP.R.H.4 s J.J.W.q.9.",
"U.k i.H.5.g.W.&.` H.w.r.Q.k.k S.l.q.G.Y.g y.P.q.q.H.<.j H.i.w.H.U.k r.H.q.l.W.&.4.^.w.i.^.d.k g.l.q.A.Y.#.7.v.&.L ;.r.l H.i.w.H.",
"8.m.u.G.^.q.w.c.i.i./.g.*.7.m.w.L.H.e.e.c.u.a./.r.e.t.v.r.P.A.=.t.n.u.G./.&.r.9.i.i./.r.=.8.m.i.P.H.q.e.m.w.m.P.r.r.8.v.i./.h.*.",
"K.!.g.A.r.l.l.XXz.C.g.i.l.L.!.n.g.i.a.G.+Xl.K.r.a.g..XH.G.g.i.g.K.P.l.D.r.g.g.XXz.D.g.i.l.F.z.V.g.i.i.G.P.l.G.g.n.l.XXH.n.g.i.i.",
"z.>.g.r.w.L.L.f.w.A.q.G.G.E.>.A.q.i.H.H.j.i.i.q.I.G.k.-.G.#.l.L.H.:.g.i.w.J.I.1.r.A.&.I.G.v = y.w.i.L.H.<.r.i.q.H.G.z.-.A.#.G.I.",
":.L b.D.K.!.Q.f 7.g.C.x.E.l P i.n.I.x.f.a t.G.K.x.E.l W A.C.H.x.,.L c.A.G.x.h.k 6.g.K.z.d.b @ Q K.H.x.f.a c.g.K.x.E.g W g.K.H.j.",
"y.G.OX^.~.E.b.i.(.P.W.=.t.y.P.!.W.j.#.b.K.(.x.x.&.y.y./.Q.W.>.4.y.G.~.J.z.#.u.n.(.J.W.*.t.q.i.^.J.j.#.u.V.(.J.Y.&.y.y.(.!.x.d.#.",
"Y./ B s.d.I a.j.e.H.r.4.XXY.=.A.l.#.C.~.-.r.H.*.w.^.k.e.I.g.#.K.W.-.A.H.+.b.(.<.w.H.r.4.XXY.-.G.z.#.n.~.:.i.P.*.t./.k.e.I.g.#.K.",
"e.Y Y v.i.w.j.W t.l.K.d.d.q.! g.I.S.s.r.W u.z.G.s.d.4.! h.G.g.s.r.W u.H.H.e.d.T t.g.L.d.s.q.W s.G.H.r.d.W e.g.L.r.d.E ! g.K.g.r.",
"N.XXi.I.H.w.i..Xg.n.Q.i.w.K.L.y.G.g.w.V..Xi.n.H.u.i. XH.v.G.g.w.N.XXy.G.A.e.i..Xl.n.H.u.w. XP.y.G.g.r.n.XXi.D.G.w.i. XI.i.H.g.r.",
"H.x.H.r.w.H.g.H.z.L.&.G.G.G.!.~.H.G.H.G.x.z.G.*.H.l.H.k.L.*.l.G.G.k.H.g.i.H.G.z.z.G.&.I.G.z.k.L.e.i.I.A.z.z.G.&.H.l.H.k.L.*.l.G.",
"f.f 7.n.V.J.Q.$.T i.y.H.OX~.d.#.q.q.H.E.g W i.i.I.!.:.a i.y.G.H.U.f t.q.! y.!.$.T i.y.l.P.,.j y.y.G.J.E.g E d.l.P.!.:.j u.y.l.I.",
"` b.^.H.J.>.e.7.K.L.XX~.S.e 3 X.B.3.q.e.9.P.H.P.>.e.7.K.H.P.z.-.q.m.^.D 6 M ' 7.L.^.P.d.-.E n.^.H.x.-.t.9.!.l.o.L r.! K.^.P.j.&.",
"x.k.H.G.%.3.L.k.L.G.T.A.4 o.l.P.J.-.c.P.k.H.H.>.4.K.k.z.I.k.O.m.H.k.H.5.2 U n.k.z.H.1.#.D.z.z.H.x.$.c.^.)...: , 8.K.k.z.H.z.$.m.",
"j.j u.H.i.g.Y.l W 0.8.3.p.d.j g.G.i.g.U.j e.H.u.i.Y.&.R h.i.i.z.k.j u.H.i.w.Y.#.E H.i.r.H.>.j h.A.r.g.!.@.1 ( L.l.Y.&.Y z.n.w.l.",
"9.D.i.G.^.q.y.m.g.v./.d.w.m.D.e.J.G.*.y.N.i.n./.e.w.m.D.i.P.g.e.y.N.u.G.!.q.y.N.n.i.+Xg.q.c.D.y.L.H.q.c.6.v.C.P.e.e.m.A.y./.h.*.",
"H.J.H.g.w.l.G.P.z.K.e.l.l.L.J.G.g.i.l.G.P.l.G.e.l.g.P.z.K.r.a.l.K.!.G.A.r.G.l.P.z.G.e.i.l.L.Q.G.r.i.l.G./.x.G.e.V.l.L.z.K.r.i.l.",
"Y.=.u.w.i.J.H.>.q.i.w.G.I.U.&.A.q.a.I.Q.>.e.i.p.J.L.k.#.A.5.l.L.E.=.u.r.i.H.H.>.q.A.5.H.L.k.&.i.e.V.I.z.%.q.i.w.J.H.k.#.g.q.G.K.",
"` W v.H.K.k.f.j 9.S. Xz.k.l 6.A.G.I.j.s.T b.n t p.z.g 9.g.K.z.k.=.W n.G.K.k.f.T c.A.K.z.k.l 6.A.K.H.k.s.T m.H.K.z.k.k 9.A.I.x.j.",
"i.H.(.J.k.#.v.G.(.J.Y.g b.i.!.^.z.>.4.v.x.Q.q + t n.i.(.P.W.=.7.n.H.!.z.k.k v.l.(.J.Y.#.c.g./.!.x.>.E n.l.(.H.k.#.c.i.(.H.x.-.7.",
"Y.&.i.H.#.V.~.%.q.P.e.q.^.k.l A.l.#.G.~.*.e.Y r i.^.<.&.L.i.#.L.Y.&.i.H.#.i.~.%.q.H.e.q./.k.l A.G.#.G.~.&.w.H.q.i.!.>.` H.i.&.H.",
"q.9.u.G.H.e.r.7.t.g.P.g.r.4.t.r.L.H.e.q.7.i.G./.r.s.W b.r.P.H.=.e.7.u.G./.e.i.6.y.g.P.g.-.7.c.r.L.H.=.q.7.u.G./.r.r.7.y.g.L.z.q.",
"K.L.i.A.g.i.l.XXG.n.g.i.r..X^.v.G.g.i.G..Xl.G.g.r.i.XXH.i.H.i.a.K.XXi.G.g.i.l.XXl.n.g.i.i..XH.i.A.g.i.G.+Xg.G.l.i.i..XH.v.G.i.r.",
"H.k.H.g.w.H.G.z.j.H.#.H.G.z.1.G.*.i.H.l.k.g.A.&.J.G.z.j.G.&.l.H.H.j.H.r.w.P.G.H.~.~.H.H.G.z.k.F.q.i.J.l.z.l.g.#.H.G.z.f.H.&.g.I.",
",.p t.n.G.x.E.g W i.n.x.J.:.L i.C.G.z.E.f 7.i.C.x.Q.$.T b.n.H.J.f.a t.i.K.H.+Xk.f o.3.5.P.:.a y.v.G.x.E.j ! i.C.x.Q.&.Y i.n.J.x.",
"t.C.^.H.z.*.u.c./.Q.!.r.q.t.I.| [ k.&.y.b./.Q.J.=.u.8.L.!.P.d.q.` C.+XL.~.~.Y , X.y.V.3.e.t.K.!.J.z.&.e.v.(.J.Q.*.e.t.L.oXM.-.#.",
"Y.d.l.z.*.t.^.j.g.H.>.#.L.Y.d.R R +.b.!.<.l.G.%.4.L.k.s.I.l.O.N.W.g.C.z.k.W X.p.z.L.j.5. XY.d.G.z.O.m.!.<.l.H.-.4.L.Y.U [.% - K.",
"r.T g.H.n.d.k.j ! z.V.g.g.=.T g.I.g.a.<.T e.H.V.g.j.5.E f.G.g.d.s.T 8.0.8.5.1.j E z.n.g.j.r.Y d.G.g.d.d.T e.z.n.d.l.#.~ . X C j.",
"m.L.y.K.H.q.i.K.A.i.P.u.q.N.K.t.L.z.e.v. Xi.V.^.w.w. XG.y.P.g.w.n.K.y.G.H.r.y. XA.i./.u.w.N.K.y.L.G.e.v. Xi.V.^.u.w.D.b.K K D w.",
"G.x.H.g.r.G.l.P.z.L.*.G.l.K.Y.L.r.i.l.G.J.z.A.*.l.l.D.g.n.r.l.l.H.J.H.g.e.H.G.H.z.K.*.G.l.G.W.L.w.r.l.H.Q.z.G.q.G.l.L.Y.L.r.G.l.",
"U.l t.w.i.J.^.%.k i.y.H.P.U.f i.y.g.P.E.$.4.i.y.I.J.H 6 x 4.G.I.Y.g t.u.i.I.Q.-.E i.y.z.P.,.g u.y.l.H.E.$.4.i.y.J.P.,.j i.8.G.J.",
"q.7.K.H.L.<.s.T N.H.L.j.>.E 0.H.L.H.>.e.! D.H.L.j.d.a 7 U N.z.j.` 9.S.L.L.j.s.3.n.H.L.l.d.` v.G.H.H.d.r.W K.H.L.j.>.T m.H.L.z.-.",
"A.z.!.J.<.W G.z.Q.J.k.O.b.l.W.P.z.%.7.G.z.!.J.k.g D.j.z.n.x.$.t.I.z.Q.H.>.E A.l.~.G.k.#.m.G.Q.H.x.%.7.G.z.!.H.k.k N.l.Q.H.Y.&.8.",
"k.g i.H.q.g.!.&.` H.y.i.^.j.g g.G.e.G.Y.g t.H.w.i.!.r.k ^.i.q.J.U.k r.H.q.l.!.*.4.Q.y.i.Q.j.g S.G.q.G.W.g t.H.w.i.!.>.k H.i.w.H.",
"4.v.u.G.^.e.q.c.i.i.P.r.e.8.m.i.P.H.q.e.v.u.V.^.e.r.8.n.u.P.h.*.t.m.y.G./.&.w.c.i.i./.r.=.t.m.w.L.H.&.e.c.i.V./.e.r.8.m.i.P.h.q.",
"L.P.l.D.r.l.g.XXl.G.g.g.g.L.H.A.g.i.i.G.+Xl.D.r.i.l.XXH.D.d.i.l.K.P.l.A.g.i.g./.z.N.d.i.a..X!.A.A.i.i.G.P.l.G.r.g.l..Xz.n.g.g.i.",
"z.>.g.r.w.P.S.k.-.D.t.a.J.z.>.A.q.a.I.z.f.r.a.q.J.G.k.r.H.&.l.K.z.>.g.i.w.I.H.k.r.A.#.H.G.E.>.A.w.i.J.H.M. .i.q.L.G.j.-.A.#.G.I.",
":.L c.A.K.x.E.R ].A 9 M A.$.T b.A.I.z.f.a y.z.l.V.Q.g 6.g.N.I.x.,.K c.A.G.x.z.j 7.A.C.x.E.l L b.G.H.k.h.N F G.K.x.Y.l 6.g.K.H.j.",
"b.K.(.J.k.#.` '.`.o r x ! i.P.!.Q.j.#.m.L.Q.@.> u y.y./.Q.W.-.q.i.K.!.J.k.&.u.n.(.J.Q.*.' y.P.!.J.<.#.b.y.(.J.Y.&.t.y./.Q.W.>.E ",
"W.%.g.H.#.a. X&   m q.5./.U.e.A.l.O.D.(.Y.> < P G.P.k.=.I.g.#.K.W.-.g.H.#.v.(.<.w.J.r.#.XXY.-.A.l.#.G.!.%.i.J.*.q./.k.e.I.l.#.K.",
"q.! r.G.H.s.*.S p S G.g.s.q.W g.I.S.e.A.u i C.(.w.f.4.! g.I.g.r.r.W u.H.H.r.d.T t.g.K.g.f.5.! g.I.S.-.r.T e.g.I.r.d.4.! g.G.h.e.",
"N.L.y.G.G.w.a..Xl.V.H.i.w.K./.y.H.g.w.n.N.G.n.H.i.r. XG.i.H.g.r.D.L.y.G.l.u.i.XXl.n.H.r.e. XP.y.G.S.w.n..Xi.D.H.i.i. XH.y.P.g.w.",
"G.Y.H.g.q.H.A.z.z.G.&.G.G.S._ K.r.i.H.G.W.z.A.q.H.G.H.k.L.&.l.G.G.z.H.d.} {.r.P.z.G.&.G.G.l.k.H.r.r.H.G.x.z.D.&.H.l.z.k.L.&.l.G.",
"U.j 7.i.V.J.Q.$.T i.y.G.!.=.w t.y.G.J.E.g W r.n.x.^.%.j b.y.G.J.U.f t.i.G c E.$.T i.y.G.P.,.j y.y.G.J.E.g ! d.a.J.^.%.L i.y.G.J.",
"` m.^.H.J.-.e.7.L.Q.P.d.e.4.Z.!.P.z.-.e.8.P.z.P.-.r.! K.Q.H.z.-.q.v.^.H.H.<.r.! L.^.P.j.r.` m.^.P.H.-.e.0.!.l.*.X.d.W K.^.P.z.$.",
"z.j.H.H.%.7.L.k.z.I.1.#.D.z.z.G.z.$.c.H.j.H.J.>.3.K.z.z.H.z.O.m.H.k.H.H.%.4.L.k.z.H.1.g D.z.z.H.z.$.9.^.).@.F 5 S n.z.z.I.j.#.b.",
"k.j g.z.i.d.Y.k ` H.i.i.z.d.Y h.G.w.l.k.k t.H.i.g.z.*.R H.i.r.l.j.j u.H.y.g.z.#.` H.n.r.z.s.j g.A.r.g./.@.1 r 7 ~ z.*.E H.n.r.l.",
"7.N.t.G.^.` y.m.n.u./.u.*.c.C.e.L.H.q.t.N.u.n./.e.q.v.V.y.+Xg.q.t.D.y.G.^.q.q.N.v.i./.r.&.v.D.y.L.S.q.t.6.0.B.a.E w.c.A.u.^.g.q."
};
