/* XPM */
static char *_264d7a3db5a4f85c94f3b90e035da93g3MCtPPiewZ30wzt[] = {
/* columns rows colors chars-per-pixel */
"64 64 162 2 ",
"   c None",
".  c #7E131A",
"X  c #871217",
"o  c #84151D",
"O  c #8D151C",
"+  c #91131E",
"@  c #9A161E",
"#  c #9A181E",
"$  c #A2171F",
"%  c #A2181F",
"&  c #A9181F",
"*  c #871521",
"=  c #8F1620",
"-  c #911420",
";  c #9B1621",
":  c #951923",
">  c #9E1824",
",  c #A41722",
"<  c #AC1722",
"1  c #A21822",
"2  c #AB1A22",
"3  c #B11724",
"4  c #B31925",
"5  c #B91A25",
"6  c #B21C28",
"7  c #BB1D29",
"8  c #C51D26",
"9  c #C81C27",
"0  c #C81D27",
"q  c #C91D27",
"w  c #C81E27",
"e  c #CA1C25",
"r  c #C91D27",
"t  c #C51D28",
"y  c #C71C28",
"u  c #C71E29",
"i  c #C71D2A",
"p  c #C71E2A",
"a  c #C81C28",
"s  c #C91C28",
"d  c #C81D28",
"f  c #C81D29",
"g  c #CA1C28",
"h  c #CB1C28",
"j  c #C81E29",
"k  c #C91C2A",
"l  c #C81D2A",
"z  c #C91D2A",
"x  c #C81C2B",
"c  c #C81D2B",
"v  c #CB1F2A",
"b  c #CE1C28",
"n  c #CE1C29",
"m  c #C81D2C",
"M  c #C81E2C",
"N  c #CA1D2A",
"B  c #D61C27",
"V  c #D51B28",
"C  c #D51B29",
"Z  c #D61B28",
"A  c #D61B29",
"S  c #D71B29",
"D  c #D71A2A",
"F  c #D61B2A",
"G  c #D71B2A",
"H  c #D11C29",
"J  c #D11D29",
"K  c #D31C28",
"L  c #D31D28",
"P  c #D31C29",
"I  c #D21D29",
"U  c #D31D29",
"Y  c #D11C2A",
"T  c #D11D2A",
"R  c #D11D2B",
"E  c #D21C2A",
"W  c #D31C2A",
"Q  c #D21D2A",
"!  c #D31D2A",
"~  c #D31C2B",
"^  c #D01E2A",
"/  c #D11E2B",
"(  c #D31E2B",
")  c #D51C28",
"_  c #D51D28",
"`  c #D41C29",
"'  c #D51C29",
"]  c #D41D29",
"[  c #D51D29",
"{  c #D61C28",
"}  c #D71C28",
"|  c #D61D28",
" . c #D71D28",
".. c #D61C29",
"X. c #D71C29",
"o. c #D61D29",
"O. c #D71D29",
"+. c #D51E29",
"@. c #D61E29",
"#. c #D71E29",
"$. c #D51C2A",
"%. c #D41D2A",
"&. c #D51D2B",
"*. c #D61C2A",
"=. c #D71C2A",
"-. c #D61D2A",
";. c #D71D2A",
":. c #D61C2B",
">. c #D61D2B",
",. c #D71D2B",
"<. c #D41E2A",
"1. c #D41E2B",
"2. c #D61E2A",
"3. c #D71E2A",
"4. c #D71E2B",
"5. c #D11E2C",
"6. c #D51D2C",
"7. c #D61D2D",
"8. c #D41E2C",
"9. c #D61E2C",
"0. c #D61F2C",
"q. c #D61E2D",
"w. c #D61C29",
"e. c #D81C28",
"r. c #D91D28",
"t. c #D81C29",
"y. c #D91C29",
"u. c #D81D29",
"i. c #D91D29",
"p. c #D81E29",
"a. c #D91E29",
"s. c #D91C2A",
"d. c #D81D2A",
"f. c #D91D2A",
"g. c #D81D2B",
"h. c #D91D2B",
"j. c #DA1C2A",
"k. c #DA1D2A",
"l. c #DA1C2B",
"z. c #DA1D2B",
"x. c #D81E2A",
"c. c #D91E2A",
"v. c #DB1E2A",
"b. c #DB1F2A",
"n. c #DA1E2B",
"m. c #DB1E2B",
"M. c #DA1F2B",
"N. c #DB1F2B",
"B. c #DC1D2A",
"V. c #DA1B2C",
"C. c #D81D2C",
"Z. c #D91D2C",
"A. c #DA1C2C",
"S. c #DA1D2C",
"D. c #DB1D2C",
"F. c #D81E2C",
"G. c #D91F2C",
"H. c #D91E2D",
"J. c #DB1E2C",
"K. c #DB1F2C",
"L. c #D91D2A",
"P. c #D1202D",
/* pixels */
"                                                                                                                                ",
"    * = - - + - - + + - - + + - = O - + O + O + + +                             - - - - - - + + + + - + - O - - + + + + + + .   ",
"  ; M 8.Z.d.8.=.d.Z.8.=.Z.8.=.8.~ =.~ =.=.8.=.=.P.Z.,                         6 P.8.=.=.P.d.d. .d.d.d.d.=.=.=.=.=.=.P.=.B.P.5 # ",
"  > x ~ G C d.C C C G =.C =.C C =.=.=.=.=.=.=.=.B.8.2                         5 5.8.=.=.B.d.d.=.B  .C d.=.L =.=.=.B  .B B.d.6 # ",
"  > t ~ =.=.P C C C C C C C Z Z C Z Z Z Z C C C D.Z.,                         3 P.B B L B =.=.B =.=.C =.B =.B =.=.C d.C d.P.5 # ",
"  # t L =.=.=.B =.=.=.B =.=.B B B B B B B =.=.B D.8.,                         6 ~ P.=.=.=.B ~ =.=.B L =.B =.=.C B d.C B B. .5 # ",
"  % w L B =.=.=.=.=.C =.B =.B =.B B Z L B =.=.=.B.8.,                         3 ~ =.B ~ =.L B =.=.~ B =.=.=.B L =.=.B B  .b.5 # ",
"  $ w ~ B =.B =.B =.L =.=.=.B =.=.B =.=.B =.B =.d.=.,                         6 n =.=.B =.C =.C B =.=.B ~ B =.=.=.B B B b.b.5 # ",
"  1 w L Z L ~ =.=.~ =.~ B =.=.L =.B =.=.B =.B =.d.~ ,                         6 ~ =.B ~ B =.B L =.=.C L B =.=.=.=.B =.B d.d.5 # ",
"  # u ~ =.=.B B =.B B =.=.B =.C =.B ~ B L =.=.B d.=.,                         3 P.=.=.B ~ =.=.=.B B =.=.=.C L B =.=.C L d.d.5 # ",
"  1 t ~ B =.B =.B L C =.B ~ B =.C =.B =.C =.=.~ d.=.2                         6 ~ P.B ~ =.B C L =.~ B =.=.B B =.B B =.=. .b.5 # ",
"  > w ~ B =.~ =.=.=.=.B =.=.B =.L =.=.B =.B B =.d.~ ,                         3 P.=.=.B =.B =.=.=.B =.B ~ =.~ =.=.~ B =.b.P.5 # ",
"  1 t ~ =.=.B B B ~ =.=.B L C =.B =.=.~ B =.=.B d.P.,                         5 L =.=.B =.=.B =.B L C =.C =.B B =.=.G B  .d.5 # ",
"  1 x L B B =.=.=.=.B B =.=.=.B =.C B =.=.B ~ =.d.~ ,                         6 ^ =.B ~ =.L =.L =.=.=.B L =.=.=.B B =.d.B.d.5 # ",
"  1 0 L =.=.B =.B =.C =.B =.=.B =.L L =.=.L B =.d.~ 2                         6 ^ d.B =.B L =.=.B =.=.B B =.=.B =.=.B G B.P.5 # ",
"  1 x L B B ~ C L =.L =.=.B ~ =.=.B =.=.B =.=.=.d.=.,                         3 ^ P.=.B =.=.B =.=.B ~ =.=.B ~ =.=.B B  .b. .5 # ",
"  1 0 L B B =.=.=.=.B B =.B =.B =.=.=.=.L B =.=.d.=.,                         6 n =.=.=.L =.=.B =.=.B =.=.B =.C =.B B =.=.d.5 # ",
"  , x L =.=.=.L B =.=.~ =.=.B ~ C L B =.C =.=.B d.~ ,                         5 P.=.B B C =.B ~ L C B =.=.B =.L =.=.~ =.d. .5 # ",
"  , t L B =.L =.L C =.B L B =.=.=.=.B B L =.~ B d.=.,                         6 ~ =.C =.=.B B =.=.=.=.~ =.=.B =.B =.B B  .d.5 # ",
"  , x ~ B B ~ B =.=.B ~ C =.=.B B =.=.~ C =.B =.d.=.,                         6 n =.C L =.=.=.=.L B =.B B =.=. .C =.=.=.B.d.6 # ",
"  1 x L =.~ B =.=.B =.=.L =.=.B =.=.C L =.=.B =.d.=.1                         2 ^ P. .B =.=.L B C =.B =.d.B d.d. . .d.d.d.B.7 ; ",
"  1 0 L B =.~ B C L =.B C =.B ~ B B =.=.B =.L =.d.P < O                       5 ^ =.=.=.B =.C =.B =.=.e 8 5 5 5 5 5 5 7 7 7 > o ",
"  , 0 L Z L B =.=.=.~ =.=.B B =.=.~ B =.=.B C =.B P e 8 5 3 4 4 5 3 5 3 3 5 5 0 =.=.B =.=.P B ~ =.d.0 @                         ",
"  , x L B =.L =.B =.B B =.=.=.=.=.B =.B ~ =.=.B =.=.C d.d.d.=.=.V.Z.V.V.B.d.d.=.=.C C =.=.=.=.=.=.d.0 +                         ",
"  , t ~ B =.~ =.B B =.B =.=.L B B L C =.=.L C =.=.~ B =.=.~ B =.C D C C C =.B =.~ =.=.B =.C =.B b.P.0 O                         ",
"  1 0 ~ B =.B =.=.~ =.=.B =.C =.=.=.=.B =.B =.B B =.=.B B =.=.B =.C =.B C =.=.=.=.L B =.B =.=.B B d.0 O                         ",
"  % 0 ~ B =.L =.=.L L =.~ B =.B B =.=.B B =.=.=.=.=.=.L B =.=.=.=.=.~ =.=.B B =.B =.=.=.=.L =.=.G B.0 +                         ",
"  % 0 L B L =.=.B =.=.B =.B =.=.=.B ~ =.~ =.B B B B =.C =.C L B =.=.B =.B B ~ n ~ ~ b ~ ~ L L n =.d.w +                         ",
"  % w L B =.L B =.=.=.=.L C L C =.L =.L C =.C =.=.~ =.~ B =.B =.=.=.=.=.=.L 5 # .                 o                             ",
"  % w L B =.~ =.C L B =.B =.=.=.=.C =.B =.B L =.=.B B =.=.B ~ =.B B K C P.0 >                                                   ",
"  % 0 L B =.~ B =.=.B B =.=.~ B B B =.=.=.~ B =.B L C =.=.=.B B =.=.B B d.9 #                                                   ",
"  % 0 =.B =.B =.B =.=.~ =.B B =.=.=.~ B B =.=.B =.=.=.B L C =.=.C L =.B B.9 >                                                   ",
"  % 0 L B ~ =.B B =.=.C =.B L =.L =.=.=.B ~ =.=.C L B =.=.=.L =.=.B K Z d.0 ;                                                   ",
"  1 x ~ =.B ~ =.=.=.B L =.=.C =.=.=.B B =.=.B B =.=.=.B L B =.=.=.=.Z Z B.0 #                                                   ",
"  , t ~ B =.~ B ~ B =.=.B =.=.B B =.B =.B =.B =.B =.=.~ C =.=.B B B B L d.e & X                                                 ",
"  , w ~ B =.B ~ B =.B =.B ~ B ~ L =.B P.B ~ ~ =.B =.B =.=.B L =.=.~ =.=.B L K 0 w 0 0 0 x 0 0 0 0 x 7 *                         ",
"  , x ~ =.B =.=.=.C =.B =.B =.=.=.=.L ~ ~ B =.B =.=.B =.=.=.L =.=.=.=.B =.=.B =.=.B B B B B Z L =.P.x +                         ",
"  , x ~ C =.=.B =.L =.=.C L =.B B =.=.B =.B L =.~ B L =.B =.=.B L B =.~ =.L B ~ =.B =.=.C C =.B B.P.x :                         ",
"  , x ~ C =.=.C =.B B =.=.=.~ =.B ~ B =.C =.B =.=.B C =.~ B =.B =.B =.B B =.=.B C =.B =.=.=.~ B b.B.0 +                         ",
"  1 x ~ C C L L =.=.B ~ B =.B B =.=.B =.L =.=.B ~ =.=.B =.B =.=.=.=.L =.=.B ~ =.L =.=.=.B =.=.B B B.x +                         ",
"  , x ~ B =.=.B =.=.L B =.=.=.=.B =.C =.B B =.~ =.B =.=.=.B =.=.=.B =.=.=.=.=.=.=.=.B =.L C =.=.=.D.k =                         ",
"  1 x ~ d.B ~ =.B =.C =.=.B B =.L =.L =.=.=.=.B =.B =.B P.=.=.=.~ P.P.~ =.8.=.=.=.~ L =.=.=.B =.=.Z.k -                         ",
"  1 M ~ C C L B ~ B =.B ~ B =.C =.=.L =.~ =.B B  .=.8 < $ # # # @ @ # @ @ # % t ~ =.=.L =.B B =.=.d.b 3 >                       ",
"  , M 8.C L =.=.=.B =.=.B =.=.L B =.=.B B B =.=.d.=.&                         3 ~ =.=.=.L =.=.L =.C C P b 0 x 0 v x n x ~ n 6 - ",
"  , t ~ G =.B =.=.B =.C ~ =.=.B B =.=.C =.=.L Z B.d.&                         5 ^ =.=.=.=.L =.=.=.=.B B =.B =.=.L =.~ =.d.d.5 ; ",
"  1 x ~ d.C L =.B ~ =.L B B =.=.=.=.B L B =.=.C P.=.$                         4 P.~ B =.B =.B =.B =.=.=.B =.=.B =.=.=.B d.d.5 @ ",
"  1 w L B =.C =.B =.=.C =.B L C ~ B =.=.B =.B C d.=.,                         6 P.=.~ L =.=.B L L =.~ B B =.=.B B =.=.=.d.=.5 ; ",
"  1 w ~ B B ~ B =.=.B L =.=.=.=.B =.B =.=.=.=.G d.=.,                         3 ~ B B =.=.L =.=.C =.B =.=.L =.=.L =.=.=.d.=.5 ; ",
"  % 0 ~ B =.=.=.B =.B =.=.=.B =.=.B =.=.B =.=.B =.~ 1                         6 n =.=.=.B ~ =.=.=.=.B =.=.=.B B =.B B =.=.d.5 @ ",
"  % 0 L B =.B =.L =.=.B L C B =.=.B ~ B L =.=.B d.~ ,                         3 ~ =.L B =.=.B B B =.B ~ B =.=.~ =.=.~ =.d.d.5 @ ",
"  % w L B =.L =.C =.=.~ =.=.=.~ C =.B =.C =.=.=.d.=.,                         3 ^ =.B ~ B =.C =.=.C =.B L C =.B L B =.B b.P.5 + ",
"  # u L B =.C =.=.B B =.L B =.B L =.=.B =.B B =.d.=.,                         6 ~ P.=.C L =.L =.B L =.=.=.=.B ~ C =.=.B b.B 5 # ",
"  % w L B B =.B =.=.B ~ C =.=.B B =.=.~ C L B =.d.~ ,                         3 P.P.B B =.~ B =.=.=.=.=.B =.B =.=.B =.B  . .5 @ ",
"  1 0 P.d.B L =.L B =.=.=.B ~ =.=.C B =.=.=.=.=.d.P.,                         3 ~ =.=.B B =.=.B =.B B =.B ~ =.=.=.=.=.B b. .5 @ ",
"  # x ~  .B =.=.C =.=.B C L B =.=.L B ~ B =.=.B d.=.1                         4 ^ =.=.B B =.=.=.~ B =.C =.=.L B B =.=.=.d.8.5 ; ",
"  1 x B  .=.=.B =.B =.B =.=.=.B =.B =.=.B =.=.B d.=.,                         4 P.=.B ~ =.C L B B =.=.L B =.C =.B ~ G G d.=.5 @ ",
"  % 0 ~ B =.B ~ =.B =.B =.=.B =.L =.B L C =.=.=.d.d.,                         5 P.B B L =.B L =.L =.=.L =.=.L =.=.B =.B =.d.5 ; ",
"  # x L B B ~ =.~ =.=.B ~ B L =.=.=.=.=.=.B B =.d.P.,                         3 ~ P.=.=.=.=.=.=.=.=.B =.L B =.=.=.=.B ~ d.d.5 ; ",
"  1 x L =.=.=.=.B =.=.=.=.B C =.=.B B =.=.~ B =.B.=.,                         3 ^ =.=.B L =.=.B B =.B =.=.B =.B L B =.=.B.P.5 - ",
"  > x ~ C L =.C =.B L C ~ =.=.B L =.=.B B =.=.B d.~ ,                         6 ^ =.=.=.=.B L =.L =.=.L =.=.=.B C =.=.B B.d.5 ; ",
"  > t ~ d.C C C =.=.=.=.B ~ B =.=.=.=.~ B =.C d.d.P.2                         4 L B =.~ =.B =.=.C =.L C B =.B ~ =.~ =.C B.d.5 ; ",
"  > t =.G V.V.Z.=.=.=.d.=.=.=.=.d.d.=.=.=.=.=.d.P.d.,                         4 P.=.=.=.=.P.=.=.=.=.=.=.P.=.=.=.=.=.=.Z.B.B.5 ; ",
"  : 7 v v v n x v p x x x v x v M x n x x x v M v M >                         2 v x x x x v x n v x x x v x v x t v v v v v 3 = ",
"                                                                                                                                "
};
