/* XPM */
static char *cc38e2f561b84b2fc6cf2fb0a2cf51aeuBwNpDjuiHZ6B2eE[] = {
/* columns rows colors chars-per-pixel */
"64 64 28 1 ",
"  c None",
". c #7C151C",
"X c #81131B",
"o c #8C171E",
"O c #8E181F",
"+ c #92151E",
"@ c #9A161E",
"# c #8F1822",
"$ c #961621",
"% c #9C1721",
"& c #9F1822",
"* c #A21723",
"= c #A31823",
"- c #A91924",
"; c #B41B26",
": c #BA1B27",
"> c #B31B28",
", c #BC1B28",
"< c #C31B26",
"1 c #CC1C26",
"2 c #C61C29",
"3 c #CB1D29",
"4 c #D31C27",
"5 c #D61C29",
"6 c #D91D2A",
"7 c #C2202C",
"8 c #CD202C",
"9 c #DA202D",
/* pixels */
"               .XXX.XX.XXXX.XX..XXXXX.XXXXXXXXX.X#.             ",
"              $885955565595555958955565655546655662o            ",
"              %355555555555555556555556455555555663O            ",
"              %355655555555555554655555655555555563#            ",
"              %355555555555555555555555555555555563+            ",
"              %365555555565666666666665555555555661o            ",
"              %36555556653<::;:::::::<3565555555563@            ",
"  ->;;;;;;;;;;<4555555662>+          %,365555556655<:;;;>>>;-%  ",
" %88965655566655555555662*            ;3665555555556565656593:  ",
" %85555555555555565555662=            ;3665555555555555555564:  ",
" %25555555555555555555662*            :3655555555555555555563,  ",
" %79555555555555555555662*            ;3655555555555555555561:  ",
" %36655555555555555555662=            ;3655555555555555555664:  ",
" %75555555555555555556662*            ;3655555555556555555563:  ",
" %29655555655555655555562=            :3655555555555555555568,  ",
" &74655555555555555555662=            >3655555555555555555561:  ",
" %84555555555655555555662*            :3664555555555555555564:  ",
" *<9944555555555655555662=            ;3665555555555555655664:  ",
" @35645555555555555556662=            :3665565555555555555561:  ",
" *38654555555555555556662=            ;3654555555555555555664,  ",
" @18664655565555555555662*            :3655565555555555555664,  ",
" @84444655555555555655662=            ;3665555555555555655664,  ",
" =29454655555555555556662=            ;1654555555555555555565,  ",
" =16654555555555555556662=            ;4655555555555555555563:  ",
" &84655555555555555555661*            ;3655555555555555555591:  ",
" &38555555555555555555662*            ;3655555555555555555564:  ",
" =38655555555555555555668=            ;4654555555555555555564:  ",
" &26555555555555555556662=            ;3655555555555555555563,  ",
" &34654555555555555555662*            ;3665555555556555555664,  ",
" &74555555555555555555662*            :3655555655555555555564,  ",
" &39655555555555555555662*            ;3665555555555555556564:  ",
" &75655565555655555555662*            :3655555555555555555663,  ",
" *25655555555556555555692=            ;3654555555555555555564:  ",
" *25655555555555555555662=            ;3665555555555555555664<  ",
" &15655555555555555556662*            ;3645555555655556565564,  ",
" &<5655555555555565555662=            ;3654555555555555555661,  ",
" &85555555555555555555692=            ;3645555555555655555564,  ",
" &38655555555555555555662*            ;3654555555555555555563,  ",
" %79655555555555555555662=            :3665565555555555556554,  ",
" *75655555555565555555662=            ;3655555555555555555663:  ",
" =85655555555655655555562*            ;3665565555555555555564:  ",
" =28655555555555555555662=            ;3665555555555555555664:  ",
" &25654555555555555556662=            :3665555555555555555664,  ",
" =85645555555555555556662=            ;3655555555556555555564,  ",
" &74555555565555555555562*            ;3655555555555555555563:  ",
" =39554555555555555555662=            ;5655555555655555655564:  ",
" &75555555555555555556662=            ;3655555555555555556554,  ",
" &<9655555555555555556692=            ;3655555555555555555663:  ",
" &38655555555556555555662*            :3655555555565555555665:  ",
" &85655555555555555555662*            :1654555555555555555564:  ",
" @28654555555555555555667=            >2655555555555555555564,  ",
" &85455555555555555555668=            >3555555555555555555561,  ",
" &28665555555555555556662*            :3655556555555555555664;  ",
" %38654555555565555556692&            >3655555555555565554664,  ",
" %24654555556455555555662&            ;1654655555555555555568,  ",
" %39666566556655555555692-            :1655555556555566656694,  ",
" $,3433344333445555655664<>=-==---==-;25555565555554333311533>  ",
"      %%@@%%%%:355555555555666965659995555555555464;-%$%@@$%$   ",
"              $355555555554645555555555555555555563+            ",
"              $555555555555555555555555555555555563+            ",
"              $555555555555555555555555555555555561+            ",
"              $355555554555545555455555555545545561+            ",
"              $886665555555555555555565555555555562+            ",
"              #78323338333833383333833123333333338,o            "
};
