/* XPM */
static char *result[] = {
/* columns rows colors chars-per-pixel */
"64 64 222 2 ",
"   c #010201",
".  c #09080A",
"X  c #070E1B",
"o  c #130715",
"O  c #09111D",
"+  c #0E090D",
"@  c #172519",
"#  c #0D1622",
"$  c #0E1926",
"%  c #141A25",
"&  c #141D2A",
"*  c #1B1E2B",
"=  c #191823",
"-  c #121E30",
";  c #221E2A",
":  c #231A26",
">  c #16212C",
",  c #1B222C",
"<  c #172F2C",
"1  c #1E2630",
"2  c #1F2833",
"3  c #23232D",
"4  c #2A242E",
"5  c #2B2B2F",
"6  c #222E2B",
"7  c #33292C",
"8  c #362A2A",
"9  c #3E352F",
"0  c #232630",
"q  c #2D2631",
"w  c #242C35",
"e  c #2C2B33",
"r  c #352631",
"t  c #3A2732",
"y  c #342B33",
"u  c #3B2A33",
"i  c #332F39",
"p  c #2D343C",
"a  c #293337",
"s  c #333134",
"d  c #3B3334",
"f  c #33343A",
"g  c #343A3E",
"h  c #3A3B3C",
"j  c #3B3639",
"k  c #283828",
"l  c #533A13",
"z  c #653D1D",
"x  c #4C382C",
"c  c #543C2B",
"v  c #442D34",
"b  c #423333",
"n  c #4D3334",
"m  c #4A3B35",
"M  c #42333A",
"N  c #423C3B",
"B  c #4F3B3E",
"V  c #533C36",
"C  c #553836",
"Z  c #683E2C",
"A  c #3A423C",
"S  c #494439",
"D  c #524135",
"F  c #5B4535",
"G  c #56433B",
"H  c #5D4D3B",
"J  c #58473C",
"K  c #77542C",
"L  c #664C35",
"P  c #6A4B3A",
"I  c #654838",
"U  c #64523D",
"Y  c #6B523C",
"T  c #655030",
"R  c #7B5A3D",
"E  c #76583C",
"W  c #6E442C",
"Q  c #353B43",
"!  c #3A3C42",
"~  c #493F44",
"^  c #3C4345",
"/  c #3E454A",
"(  c #354549",
")  c #424443",
"_  c #4B4443",
"`  c #4B4A46",
"'  c #454A4C",
"]  c #4C4D4B",
"[  c #434A49",
"{  c #564344",
"}  c #544C45",
"|  c #5A4C44",
" . c #564A49",
".. c #4E5248",
"X. c #53524D",
"o. c #5C524C",
"O. c #5C5949",
"+. c #494D51",
"@. c #4B5153",
"#. c #4D5957",
"$. c #525553",
"%. c #535B5A",
"&. c #575A56",
"*. c #644C47",
"=. c #6D5443",
"-. c #68574A",
";. c #745A43",
":. c #7C5D42",
">. c #755B49",
",. c #795D4B",
"<. c #735242",
"1. c #655C54",
"2. c #755C53",
"3. c #5C625B",
"4. c #78634A",
"5. c #6C6C5C",
"6. c #676559",
"7. c #7B6354",
"8. c #79685A",
"9. c #6A725A",
"0. c #78745C",
"q. c #5D6565",
"w. c #686B66",
"e. c #6A706A",
"r. c #757664",
"t. c #7A7969",
"y. c #787D77",
"u. c #716565",
"i. c #82592C",
"p. c #A35F3E",
"a. c #8A663D",
"s. c #93662F",
"d. c #A36A39",
"f. c #A3773E",
"g. c #855E47",
"h. c #84664C",
"j. c #886742",
"k. c #926B47",
"l. c #8B6C54",
"z. c #846C5D",
"x. c #886A57",
"c. c #8A755B",
"v. c #957353",
"b. c #9A7759",
"n. c #A27E5C",
"m. c #A47B54",
"M. c #B26E47",
"N. c #8C7463",
"B. c #887767",
"V. c #937C69",
"C. c #967C67",
"Z. c #927C70",
"A. c #7A8173",
"S. c #7D876C",
"D. c #B98238",
"F. c #AF813C",
"G. c #A9825D",
"H. c #A4805E",
"J. c #B48A4D",
"K. c #888469",
"L. c #9A8267",
"P. c #848878",
"I. c #978B74",
"U. c #95957B",
"Y. c #87917C",
"T. c #AB8665",
"R. c #B28A64",
"E. c #BA9267",
"W. c #A78A72",
"Q. c #A7977A",
"!. c #B4997A",
"~. c #B79979",
"^. c #B9A17D",
"/. c #A7A266",
"(. c #C99649",
"). c #DCA752",
"_. c #DAA94E",
"`. c #E3A85D",
"'. c #CA9C69",
"]. c #D3A469",
"[. c #F5C46E",
"{. c #858A89",
"}. c #8C9588",
"|. c #91988E",
" X c #A69783",
".X c #A8A485",
"XX c #B1A889",
"oX c #BCA987",
"OX c #BCB18D",
"+X c #BAB88C",
"@X c #B9B594",
"#X c #ACA895",
"$X c #AAB4AC",
"%X c #C4AC86",
"&X c #C3AD8A",
"*X c #CBAF89",
"=X c #C7AA85",
"-X c #C4B38C",
";X c #CCB18A",
":X c #CDB98F",
">X c #D1B38A",
",X c #CBBA93",
"<X c #C9B593",
"1X c #D1BE95",
"2X c #C9AD8E",
"3X c #CDC398",
"4X c #D3C396",
"5X c #D4C59C",
"6X c #DACB9E",
"7X c #D8C59B",
"8X c #C9C08E",
"9X c #DCCCA2",
"0X c #DDD1A4",
"qX c #E0CFA1",
"wX c #E3D4A4",
"eX c #E4D8A9",
"rX c #EBE4AC",
"tX c #F0EAAD",
"yX c #EEE6B2",
"uX c #F5EFB6",
"iX c #CECEC1",
"pX c None",
/* pixels */
"pXpXpXpXpXpXpXpXpXpXpXpXpXpXpXpXpXpXpXpXpXpXpXpXpXpXpXpXpXpXpXpXpXpXpXpXpXpXpXpXpXpXpXpXpXpXpXpXpXpXpXpXpXpXpXpXpXpXpXpXpXpXpXpX",
"pXpXpXpXpXpXpXpXpXpXpXpXpXpXpXpXpXpXpXpXpXpXpXpXpXpXpXpXpXpXpXpXpXpXpXpXpXpXpXpXpXpXpXpXpXpXpXpXpXpXpXpXpXpXpXpXpXpXpXpXpXpXpXpX",
"pXpXpXpXpXpXpXpXpXpXpXpXpXpXpXpXpXpXpXpXpXpXpXpXpXpXpXpXpXpXpXpXpXpXpXpXpXpXpXpXpXpXpXpXpXpXpXpXpXpXpXpXpXpXpXpXpXpXpXpXpXpXpXpX",
"pXpXpXpXpXpXpXpXpXpXpXpXpXpXpXpXpXpXpXpXpXpXpXpXpXpXpXpXpXpXpXpXpXpXpXpXpXpXpXpXpXpXpXpXpXpXpXpXpXpXpXpXpXpXpXpXpXpXpXpXpXpXpXpX",
"pXpXpXpXpXpXpXpXpXpXpXpXpXpXpXpXpXpXpXpXpXpXpXpXpXpXpXpXpXpXpXpXpXpXpXpXpXpXpXpXpXpXpXpXpXpXpXpXpXpXpXpXpXpXpXpXpXpXpXpXpXpXpXpX",
"pXpXpXpXpXpXpXpXpXpXpXpXpXpXpXpXpXpXpXpXpXpXpXpXpXpXpXpXpXpXpXpXpXpXpXpXpXpXpXpXpXpXpXpXpXpXpXpXpXpXpXpXpXpXpXpXpXpXpXpXpXpXpXpX",
"pXpXpXpXpXpXpXpXpXpXpXpXpXpXpXpXpXpXpXpXpXpXpXpXpXpXpXpXpXpXpXpXpXpXpXpXpXpXpXpXpXpXpXpXpXpXpXpXpXpXpXpXpXpXpXpXpXpXpXpXpXpXpXpX",
"pXpXpXpXpXpXpXpXpXpXpXpXpXpXpXpXpXpXpXpXpXpXpXpXpXpXpXpXpXpXpXpXrXrXrXeXpXpXpXpXpXpXpXpXpXpXpXpXpXpXpXpXpXpXpXpXpXpXpXpXpXpXpXpX",
"pXpXpXpXpXpXpXpXpXpXpXpXpXpXpXpXpXpXpXpXpXpXpXpXpXpXpXpXpXpXpXrXtXtXtX8XJ._.pXpXpXpXpXpXpXpXpXpXpXpXpXpXpXpXpXpXpXpXpXpXpXpXpXpX",
"pXpXpXpXpXpXpXpXpXpXpXpXpXpXpXpXpXpXpXpXpXpXpXpXpXpXpXpXpXpX9XuXyXrXtXL.f.(.a.pXpXpXpXpXpXpXpXpXpXpXpXpXpXpXpXpXpXpXpXpXpXpXpXpX",
"pXpXpXpXpXpXpXpXpXpXpXpXpXpXpXpXpXpXpXpXpXpXpXpXpXpXpXpXpX2XeXyXwX0X6X4.f.f.s.(.pXpXpXpXpXpXpXpXpXpXpXpXpXpXpXpXpXpXpXpXpXpXpXpX",
"pXpXpXpXpXpXpXpXpXpXpXpXpXpXpXpXpXpXpXpXpXpXpXpXpXpXpXpX<X<XwXeX,X;XoXH K a.J.F.pXpXpXpXpXpXpXpXpXpXpXpXpXpXpXpXpXpXpXpXpXpXpXpX",
"pXpXpXpXpXpXpXpXpXpXpXpXpXpXpXpXpXpXpXpXpXpXpXpXpXpXpX9X3X9X,X6X'. XW.J 9 S *.K l pXpXpXpXpXpXpXpXpXpXpXpXpXpXpXpXpXpXpXpXpXpXpX",
"pXpXpXpXpXpXpXpXpXpXpXpXpXpXpXpXpXpXpXpXpXpXpXpXpX<X1X9X3X,XoX&XW.L.L.b $ , [ pXpXpXpXpXpXpXpXpXpXpXpXpXpXpXpXpXpXpXpXpXpXpXpXpX",
"pXpXpXpXpXpXpXpXpXpXpXpXpXpXpXpXpXpXpXpXpXpXpX2X,XqX9X1X;X-X&X=XC.8.z.3 1 &.pXpXpXpXpXpXpXpXpXpXpXpXpXpXpXpXpXpXpXpXpXpXpXpXpXpX",
"pXpXpXpXpXpXpXpXpXpXpXpXpXpXpXpXpXpXpXpXpXpXoX7XeXeXqX1X-X&X^.~.C.*.{ 0 e u.pXpXpXpXpXpXpXpXpXpXpXpXpXpXpXpXpXpXpXpXpXpXpXpXpXpX",
"pXpXpXpXpXpXpXpXpXpXpXpXpXpXpXpXpXpXpXpXpX~.~.&X,X4X5X4X<XoX~.C.z.*.*.~ r ~ e.pXpXpXpXpXpXpXpXpXpXpXpXpXpXpXpXpXpXpXpXpXpXpXpXpX",
"pXpXpXpXpXpXpXpXpXpXpXpXpXpXpXpXpXpXpXpXpXW.7.*.8.z.N.V.V.I.~.C.2.x.*.~ M u N pXpXpXpXpXpXpXpXpXpXpXpXpXpXpXpXpXpXpXpXpXpXpXpXpX",
"pXpXpXpXpXpXpXpXpXpXpXpXpXpXpXpXpXpXpXpXW.*.f u.I.I.V.z.2.o.>.c.N.z.<.~ v r q d pXpXpXpXpXpXpXpXpXpXpXpXpXpXpXpXpXpXpXpXpXpXpXpX",
"pXpXpXpXpXpXpXpXpXpXpXpXpXpXpXpXpXpXpXpXC.y / OX0X0X,X!.B.! i { *.x.2.~ u u u pXpXpXpXpXpXpXpXpXpXpXpXpXpXpXpXpXpXpXpXpXpXpXpXpX",
"pXpXpXpXpXpXpXpXpXpXpXpXpXpXpXpXpXpXpXpXC.i w.9XOXA.XX-Xr.a f ` ~ M M v u j ~ pXpXpXpXpXpXpXpXpXpXpXpXpXpXpXpXpXpXpXpXpXpXpXpXpX",
"pXpXpXpXpXpXpXpXpXpXpXpXpXpXpXpXpXpXpXpXz.M K.XXX.^ r.I.] , } 7.~ v u t r e / pXpXpXpXpXpXpXpXpXpXpXpXpXpXpXpXpXpXpXpXpXpXpXpXpX",
"pXpXpXpXpXpXpXpXpXpXpXpXpXpXpXpXpXpXpX*XN. .I.u.+.e.%.) e e >.8.| J ~ v 7 , p pXpXpXpXpXpXpXpXpXpXpXpXpXpXpXpXpXpXpXpXpXpXpXpXpX",
"pXpXpXpXpXpXpXpXpXpXpXpXpXpXpXpXpXpXpX>XC.~ $.^ q.w.[ w , s } -.H P C v e > p @.pXpXpXpXpXpXpXpXpXpXpXpXpXpXpXpXpXpXpXpXpXpXpXpX",
"pXpXpXpXpXpXpXpXpXpXpXpXpXpXpXpXpXpXpX>XV.q w / 3./ < > > 4 S H *.m v q , & w %.pXpXpXpXpXpXpXpXpXpXpXpXpXpXpXpXpXpXpXpXpXpXpXpX",
"pXpXpXpXpXpXpXpXpXpXpXpXpXpXpXpXpXpXpX>XV.4 f 6.c.4.s & > 1 p X.X.! j 0 > > w ' pXpXpXpXpXpXpXpXpXpXpXpXpXpXpXpXpXpXpXpXpXpXpXpX",
"pXpXpXpXpXpXpXpXpXpXpXpXpXpXpXpXpXpXpX>XN.y ] r.K.K.S , 3 h ` $.X.) g w , , 0 Q 3.pXpXpXpXpXpXpXpXpXpXpXpXpXpXpXpXpXpXpX< pXpXpX",
"pXpXpXpXpXpXpXpXpXpXpXpXpXpXpXpXpXpXpX*XN.4 ' t.K.0.J 4 8 F P =.Y I m y 3 , , f %.pXpXpXpXpXpXpXpXpXpXpXpXpXpXpXpXpX@ + pXpXpXpX",
"pXpXpXpXpXpXpXpXpXpXpXpXpXpXpXpXpXpXpX;XN.3 p 6.0.9.S 3 5 c L W Z I I x 3 & , 5 ] w.pXpXpXpXpXpXpXpXpXpXpXpXpXpX9.-.  pXpXpXpXpX",
"pXpXpXpXpXpXpXpXpXpXpXpXpXpXpXpXpXpXpX;XN.3 & ^ t.0.S , 3 9 D T P L L x 7 3 * 4 S 3.pXpXpXpXpXpXpXpXpXpXpXpXk @   pXpXpXpXpXpXpX",
"pXpXpXpXpXpXpXpXpXpXpXpXpXpXpXpXpXpXpX*Xz.3 * j 5.K.4.5 * d J -.4.a.T x 8 3 & 3 7 A pXpXpXpXpXpXpXpXpXpX9.O.. pXpXpXpXpXpXpXpXpX",
"pXpXpXpXpXpXpXpXpXpXpXpXpXpXpXpXpXpX&X*Xz.; j B.K.r.O.5 % h O.O.J L F 8 7 3 & > 6 A #.pXpXY.Y.|.U.S.9.S @ pXpXpXpXpXpXpXpXpXpXpX",
"pXpXpXpXpXpXpXpXpXpXpXpXpXpXpXpXpXpX=X>X8.q 8.:XV.$.] e e ) ..! 5 D F 9 7 3 w , $ 2 p pXpXA.r.e.9.[ 6 pXpXpXpXpXpXpXpXpXpXpXpXpX",
"pXpXpXpXpXpXpXpXpXpXpXpXpXpXpXpXpXpX=X>X8.j Q.9XI.o.-.*.N Q p w b E R m 3 s %.+.w & 0 [ 3.6.6.#.' pXpXpXpXpXpXpXpXpXpXpXpXpXpXpX",
"pXpXpXpXpXpXpXpXpXpXpXpXpXpXpXpXpXpX=X>X2.1.+X9XOX8.g.g.| s q y F j.a.D - ' {.}.+.e v 7 5 ) &.#.pXpXpXpXpXpXpXpXpXpXpXpXpXpXpXpX",
"pXpXpXpXpXpXpXpXpXpXpXpXpXpXpXpXpXpX=X*X2.B.5X4X X1.<.k.P u b V H a.k.D ; @.{.Y...q r i ( pX..A pXpXpXpXpXpXpXpXpXpXpXpXpXpXpXpX",
"pXpXpXpXpXpXpXpXpXpXpXpXpXpXpXpXpXpX;X=Xx.Q.6X&X5.h C V b q V U H E j.D r ! q.1.) 0 w [ ( pXpXpXpXpXpXpXpXpXpXpXpXpXpXpXpXpXpXpX",
"pXpXpXpXpXpXpXpXpXpXpXpXpXpXpXpXpXpX;X~.^.4X5X^.6.j e q 4 u Y Y U :.j.D r ; Q pXpXpXpXpXpXpXpXpXpXpXpXpXpXpXpXpXpXpXpXpXpXpXpXpX",
"pXpXpXpXpXpXpXpXpXpXpXpXpXpXpXpXpXpX*X~.:X3X@XK.} e q r t J Y H H k.k.S r ; w pXpXpXpXpXpXpXpXpXpXpXpXpXpXpXpXpXpXpXpXpXpXpXpXpX",
"pXpXpXpXpXpXpXpXpXpXpXpXpXpXpXpXpXpX'.oX-X}.t.X.s 5 u t C E H H H j.Y y t 0 & ( pXpXpXpXpXpXpXpXpXpXpXpXpXpXpXpXpXpXpXpXpXpXpXpX",
"pXpXpXpXpXpXpXpXpXpXpXpXpXpXpXpXpXpX&X9X<XP.X.e 0 r t v g.;.=.;.H U u 0 t 0 & f pXpXpXpXpXpXpXpXpXpXpXpXpXpXpXpXpXpXpXpXpXpXpXpX",
"pXpXpXpXpXpXpXpXpXpXpXpXpXpXpXpXpXpXoX9X@Xy.] a 0 t t P k.h.,.4.m y r r t ; 3 * a pXpXpXpXpXpXpXpXpXpXpXpXpXpXpXpXpXpXpXpXpXpXpX",
"pXpXpXpXpXpXpXpXpXpXpXpXpXpXpXpXpX XXX@Xy.X.O.f q r n :.m.n.h.R v t u r t 0 0 q p pXpXpXpXpXpXpXpXpXpXpXpXpXpXpXpXpXpXpXpXpXpXpX",
"pXpXpXpXpXpXpXpXpXpXpXpXpXpXpXpXpX#X Xe.! ` | a q C P Y n.R.l.:.v C n r r 3 0 r i pXpXpXpXpXpXpXpXpXpXpXpXpXpXpXpXpXpXpXpXpXpXpX",
"pXpXpXpXpXpXpXpXpXpXpXpXpXpXpXpXpX}.%.` 1.` N 0 b g.P *.R.R.l.E n Z n r t 3 , ; ! pXpXpXpXpXpXpXpXpXpXpXpXpXpXpXpXpXpXpXpXpXpXpX",
"pXpXpXpXpXpXpXpXpXpXpXpXpXpXpXpXA.' ] Q. X..| s Y h.>.x.'.E.l.E C C v t t * w w p pXpXpXpXpXpXpXpXpXpXpXpXpXpXpXpXpXpXpXpXpXpXpX",
"pXpXpXpXpXpXpXpXpXpXpXpXpXpXpXe.Q &.XXwXXX] N d =.,.z.n.].R.v.:.u 0 r t u % ! ' Q pXpXpXpXpXpXpXpXpXpXpXpXpXpXpXpXpXpXpXpXpXpXpX",
"pXpXpXpXpXpXpXpXpXpXpXpXpX/.9.h e. X6XwXI.| e e >.,.x.b.'.n.G.h.3 & 4 t t * @.%.& pXpXpXpXpXpXpXpXpXpXpXpXpXpXpXpXpXpXpXpXpXpXpX",
"pXpXpXpXpXpXpXpXpXpXpXpX(.T 9 3.#XQ.1XqXB.| 0 i 2.l.l.G.].G.G.4., > , q ; Q e.[ % pXpXpXpXpXpXpXpXpXpXpXpXpXpXpXpXpXpXpXpXpXpXpX",
"pXpXpXpXpXpXpXpXpXpXpX_.i.D pXpXK.!.1X&X1.f - e 7.l.b.b.v.G.l.O.a > , 3 = / pX# pXpXpXpXpXpXpXpXpXpXpXpXpXpXpXpXpXpXpXpXpXpXpXpX",
"pXpXpXpXpXpXpXpXpXpX).s.W pXpXpXB.:XOX6.` s - j v.l.b.b.M -.J e.[ & , > O pXpXpXpXpXpXpXpXpXpXpXpXpXpXpXpXpXpXpXpXpXpXpXpXpXpXpX",
"pXpXpXpXpXpXpXpXpX`.s.W pXpXpXpX^.qXU.g , %.Q i v.n.T.J.j $.] {.' & > 1 pXpXpXpXpXpXpXpXpXpXpXpXpXpXpXpXpXpXpXpXpXpXpXpXpXpXpXpX",
"pXpXpXpXpXpXpXpX[.f.z pXpXpXpXpX+X^.#.( - q.|.{. XE.m.k.1.pXpXpX^ & > > pXpXpXpXpXpXpXpXpXpXpXpXpXpXpXpXpXpXpXpXpXpXpXpXpXpXpXpX",
"pXpXpXpXpXpXpXpXD.z pXpXpXpXpXpXK.#.#.A > Z.pXpXiX X7.6.pXpXpXpXa $ > > # pXpXpXpXpXpXpXpXpXpXpXpXpXpXpXpXpXpXpXpXpXpXpXpXpXpXpX",
"pXpXpXpXpXpXpXJ.z pXpXpXpXpXpXpX~ ^ =.N Q $XpXpXpXpXpXpXpXpXpXpXa $ > , & O pXpXpXpXpXpXpXpXpXpXpXpXpXpXpXpXpXpXpXpXpXpXpXpXpXpX",
"pXpXpXpXpXpX`.K pXpXpXpXpXpXpXpX` <.M.M.*.pXpXpXpXpXpXpXpXpXpXpX2 $ , , * & 3 = pXpXpXpXpXpXpXpXpXpXpXpXpXpXpXpXpXpXpXpXpXpXpXpX",
"pXpXpXpXpXpXR K pXpXpXpXpXpXpXpXj W p.M.c #.pXpXpXpXpXpXpXpXpXpX, # % > % , ; : o . pXpXpXpXpXpXpXpXpXpXpXpXpXpXpXpXpXpXpXpXpXpX",
"pXpXpXpXpXpXpXpXpXpXpXpXpXpXpXpXpX-.z.8. .pXpXpXpXpXpXpXpXpXpXpX% X O O O O # = o +   pXpXpXpXpXpXpXpXpXpXpXpXpXpXpXpXpXpXpXpXpX",
"pXpXpXpXpXpXpXpXpXpXpXpXpXpXpXpXpXpXpXpXpXpXpXpXpXpXpXpXpXpXpXpXpXpXpXpXpXpXpXpXpXpXpXpXpXpXpXpXpXpXpXpXpXpXpXpXpXpXpXpXpXpXpXpX",
"pXpXpXpXpXpXpXpXpXpXpXpXpXpXpXpXpXpXpXpXpXpXpXpXpXpXpXpXpXpXpXpXpXpXpXpXpXpXpXpXpXpXpXpXpXpXpXpXpXpXpXpXpXpXpXpXpXpXpXpXpXpXpXpX",
"pXpXpXpXpXpXpXpXpXpXpXpXpXpXpXpXpXpXpXpXpXpXpXpXpXpXpXpXpXpXpXpXpXpXpXpXpXpXpXpXpXpXpXpXpXpXpXpXpXpXpXpXpXpXpXpXpXpXpXpXpXpXpXpX",
"pXpXpXpXpXpXpXpXpXpXpXpXpXpXpXpXpXpXpXpXpXpXpXpXpXpXpXpXpXpXpXpXpXpXpXpXpXpXpXpXpXpXpXpXpXpXpXpXpXpXpXpXpXpXpXpXpXpXpXpXpXpXpXpX",
"pXpXpXpXpXpXpXpXpXpXpXpXpXpXpXpXpXpXpXpXpXpXpXpXpXpXpXpXpXpXpXpXpXpXpXpXpXpXpXpXpXpXpXpXpXpXpXpXpXpXpXpXpXpXpXpXpXpXpXpXpXpXpXpX",
"pXpXpXpXpXpXpXpXpXpXpXpXpXpXpXpXpXpXpXpXpXpXpXpXpXpXpXpXpXpXpXpXpXpXpXpXpXpXpXpXpXpXpXpXpXpXpXpXpXpXpXpXpXpXpXpXpXpXpXpXpXpXpXpX"
};
