/* XPM */
static char *result[] = {
/* columns rows colors chars-per-pixel */
"64 64 227 2 ",
"   c #010105",
".  c #0B0505",
"X  c #0D0A07",
"o  c #04050A",
"O  c #0C070A",
"+  c #0B0A0B",
"@  c #07090C",
"#  c #150C09",
"$  c #1B0E0A",
"%  c #120606",
"&  c #15120C",
"*  c #1C140C",
"=  c #1D190D",
"-  c #070A12",
";  c #0B0C14",
":  c #0C0C1B",
">  c #080615",
",  c #150812",
"<  c #0D1116",
"1  c #0E151C",
"2  c #1C1914",
"3  c #13151D",
"4  c #161919",
"5  c #240D0D",
"6  c #23140E",
"7  c #241A0C",
"8  c #2A1D0D",
"9  c #2C110D",
"0  c #35180F",
"q  c #251512",
"w  c #221B14",
"e  c #2C1C13",
"r  c #2C1B19",
"t  c #321E1A",
"y  c #361C16",
"u  c #1C221D",
"i  c #2A200F",
"p  c #252315",
"a  c #2B2314",
"s  c #24221A",
"d  c #2C2419",
"f  c #2E2B1D",
"g  c #2F2B15",
"h  c #322415",
"j  c #3C2414",
"k  c #352A14",
"l  c #3E2C14",
"z  c #35231B",
"x  c #3D251B",
"c  c #332C1B",
"v  c #3B2B1B",
"b  c #3B341E",
"n  c #373118",
"m  c #0D0E22",
"M  c #0F1426",
"N  c #111223",
"B  c #151C24",
"V  c #171B2C",
"C  c #191D2D",
"Z  c #151728",
"A  c #1A1E34",
"S  c #151632",
"D  c #162124",
"F  c #1B2524",
"G  c #18222C",
"H  c #1C2334",
"J  c #1D243B",
"K  c #1B2930",
"L  c #242422",
"P  c #2B2C25",
"I  c #2B2B29",
"U  c #25272A",
"Y  c #3C2C22",
"T  c #322D2A",
"R  c #332A22",
"E  c #2A322C",
"W  c #3A3323",
"Q  c #34332D",
"!  c #3B332A",
"~  c #35392D",
"^  c #3B382C",
"/  c #393723",
"(  c #272B36",
")  c #243134",
"_  c #25343A",
"`  c #283839",
"'  c #3C3A34",
"]  c #3E3D3A",
"[  c #383633",
"{  c #422513",
"}  c #42241A",
"|  c #432C19",
" . c #423115",
".. c #44351B",
"X. c #4C3518",
"o. c #53391B",
"O. c #52341A",
"+. c #4D2E17",
"@. c #442A20",
"#. c #482E24",
"$. c #453424",
"%. c #4C3324",
"&. c #443C23",
"*. c #4A3E23",
"=. c #43352A",
"-. c #4B3C2A",
";. c #45392C",
":. c #5A3828",
">. c #4C3D32",
",. c #473F3B",
"<. c #6E3F30",
"1. c #38423F",
"2. c #5C431C",
"3. c #54421A",
"4. c #48411D",
"5. c #6B4D1F",
"6. c #4D4424",
"7. c #4B432B",
"8. c #46412A",
"9. c #524424",
"0. c #534A2C",
"q. c #5A4C2A",
"w. c #554927",
"e. c #5C552D",
"r. c #55512D",
"t. c #44433C",
"y. c #4A4636",
"u. c #554D33",
"i. c #544E3D",
"p. c #584D3C",
"a. c #554733",
"s. c #5C5435",
"d. c #5B543B",
"f. c #575339",
"g. c #66432E",
"h. c #674928",
"j. c #63542D",
"k. c #695128",
"l. c #745328",
"z. c #674832",
"x. c #744632",
"c. c #645635",
"v. c #6B5531",
"b. c #6A5937",
"n. c #755D37",
"m. c #69623A",
"M. c #73653D",
"N. c #7A6339",
"B. c #1F2740",
"V. c #252D4B",
"C. c #212742",
"Z. c #2B3945",
"A. c #383B49",
"S. c #2F3C5F",
"D. c #374644",
"F. c #3A524F",
"G. c #394855",
"H. c #3B5551",
"J. c #2D4440",
"K. c #324166",
"L. c #454543",
"P. c #4A4944",
"I. c #4D4D4C",
"U. c #484741",
"Y. c #524E42",
"T. c #584E49",
"R. c #4F504F",
"E. c #5D5445",
"W. c #595547",
"Q. c #475855",
"!. c #565553",
"~. c #5A5754",
"^. c #5C5B54",
"/. c #5C5C5A",
"(. c #655B45",
"). c #645C4B",
"_. c #685746",
"`. c #685E58",
"'. c #4B635A",
"]. c #696344",
"[. c #686148",
"{. c #78644A",
"}. c #696559",
"|. c #746D57",
" X c #7E7251",
".X c #4C6863",
"XX c #516B62",
"oX c #5B7369",
"OX c #59756B",
"+X c #587970",
"@X c #6C6C6B",
"#X c #656766",
"$X c #726E67",
"%X c #76726A",
"&X c #7A7770",
"*X c #7C7A75",
"=X c #7D7D7B",
"-X c #6C7472",
";X c #815238",
":X c #976D2C",
">X c #8B6736",
",X c #916B37",
"<X c #997034",
"1X c #805942",
"2X c #906044",
"3X c #867759",
"4X c #82685A",
"5X c #887965",
"6X c #917362",
"7X c #698A7B",
"8X c #648577",
"9X c #9A8458",
"0X c #A48C5A",
"qX c #8C856E",
"wX c #8F886B",
"eX c #9D8B68",
"rX c #9F916F",
"tX c #82817C",
"yX c #968B73",
"uX c #9F9170",
"iX c #AA8F67",
"pX c #B59563",
"aX c #A69376",
"sX c #AF986D",
"dX c #759684",
"fX c #93938B",
"gX c None",
/* pixels */
"gXgXgXgXgXgXgXgXgXgXgXgXgXgXgXgXgXgXgXgXgXgXgXgXgXgXgXgXgXgXgXgXgXgXgXgXgXgXgXgXgXgXgXgXgXgXgXgXgXgXgXgXgXgXgXgXgXgXgXgXgXgXgXgX",
"gXgXgXgXgXgXgXgXgXgXgXgXgXgXgXgXgXgXgXgXgXgXgXgXgXgXgXgXgXgXgXgXgXgXgXgXgXgXgXgXgXgXgXgXgXgXgXgXgXgXgXgXgXgXgXgXgXgXgXgXgXgXgXgX",
"gXgXgXgXgXgXgXgXgXgXgXgXgXgXgXgXgXgXgXgXgXgXgXgXgXgXgXgXgXgXgXgXgXgXgXgXgXgXgXgXgXgXgXgXgXgXgXgXgXgXgXgXgXgXgXgXgXgXgXgXgXgXgXgX",
"gXgXgXgXgXgXgXgXgXgXgXgXgXgXgXgXgXgXgXgXgXgXgXgXgXgXgXgXgXgXgXgXgXgXgXgXgXgXgXgXgXgXgXgXgXgXgXgXgXgXgXgXgXgXgXgXgXgXgXgXgXgXgXgX",
"gXgXgXgXgXgXgXgXgXgXgXgXgXgXgXgXgXgXgXgXgXgXgXgXgXgXgXgXgXgXgXgXgXgXgXgXgXgXgXgXgXgXgXgXgXgXgXgXgXgXgXgXgXgXgXgXgXgXgXgXgXgXgXgX",
"gXgXgXgXgXgXgXgXgXgXgXgXgXgXgXgXgXgXgXgXgXgXgXgXgXgXgXgXgXgXgXgXgXgXgXgXgXgXgXgXgXgXgXgXgXgXgXgXgXgXgXgXgXgXgXgXgXgXgXgXgXgXgXgX",
"gXgXgXgXgXgXgXgXgXgXgXgXgXgXgXgXgXgXgXgXgXgXgXgXgXgXgXgXgXgXgXgXgXgXgXgXgXgXgXgXgXgXgXgXgXgXt.L.gXgXgXgXgXgXgXgXgXgXgXgXgXgXgXgX",
"gXgXgXgXgXgXgXgXgXgXgXgXgXgXgXgXgXgXgXgXgXgXgXgXgXgXgXgXgXgXgXgXgXgXgXgXgXgXgXgXgXgXgXgXgXgX}.fXgXgXgXgXgXgXgXgXgXgXgXgXgXgXgXgX",
"gXgXgXgXgXgXgXgXgXgXgXgXgXgXgXgXgXgXgXgXgXgXgXgXgXgXgXgXgXgXgXgXgXgXgXgXgXgXgXgXgXgXgXgXgXgX).*XL.gXgXgXgXgXgXgXgXgXgXgXgXgXgXgX",
"gXgXgXgXgXgXgXgXgXgXgXgXgXgXgXgXgXgXgXgXgXgXgXgXgXgXgXgXgXgXgXgXgXgXgXgXgXgXgXgXgXgXgXgXgXgXE.@XA.gXgXgXgXgXgXgXgXgXgXgXgXgXgXgX",
"gXgXgXgXgXgXgXgXgXgXgXgXgXgXgXgXgXgXgXgXgXgXgXgXgXgXgXgXgXgXgXgXC C gXgXgXgXgXgXgXgXgXgXgXc ).tXi.g gXgXgXgXgXgXgXgXgXgXgXgXgXgX",
"gXgXgXgXgXgXgXgXgXgXgXgXgXgXgXgXgXgXgXgXgXgXgXgXgXgXgXgXgXgXgX> C.A.}.gXgXgXgXgXgXgXgXgXk ..).tXi.n gXgXgXgXgXgXgXgXgXgXgXgXgXgX",
"gXgXgXgXgXgXgXgXgXgXgXgXgXgXgXgXgXgXgXgXgXgXgXgXgXgXgXgXgXgXN S m Y.9X}.gXgXgXgXgXgXgXgXgXgX).tXP.gXgXgXgXgXgXgXgXgXgXgXgXgXgXgX",
"gXgXgXgXgXgXgXgXgXgXgXgXgXgXgXgXgXgXgXgXgXgXgXgXgXgXgXgXgX3 m L p.).{.|.Y.gXgXgXgXgXgXgXgXgX).*XI.gXgXgXgXgXgXgXgXgXgXgXgXgXgXgX",
"gXgXgXgXgXgXgXgXgXgXgXgXgXgXgXgXgXgXgXgXgXgXgXgXgXgXgXgXgXo e  .c.d.7.d.f.gXgXgXgXgXgXgXgXgXE.%XP.gXgXgXgXgXgXgXgXgXgXgXgXgXgXgX",
"gXgXgXgXgXgXgXgXgXgXgXgXgXgXgXgXgXgXgXgXgXgXgXgXgXgXgXgXgX; 7  .a 7.(.d.f gXgXgXgXgXgXgXgXgX).%XU.gXgXgXgXgXgXgXgXgXgXgXgXgXgXgX",
"gXgXgXgXgXgXgXgXgXgXgXgXgXgXgXgXgXgXgXgXgXgXgXgXgXgXgXgX: > * X.$ I }.T.t.gXgXgXgXgXgXgXgXgX_.&XP.gXgXgXgXgXgXgXgXgXgXgXgXgXgXgX",
"gXgXgXgXgXgXgXgXgXgXgXgXgXgXgXgXgXgXgXgXgXgXgXgXgXgXgX@ > > 2 ..#.{.c.(.R gXgXgXgXgXgXgXgXgX(.&XP.gXgXgXgXgXgXgXgXgXgXgXgXgXgXgX",
"gXgXgXgXgXgXgXgXgXgXgXgXgXgXgXgXgXgXgXgXgXgXgXgXgXgX; : V N + 7 r _.>.=.B ( gXgXgXgXgXgXgXgXY.$XU.gXgXgXgXgXgXgXgXgXgXgXgXgXgXgX",
"gXgXgXgXgXgXgXgXgXgXgXgXgXgXgXgXgXgXgXgXgXgXgXgX> m M V.C.A C .   . d $ ; K./.1.gXgXgXgXgXgXT.-XU.gXgXgXgXgXgXgXgXgXgXgXgXgXgXgX",
"gXgXgXgXgXgXgXgXgXgXgXgXgXgXgXgXgXgXgXgXgXgXgX# a 8.T A V.J ( H .   . % N S.yX|.* gXgXgXgXgX).5XI.gXgXgXgXgXgXgXgXgXgXgXgXgXgXgX",
"gXgXgXgXgXgXgXgXgXgXgXgXgXgXgXgXgXgXgXgXgXgX- : U A.W.E.H V.V.V C ;   . ( G.qXi.~ gXgXgXgXgX).tXR.gXgXgXgXgXgXgXgXgXgXgXgXgXgXgX",
"gXgXgXgXgXgXgXgXgXgXgXgXgXgXgXgXgXgXgXgXgXgX: > : V N U d.T C H V V B H C.A.].U.^.gXgXgXgXgX_.dXI.gXgXgXgXgXgXgXgXgXgXgXgXgXgXgX",
"gXgXgXgXgXgXgXgXgXgXgXgXgXgXgXgXgXgXgXgXgXgX; Q @XL.B - & 6.W 4 H A J B.( s.1.U D.gXgXgXgXgXT.*XI.gXgXgXgXgXgXgXgXgXgXgXgXgXgXgX",
"gXgXgXgXgXgXgXgXgXgXgXgXgXgXgXgXgXgXgXgXgXI ~.}.%X#XJ.:   = 4.g @ > B L b 8.& H.7XU.gXgXgXgX).*XP.gXgXgXgXgXgXgXgXgXgXgXgXgXgXgX",
"gXgXgXgXgXgXgXgXgXgXgXgXgXgXgXgXgXgXgX] L.W.T :.`.-X) o   X n 9.7.p.[.6.e.w   _ +X-XgXgXgXgX^.5XI.gXgXgXgXgXgXgXgXgXgXgXgXgXgXgX",
"gXgXgXgXgXgXgXgXgXgXgXgXgXgXgXgXgXgX@X`.R j { x.4X=X<     + 4 T ^ p c 6.w..   @ E D.L gXgXgXE.&XL.gXgXgXgXgXgXgXgXgXgXgXgXgXgXgX",
"gXgXgXgXgXgXgXgXgXgXgXgXgXgXgXgXgXgX/.R 0 O.k.g.6X@X+   o 3 1 B 4 P e.f.s     B _ 4 I gXgXs i.}.] gXgXgXgXgXgXgXgXgXgXgXgXgXgXgX",
"gXgXgXgXgXgXgXgXgXgXgXgXgXgXgXgXgXgX!.z j y k.%.6X@X+     1 1 B f m.e.y.D.    - 7 5.rXI.[ q.9.b.s.w p c gXgXgXgXgXgXgXgXgXgXgXgX",
"gXgXgXgXgXgXgXgXgXgXgXgXgXgXgXgXgXgX!.z +.O.h.} 6X#X+     O , r 4./ -.>.b $   X +.5.9.q.^ L b -.2 gXgXgXgXgXgXgXgXgXgXgXgXgXgXgX",
"gXgXgXgXgXgXgXgXgXgXgXgXgXgXgXgXgXgX~.z { o.M.:.6XXXO   . % , q k ' ~.~.Y z gXgX .8 {  .6.W >.p.! gXgXgXgXgXgXgXgXgXgXgXgXgXgXgX",
"gXgXgXgXgXgXgXgXgXgXgXgXgXgXgXgXgXgX!.z { | -.g.{.#X>   . 5 5 } g.! -.P.<.;Xh gXgXgX7 $ 6 a.>.y.! gXgXgXgXgXgXgXgXgXgXgXgXgXgXgX",
"gXgXgXgXgXgXgXgXgXgXgXgXgXgXgXgXgXgX!.t { *.} 2X$XI.    * a = a j [ T./.Y v w gXgXgXgX. # d e >.! gXgXgXgXgXgXgXgXgXgXgXgXgXgXgX",
"gXgXgXgXgXgXgXgXgXgXgXgXgXgXgXgXgXgX!.t { | x.1X$X4   & 0.u.6.M.p *.&.3X(.8.d.s.0.gXgXgXgX. 6 f gXgXgXgXgXgXgXgXgXgXgXgXgXgXgXgX",
"gXgXgXgXgXgXgXgXgXgXgXgXgXgXgXgXgXgX^.=.{ y x._.~.    ..c.q.e.c p  Xc.{.wX|.Y j.c./ gXgXgXgX$.f.gXgXgXgXgXgXgXgXgXgXgXgXgXgXgXgX",
"gXgXgXgXgXgXgXgXgXgXgXgXgXgXgXgXgXgX!.,.0 } <.&X[   7 j.q.w.~ ` P 3Xb.N.qXwX~ u 6.s./ gXgXgXi.^.gXgXgXgXgXgXgXgXgXgXgXgXgXgXgXgX",
"gXgXgXgXgXgXgXgXgXgXgXgXgXgXgXgXgXgXgXL.9 :._./.  X l o.9.U F.K ' 3Xv.k.5XyX] H.~ / 6.gXgXp w.s.p gXgXgXgXgXgXgXgXgXgXgXgXgXgXgX",
"gXgXgXgXgXgXgXgXgXgXgXgXgXgXgXgXgXgXgXW.y } %XU   X k n P G.XX1 ] 6Xn.>X5XaXU..XXX~ gXgXgXa *.p.gXgXgXgXgXgXgXgXgXgXgXgXgXgXgXgX",
"gXgXgXgXgXgXgXgXgXgXgXgXgXgXgXgXgXgXgX~.r W.@X@     . 1 _ OXH.D Q 3Xn.>X5XiXL..X8XoXF gXgXgX7.W.gXgXgXgXgXgXgXgXgXgXgXgXgXgXgXgX",
"gXgXgXgXgXgXgXgXgXgXgXgXgXgXgXgXgXgXgXR.T.fXI       < ) H.7XXX) f 4Xn.>XpXiX] _ oXdXoXgXgXgXj.5XgXgXgXgXgXgXgXgXgXgXgXgXgXgXgXgX",
"gXgXgXgXgXgXgXgXgXgXgXgXgXgXgXgXgXgXgX' tX`.@     o _ _ OX8XD.F @ 6.k.l.pXsX1.- Z.OXdXQ.gXgXgXgXgXgXgXgXgXgXgXgXgXgXgXgXgXgXgXgX",
"gXgXgXgXgXgXgXgXgXgXgXgXgXgXgXgXgXgXgXN I @       < ) _ 1.F.J.D.  6.k.l.pXeXR D K 1.7X'.F gXgXgXgXgXgXgXgXgXgXgXgXgXgXgXgXgXgXgX",
"gXgXgXgXgXgXgXgXgXgXgXgXgXgXgXgXgXgX1 m o         4 Y.).i.) '.u   ^ z.N.rXf.  3 K ` ` f.E.s gXgXgXgXgXgXgXgXgXgXgXgXgXgXgXgXgXgX",
"gXgXgXgXgXgXgXgXgXgXgXgXgXgXgXgXgX: :           b r.&.u.M.~ D     & 9.(.iXy.    D D c e.f.d.gXgXgXgXgXgXgXgXgXgXgXgXgXgXgXgXgXgX",
"gXgXgXgXgXgXgXgXgXgXgXgXgXgXgX: H H o         e X.k >XuXc s.f       & 9.b.@   @ 4 u.*.h.3X7.gXgXgXgXgXgXgXgXgXgXgXgXgXgXgXgXgXgX",
"gXgXgXgXgXgXgXgXgXgXgXgXgXgX; S A >         2 ..6 O.,XaXx c m.@       f u     7 6.q.2.:X0X*.gXgXgXgXgXgXgXgXgXgXgXgXgXgXgXgXgXgX",
"gXgXgXgXgXgXgXgXgXgXgXgXgX: S M o           = 7 # o.<X9Xz = s.@             8  .q.* 5.:X0XY gXgXgXgXgXgXgXgXgXgXgXgXgXgXgXgXgXgX",
"gXgXgXgXgXgXgXgXgXgXgXgX@ M m :               7 $ e %.-.e l &               = l k e 7 o.9.& gXgXgXgXgXgXgXgXgXgXgXgXgXgXgXgXgXgX",
"gXgXgXgXgXgXgXgXgXgXgXgX: :   o gXgX          . z @.#.#.z +               gXr r q y Y e + gXgXgXgXgXgXgXgXgXgXgXgXgXgXgXgXgXgXgX",
"gXgXgXgXgXgXgXgXgXgXgXgXm o gXgXgXgXgX        . e t x t .               gXgXe t * t q # gXgXgXgXgXgXgXgXgXgXgXgXgXgXgXgXgXgXgXgX",
"gXgXgXgXgXgXgXgXgXgXgXgX> gXgXgXgXgXgXgX      q q x e #                 gXgX* #.} z gXgXgXgXgXgXgXgXgXgXgXgXgXgXgXgXgXgXgXgXgXgX",
"gXgXgXgXgXgXgXgXgXgXgXgX  gXgXgXgXgXgXgXgXgX. q <.x q gX          o   gXgXgXq $ @.=.gXgXgXgXgXgXgXgXgXgXgXgXgXgXgXgXgXgXgXgXgXgX",
"gXgXgXgXgXgXgXgXgXgXgXgXgXgXgXgXgXgXgXgXgXgX& Y c.t gXgXgX.           gXgXgXq $ @.a.y.gXgXgXgXgXgXgXgXgXgXgXgXgXgXgXgXgXgXgXgXgX",
"gXgXgXgXgXgXgXgXgXgXgXgXgXgXgXgXgXgXgXgXgXgX;.[.].s gXgXgXgXgXgXgX    gXgXT O 6 o.].3Xd.7.gXgXgXgXgXgXgXgXgXgXgXgXgXgXgXgXgXgXgX",
"gXgXgXgXgXgXgXgXgXgXgXgXgXgXgXgXgXgXgXgXgXgX*.u.c.y.gXgXgXgXgXgXgXgXgXgXgXQ . 8 2.3.c.s.].^ gXgXgXgXgXgXgXgXgXgXgXgXgXgXgXgXgXgX",
"gXgXgXgXgXgXgXgXgXgXgXgXgXgXgXgXgXgXgXgXgXk  .v.|.u.d gXgXgXgXgXgXgXgXgXgXgXr 6 * 6 6 c ].{.f.gXgXgXgXgXgXgXgXgXgXgXgXgXgXgXgXgX",
"gXgXgXgXgXgXgXgXgXgXgXgXgXgXgXgXgXgXgXgXgX& & 8 g w + gXgXgXgXgXgXgXgXgXgXgXq #   . $ # 7 d p @ gX].R.gXgXgXgXgXgXgXgXgXgXgXgXgX",
"gXgXgXgXgXgXgXgXgXgXgXgXgXgXgXgXgXgXgXgXgXgXgXgXgXgXgXgXgXgXgXgXgXgXgXgXgXgXgXgXgXgXgXgXgXgXgXgXgXgXgXgXgXgXgXgXgXgXgXgXgXgXgXgX",
"gXgXgXgXgXgXgXgXgXgXgXgXgXgXgXgXgXgXgXgXgXgXgXgXgXgXgXgXgXgXgXgXgXgXgXgXgXgXgXgXgXgXgXgXgXgXgXgXgXgXgXgXgXgXgXgXgXgXgXgXgXgXgXgX",
"gXgXgXgXgXgXgXgXgXgXgXgXgXgXgXgXgXgXgXgXgXgXgXgXgXgXgXgXgXgXgXgXgXgXgXgXgXgXgXgXgXgXgXgXgXgXgXgXgXgXgXgXgXgXgXgXgXgXgXgXgXgXgXgX",
"gXgXgXgXgXgXgXgXgXgXgXgXgXgXgXgXgXgXgXgXgXgXgXgXgXgXgXgXgXgXgXgXgXgXgXgXgXgXgXgXgXgXgXgXgXgXgXgXgXgXgXgXgXgXgXgXgXgXgXgXgXgXgXgX",
"gXgXgXgXgXgXgXgXgXgXgXgXgXgXgXgXgXgXgXgXgXgXgXgXgXgXgXgXgXgXgXgXgXgXgXgXgXgXgXgXgXgXgXgXgXgXgXgXgXgXgXgXgXgXgXgXgXgXgXgXgXgXgXgX",
"gXgXgXgXgXgXgXgXgXgXgXgXgXgXgXgXgXgXgXgXgXgXgXgXgXgXgXgXgXgXgXgXgXgXgXgXgXgXgXgXgXgXgXgXgXgXgXgXgXgXgXgXgXgXgXgXgXgXgXgXgXgXgXgX",
"gXgXgXgXgXgXgXgXgXgXgXgXgXgXgXgXgXgXgXgXgXgXgXgXgXgXgXgXgXgXgXgXgXgXgXgXgXgXgXgXgXgXgXgXgXgXgXgXgXgXgXgXgXgXgXgXgXgXgXgXgXgXgXgX"
};
