/* XPM */
static char *result[] = {
/* columns rows colors chars-per-pixel */
"64 64 229 2 ",
"   c #050104",
".  c #04010C",
"X  c #0B060B",
"o  c #0C090C",
"O  c #0F0606",
"+  c #120B0D",
"@  c #160A0A",
"#  c #15100D",
"$  c #1C120D",
"%  c #090612",
"&  c #0B0A13",
"*  c #0D0D1A",
"=  c #070511",
"-  c #110D13",
";  c #160D18",
":  c #0F121C",
">  c #141314",
",  c #1C1411",
"<  c #1E1912",
"1  c #11121D",
"2  c #18191C",
"3  c #23190E",
"4  c #21160D",
"5  c #251412",
"6  c #281612",
"7  c #241B13",
"8  c #2B1C14",
"9  c #241E18",
"0  c #331C16",
"q  c #341F1B",
"w  c #361B15",
"e  c #2D2415",
"r  c #24231B",
"t  c #2C251B",
"y  c #2B281C",
"u  c #332516",
"i  c #332A16",
"p  c #35221B",
"a  c #3C241C",
"s  c #342C1D",
"d  c #3D2A1E",
"f  c #392D16",
"g  c #3D3218",
"h  c #34311C",
"j  c #110F23",
"k  c #131324",
"l  c #141B23",
"z  c #1A1C24",
"x  c #16152C",
"c  c #1B1E2E",
"v  c #141F2B",
"b  c #1A1C32",
"n  c #1B2324",
"m  c #1A232A",
"M  c #1E282C",
"N  c #1D2234",
"B  c #1C2338",
"V  c #232424",
"C  c #2C2B25",
"Z  c #2D2C2A",
"A  c #272826",
"S  c #352522",
"D  c #3D2B23",
"F  c #362C25",
"G  c #3C3323",
"H  c #33312C",
"J  c #3C322C",
"K  c #3B392C",
"L  c #353628",
"P  c #222333",
"I  c #232E33",
"U  c #21253A",
"Y  c #24293C",
"T  c #2C2A30",
"R  c #302F35",
"E  c #263334",
"W  c #26333A",
"Q  c #29363D",
"!  c #2B3A3A",
"~  c #293337",
"^  c #333232",
"/  c #3D3A33",
"(  c #3E3D3A",
")  c #393835",
"_  c #2C372C",
"`  c #432C16",
"'  c #432A1B",
"]  c #42251E",
"[  c #433217",
"{  c #44351C",
"}  c #4B341B",
"|  c #4D371A",
" . c #543C1E",
".. c #55371C",
"X. c #422A22",
"o. c #492D23",
"O. c #423B24",
"+. c #4B3924",
"@. c #4B3C2B",
"#. c #463527",
"$. c #553724",
"%. c #4E3E34",
"&. c #403F39",
"*. c #443A30",
"=. c #4A421F",
"-. c #59431D",
";. c #4C4125",
":. c #4B432C",
">. c #4A442A",
",. c #544526",
"<. c #52452A",
"1. c #5B4E2C",
"2. c #554927",
"3. c #5A542D",
"4. c #4B4332",
"5. c #48463A",
"6. c #544B33",
"7. c #584D32",
"8. c #534E39",
"9. c #564738",
"0. c #565133",
"q. c #5B5334",
"w. c #5C553B",
"e. c #56513C",
"r. c #654927",
"t. c #65532E",
"y. c #69542A",
"u. c #75552C",
"i. c #6B4431",
"p. c #674831",
"a. c #734634",
"s. c #635634",
"d. c #61593B",
"f. c #6A5736",
"g. c #725839",
"h. c #676139",
"j. c #7B623D",
"k. c #72653E",
"l. c #232A43",
"z. c #272E4D",
"x. c #2B3645",
"c. c #373E47",
"v. c #2B3351",
"b. c #3C3D50",
"n. c #323E60",
"m. c #324443",
"M. c #3C4945",
"N. c #354548",
"B. c #3C5352",
"V. c #3D5C54",
"C. c #3B445B",
"Z. c #354267",
"A. c #414242",
"S. c #494641",
"D. c #4A4945",
"F. c #4C4C4A",
"G. c #444845",
"H. c #544E41",
"J. c #554F47",
"K. c #545142",
"L. c #5D5544",
"P. c #54524B",
"I. c #59534D",
"U. c #5E5A48",
"Y. c #4D4D51",
"T. c #435856",
"R. c #535352",
"E. c #595653",
"W. c #5C5B55",
"Q. c #5D5D5B",
"!. c #585758",
"~. c #645C4C",
"^. c #6A5C4C",
"/. c #685845",
"(. c #705D55",
"). c #44615C",
"_. c #54665B",
"`. c #6C6342",
"'. c #6C6349",
"]. c #666242",
"[. c #766846",
"{. c #69655A",
"}. c #7C6350",
"|. c #756D58",
" X c #787056",
".X c #4E6964",
"XX c #526C64",
"oX c #5C736A",
"OX c #57736A",
"+X c #5A7971",
"@X c #6D6D6C",
"#X c #666867",
"$X c #726E64",
"%X c #66786F",
"&X c #75726C",
"*X c #7A736A",
"=X c #7D7A74",
"-X c #777978",
";X c #81523A",
":X c #876639",
">X c #936D37",
",X c #976E33",
"<X c #805A44",
"1X c #916146",
"2X c #837452",
"3X c #8B7C5D",
"4X c #86745D",
"5X c #82685B",
"6X c #897A66",
"7X c #807E79",
"8X c #917463",
"9X c #698A7A",
"0X c #658577",
"qX c #86805D",
"wX c #9C8653",
"eX c #A48C5C",
"rX c #8C866E",
"tX c #998968",
"yX c #9F916F",
"uX c #84827D",
"iX c #958A73",
"pX c #AB9468",
"aX c #B49565",
"sX c #A49375",
"dX c #AD956F",
"fX c #759583",
"gX c #9D9D91",
"hX c #8A8985",
"jX c None",
/* pixels */
"jXjXjXjXjXjXjXjXjXjXjXjXjXjXjXjXjXjXjXjXjXjXjXjXjXjXjXjXjXjXjXjXjXjXjXjXjXjXjXjXjXjXjXjXjXjXjXjXjXjXjXjXjXjXjXjXjXjXjXjXjXjXjXjX",
"jXjXjXjXjXjXjXjXjXjXjXjXjXjXjXjXjXjXjXjXjXjXjXjXjXjXjXjXjXjXjXjXjXjXjXjXjXjXjXjXjXjXjXjXjXjXjXjXjXjXjXjXjXjXjXjXjXjXjXjXjXjXjXjX",
"jXjXjXjXjXjXjXjXjXjXjXjXjXjXjXjXjXjXjXjXjXjXjXjXjXjXjXjXjXjXjXjXjXjXjXjXjXjXjXjXjXjXjXjXjXjXjXjXjXjXjXjXjXjXjXjXjXjXjXjXjXjXjXjX",
"jXjXjXjXjXjXjXjXjXjXjXjXjXjXjXjXjXjXjXjXjXjXjXjXjXjXjXjXjXjXjXjXjXjXjXjXjXjXjXjXjXjXjXjXjXjXjXjXjXjXjXjXjXjXjXjXjXjXjXjXjXjXjXjX",
"jXjXjXjXjXjXjXjXjXjXjXjXjXjXjXjXjXjXjXjXjXjXjXjXjXjXjXjXjXjXjXjXjXjXjXjXjXjXjXjXjXjXjXjXjXjXjXjXjXjXjXjXjXjXjXjXjXjXjXjXjXjXjXjX",
"jXjXjXjXjXjXjXjXjXjXjXjXjXjXjXjXjXjXjXjXjXjXjXjXjXjXjXjXjXjXjXjXjXjXjXjXjXjXjXjXjXjXjXjXjXjXjXjXjXjXjXjXjXjXjXjXjXjXjXjXjXjXjXjX",
"jXjXjXjXjXjXjXjXjXjXjXjXjXjXjXjXF.A.jXjXjXjXjXjXjXjXjXjXjXjXjXjXjXjXjXjXjXjXjXjXjXjXjXjXjXjXjXjXjXjXjXjXjXjXjXjXjXjXjXjXjXjXjXjX",
"jXjXjXjXjXjXjXjXjXjXjXjXjXjXjXjXhX$XjXjXjXjXjXjXjXjXjXjXjXjXjXjXjXjXjXjXjXjXjXjXjXjXjXjXjXjXjXjXjXjXjXjXjXjXjXjXjXjXjXjXjXjXjXjX",
"jXjXjXjXjXjXjXjXjXjXjXjXjXjXjXA.=X~.jXjXjXjXjXjXjXjXjXjXjXjXjXjXjXjXjXjXjXjXjXjXjXjXjXjXjXjXjXjXjXjXjXjXjXjXjXjXjXjXjXjXjXjXjXjX",
"jXjXjXjXjXjXjXjXjXjXjXjXjXjXjX&.@XL.jXjXjXjXjXjXjXjXjXjXjXjXjXjXjXjXjXjXjXjXjXjXjXjXjXjXjXjXjXjXjXjXjXjXjXjXjXjXjXjXjXjXjXjXjXjX",
"jXjXjXjXjXjXjXjXjXjXjXjXjXjXi F.uX~.F jXjXjXjXjXjXjXjXjXjXjXb c jXjXjXjXjXjXjXjXjXjXjXjXjXjXjXjXjXjXjXjXjXjXjXjXjXjXjXjXjXjXjXjX",
"jXjXjXjXjXjXjXjXjXjXjXjXjXjXg e.uX'.O.f jXjXjXjXjXjXjXjXjX{.b.l.* jXjXjXjXjXjXjXjXjXjXjXjXjXjXjXjXjXjXjXjXjXjXjXjXjXjXjXjXjXjXjX",
"jXjXjXjXjXjXjXjXjXjXjXjXjXjXjXF.uX~.jXjXjXjXjXjXjXjXjXjX{.wXP.k b k jXjXjXjXjXjXjXjXjXjXjXjXjXjXjXjXjXjXjXjXjXjXjXjXjXjXjXjXjXjX",
"jXjXjXjXjXjXjXjXjXjXjXjXjXjXjXF.=X~.jXjXjXjXjXjXjXjXjXP.|.`.'.e.C k z jXjXjXjXjXjXjXjXjXjXjXjXjXjXjXjXjXjXjXjXjXjXjXjXjXjXjXjXjX",
"jXjXjXjXjXjXjXjXjXjXjXjXjXjXjXD.*XL.jXjXjXjXjXjXjXjXjX8.w.6.w.f.` 8 X jXjXjXjXjXjXjXjXjXjXjXjXjXjXjXjXjXjXjXjXjXjXjXjXjXjXjXjXjX",
"jXjXjXjXjXjXjXjXjXjXjXjXjXjXjXD.&X~.jXjXjXjXjXjXjXjXjXs w./.6.e { 7 * jXjXjXjXjXjXjXjXjXjXjXjXjXjXjXjXjXjXjXjXjXjXjXjXjXjXjXjXjX",
"jXjXjXjXjXjXjXjXjXjXjXjXjXjXjXF.=X~.jXjXjXjXjXjXjXjXjX5.P.{.C $ +., * 1 jXjXjXjXjXjXjXjXjXjXjXjXjXjXjXjXjXjXjXjXjXjXjXjXjXjXjXjX",
"jXjXjXjXjXjXjXjXjXjXjXjXjXjXjXD.*XU.jXjXjXjXjXjXjXjXjXH /.g.}.o.{ 9 % * & jXjXjXjXjXjXjXjXjXjXjXjXjXjXjXjXjXjXjXjXjXjXjXjXjXjXjX",
"jXjXjXjXjXjXjXjXjXjXjXjXjXjXjXS.$XH.jXjXjXjXjXjXjXjXU l *.%./.e 3 o k b : - jXjXjXjXjXjXjXjXjXjXjXjXjXjXjXjXjXjXjXjXjXjXjXjXjXjX",
"jXjXjXjXjXjXjXjXjXjXjXjXjXjXjXD.&XK.jXjXjXjXjXjX5.Q.Z.: $ p @   X b U l.v.x k & jXjXjXjXjXjXjXjXjXjXjXjXjXjXjXjXjXjXjXjXjXjXjXjX",
"jXjXjXjXjXjXjXjXjXjXjXjXjXjXjXF.=X~.jXjXjXjXjX<  XiXZ.1 @ O   o P Y l.v.P H 4.i # jXjXjXjXjXjXjXjXjXjXjXjXjXjXjXjXjXjXjXjXjXjXjX",
"jXjXjXjXjXjXjXjXjXjXjXjXjXjXjXY.hX'.jXjXjXjXjXK e.rXC.l.X   * b c z.v.P L.P.b.P 1 * jXjXjXjXjXjXjXjXjXjXjXjXjXjXjXjXjXjXjXjXjXjX",
"jXjXjXjXjXjXjXjXjXjXjXjXjXjXjXR.7X~.jXjXjXjXjXW.G.].c.z.B v b c P N H w.C k c j * 1 jXjXjXjXjXjXjXjXjXjXjXjXjXjXjXjXjXjXjXjXjXjX",
"jXjXjXjXjXjXjXjXjXjXjXjXjXjXjXF.-XU.jXjXjXjXjXM.A O.L.Y l.l.N N z G ;.$ * c M.@XR > jXjXjXjXjXjXjXjXjXjXjXjXjXjXjXjXjXjXjXjXjXjX",
"jXjXjXjXjXjXjXjXjXjXjXjXjXjXjXF.=X~.jXjXjXjXG.9XT.> >.G V z * & y ;.< . : m.oX&X#XE.Z jXjXjXjXjXjXjXjXjXjXjXjXjXjXjXjXjXjXjXjXjX",
"jXjXjXjXjXjXjXjXjXjXjXjXjXjXjXF.7X~.jXjXjXjX%X+XW . t 3.2.'.e.:.2.g o . = E %X(.$.J E.S.&.jXjXjXjXjXjXjXjXjXjXjXjXjXjXjXjXjXjXjX",
"jXjXjXjXjXjXjXjXjXjXjXjXjXjXjXG.=XL.jXjXjXA M._ & . X 2.<.s r K L n o . . * 7X5Xa.` ' X.{.@XjXjXjXjXjXjXjXjXjXjXjXjXjXjXjXjXjXjX",
"jXjXjXjXjXjXjXjXjXjXjXjXjXjXjX5.{.H.t jXjXZ 2 E n . . A q.3.C 2 v 1 2 X . * @X8Xp.t.$.w S Q.jXjXjXjXjXjXjXjXjXjXjXjXjXjXjXjXjXjX",
"jXjXjXjXjXjXjXjXjXjXjXjXh e 9 q.h.,.7./ F.sXr.8 & . . A.5.s.h.L n 1 k . . & @X8X$.y.d ' S !.jXjXjXjXjXjXjXjXjXjXjXjXjXjXjXjXjXjX",
"jXjXjXjXjXjXjXjXjXjXjXjXjXjXjX< >.{ C / 1.,.y.| o   $ G :.@.{ ;.e ; + . . * @X4Xo.r...| S E.jXjXjXjXjXjXjXjXjXjXjXjXjXjXjXjXjXjX",
"jXjXjXjXjXjXjXjXjXjXjXjXjXjXjXJ 9.%.J ;.} ` 8 ` jXjXp D W.E.&.u 8 ; @ X . % #X8Xr.g.$.` S W.jXjXjXjXjXjXjXjXjXjXjXjXjXjXjXjXjXjX",
"jXjXjXjXjXjXjXjXjXjXjXjXjXjXjX*.9.%.4.3 $ 5 jXjXjXp ;Xp.H.%.J i.X.5 5 + . % #X}.i.@.#.' D R.jXjXjXjXjXjXjXjXjXjXjXjXjXjXjXjXjXjX",
"jXjXjXjXjXjXjXjXjXjXjXjXjXjXjXJ 4.0 p @ O jXjXjXjX9 d D Q.E./ i 0 6 u $ . . F.*X1X] +.` S R.jXjXjXjXjXjXjXjXjXjXjXjXjXjXjXjXjXjX",
"jXjXjXjXjXjXjXjXjXjXjXjXjXjXjXjXF 9 o jXjXjXjX6.s.w.:.'.2XO.+.i k.<.q.0.# . 2 &X<Xa.| ' S E.jXjXjXjXjXjXjXjXjXjXjXjXjXjXjXjXjXjX",
"jXjXjXjXjXjXjXjXjXjXjXjXjXjXjXjXe.O.jXjXjXjXK s.t.L |.rX[.f. Xy F s.q.s.{ X . !.(.a.] ' *.W.jXjXjXjXjXjXjXjXjXjXjXjXjXjXjXjXjXjX",
"jXjXjXjXjXjXjXjXjXjXjXjXjXjXjXjXW.8.jXjXjX>.0.>.r / iXrXj.g.2XZ ! L 2.2.s.7 . ) *Xa.] w S.E.jXjXjXjXjXjXjXjXjXjXjXjXjXjXjXjXjXjX",
"jXjXjXjXjXjXjXjXjXjXjXjXjXjXjXt q.2.y jXjX>.O._ V.( iX6Xf.g.3X( m B.A 2. .g X X Q.^.$.6 S.jXjXjXjXjXjXjXjXjXjXjXjXjXjXjXjXjXjXjX",
"jXjXjXjXjXjXjXjXjXjXjXjXjXjXjXjXe.+.i jXjXjXK XXT.D.sXrX:Xg.6X&.l XXB.H g i o . T &X] X.I.jXjXjXjXjXjXjXjXjXjXjXjXjXjXjXjXjXjXjX",
"jXjXjXjXjXjXjXjXjXjXjXjXjXjXjXjXU.@.jXjXjXn %X%X).F.yX6X:X:X4XH m T.OXQ 1 X X . = @XE.q E.jXjXjXjXjXjXjXjXjXjXjXjXjXjXjXjXjXjXjX",
"jXjXjXjXjXjXjXjXjXjXjXjXjXjXjXjX6Xf.jXjXjXoXfXoXx.&.aXaX>Xg.2XC E .X9XB.W 1 . . . R gXJ.F.jXjXjXjXjXjXjXjXjXjXjXjXjXjXjXjXjXjXjX",
"jXjXjXjXjXjXjXjXjXjXjXjXjXjXjXjXjXjXjXjXR.fXoXm.& ( dXaXu.u.:.o M N.9XOXQ Q & . . = {.uX( jXjXjXjXjXjXjXjXjXjXjXjXjXjXjXjXjXjXjX",
"jXjXjXjXjXjXjXjXjXjXjXjXjXjXjXjXjXjXjXV _.9Xm.M m Z tXaXu.y.:.. M.m.B.m.Q W 1 . . . = T l jXjXjXjXjXjXjXjXjXjXjXjXjXjXjXjXjXjXjX",
"jXjXjXjXjXjXjXjXjXjXjXjXjXjXjXjXjXjXr U.K.! x.M v . K.yX[.f./   n ).E e.'.J.2 . . . . . k j jXjXjXjXjXjXjXjXjXjXjXjXjXjXjXjXjXjX",
"jXjXjXjXjXjXjXjXjXjXjXjXjXjXjXjXjXjXd.e.q.h m m X . 5.pX`.$.> . . n K k.7.O.q.g . . . . . j k jXjXjXjXjXjXjXjXjXjXjXjXjXjXjXjXjX",
"jXjXjXjXjXjXjXjXjXjXjXjXjXjXjXjXjXjX4.3Xr.;.q.2 X . & h.,.> . . . C d.S yX:Xi +.e . . . . = B N > jXjXjXjXjXjXjXjXjXjXjXjXjXjXjX",
"jXjXjXjXjXjXjXjXjXjXjXjXjXjXjXjXjXjX@.eX,X-.3.2.7 X . 9 s . . = & h.s D sX>X..6 { 9 . . . . % l.b * jXjXjXjXjXjXjXjXjXjXjXjXjXjX",
"jXjXjXjXjXjXjXjXjXjXjXjXjXjXjXjXjXjXg eX,Xr.$ 1.{ 8 . . . . . . - 3.< p tX>X .@ 7 3 . . . . . % x b 1 jXjXjXjXjXjXjXjXjXjXjXjXjX",
"jXjXjXjXjXjXjXjXjXjXjXjXjXjXjXjXjXjX, -. .8 8 i f 7 . . . . = . . < g 8 +.$.8 $ 8 . . . = . . . * x x o jXjXjXjXjXjXjXjXjXjXjXjX",
"jXjXjXjXjXjXjXjXjXjXjXjXjXjXjXjXjXjXjX+ e D q 6 0 q jX. . . . . . . - p $.o.X.S % . . . . . jXjX. . j 1 jXjXjXjXjXjXjXjXjXjXjXjX",
"jXjXjXjXjXjXjXjXjXjXjXjXjXjXjXjXjXjXjXjXo 8 q 5 q 0 jXjX. . . . . . . o q q q 0 + . . X . jXjXjXjXjX= j jXjXjXjXjXjXjXjXjXjXjXjX",
"jXjXjXjXjXjXjXjXjXjXjXjXjXjXjXjXjXjXjXjXjXjXp X.o.5 jXjX. . . . . . . . ; 0 a 5 6 . . . jXjXjXjXjXjXjX* jXjXjXjXjXjXjXjXjXjXjXjX",
"jXjXjXjXjXjXjXjXjXjXjXjXjXjXjXjXjXjXjXjXjXjX@.X., 6 jXjXjX. . . = . . . jX5 D i.5 X jXjXjXjXjXjXjXjXjX  jXjXjXjXjXjXjXjXjXjXjXjX",
"jXjXjXjXjXjXjXjXjXjXjXjXjXjXjXjXjXjXjXjXjX5.9.' ; 6 jXjXjX. . . . . . jXjXjXp g.X.> jXjXjXjXjXjXjXjXjXjXjXjXjXjXjXjXjXjXjXjXjXjX",
"jXjXjXjXjXjXjXjXjXjXjXjXjXjXjXjXjXjXjX4.w.3X`.-.8 o H jXjX. . jXjXjXjXjXjXjXy `.'.4.jXjXjXjXjXjXjXjXjXjXjXjXjXjXjXjXjXjXjXjXjXjX",
"jXjXjXjXjXjXjXjXjXjXjXjXjXjXjXjXjXjXK ].7.s.,.-.8 = ^ jXjXjXjXjXjXjXjXjXjXjX6.s.6.@.jXjXjXjXjXjXjXjXjXjXjXjXjXjXjXjXjXjXjXjXjXjX",
"jXjXjXjXjXjXjXjXjXjXjXjXjXjXjXjXjXw.[.[.d 7 4 5 6 0 jXjXjXjXjXjXjXjXjXjXjXy 6. Xg.[ i jXjXjXjXjXjXjXjXjXjXjXjXjXjXjXjXjXjXjXjXjX",
"jXjXjXjXjXjXjXjXjXjXjXjXjXP.'.jXX r t 7 $ # X X + 6 jXjXjXjXjXjXjXjXjXjXjX> 9 t 8 $ # jXjXjXjXjXjXjXjXjXjXjXjXjXjXjXjXjXjXjXjXjX",
"jXjXjXjXjXjXjXjXjXjXjXjXjXjXjXjXjXjXjXjXjXjXjXjXjXjXjXjXjXjXjXjXjXjXjXjXjXjXjXjXjXjXjXjXjXjXjXjXjXjXjXjXjXjXjXjXjXjXjXjXjXjXjXjX",
"jXjXjXjXjXjXjXjXjXjXjXjXjXjXjXjXjXjXjXjXjXjXjXjXjXjXjXjXjXjXjXjXjXjXjXjXjXjXjXjXjXjXjXjXjXjXjXjXjXjXjXjXjXjXjXjXjXjXjXjXjXjXjXjX",
"jXjXjXjXjXjXjXjXjXjXjXjXjXjXjXjXjXjXjXjXjXjXjXjXjXjXjXjXjXjXjXjXjXjXjXjXjXjXjXjXjXjXjXjXjXjXjXjXjXjXjXjXjXjXjXjXjXjXjXjXjXjXjXjX",
"jXjXjXjXjXjXjXjXjXjXjXjXjXjXjXjXjXjXjXjXjXjXjXjXjXjXjXjXjXjXjXjXjXjXjXjXjXjXjXjXjXjXjXjXjXjXjXjXjXjXjXjXjXjXjXjXjXjXjXjXjXjXjXjX",
"jXjXjXjXjXjXjXjXjXjXjXjXjXjXjXjXjXjXjXjXjXjXjXjXjXjXjXjXjXjXjXjXjXjXjXjXjXjXjXjXjXjXjXjXjXjXjXjXjXjXjXjXjXjXjXjXjXjXjXjXjXjXjXjX",
"jXjXjXjXjXjXjXjXjXjXjXjXjXjXjXjXjXjXjXjXjXjXjXjXjXjXjXjXjXjXjXjXjXjXjXjXjXjXjXjXjXjXjXjXjXjXjXjXjXjXjXjXjXjXjXjXjXjXjXjXjXjXjXjX",
"jXjXjXjXjXjXjXjXjXjXjXjXjXjXjXjXjXjXjXjXjXjXjXjXjXjXjXjXjXjXjXjXjXjXjXjXjXjXjXjXjXjXjXjXjXjXjXjXjXjXjXjXjXjXjXjXjXjXjXjXjXjXjXjX"
};
