/* XPM */
static char *ccc5a71688f344e8a5c934e744129edboFkIwIgQUijrBbAB[] = {
/* columns rows colors chars-per-pixel */
"64 64 167 2 ",
"   c None",
".  c #7F1016",
"X  c #7D121C",
"o  c #84121D",
"O  c #8B141B",
"+  c #8F181F",
"@  c #93151D",
"#  c #9A161E",
"$  c #9B181F",
"%  c #A5171F",
"&  c #A4181F",
"*  c #941522",
"=  c #9B1621",
"-  c #951822",
";  c #9B1821",
":  c #A51722",
">  c #A91620",
",  c #A41821",
"<  c #AD1A25",
"1  c #B21723",
"2  c #B41A25",
"3  c #BB1A25",
"4  c #B51A28",
"5  c #BE1B29",
"6  c #C31B27",
"7  c #C81A26",
"8  c #CB1B27",
"9  c #C81E27",
"0  c #CB1C27",
"q  c #C01D29",
"w  c #C11F2A",
"e  c #C51C28",
"r  c #C31C28",
"t  c #C91B2A",
"y  c #CA1B2A",
"u  c #CF1B29",
"i  c #C91D29",
"p  c #CA1C29",
"a  c #CB1C29",
"s  c #CA1D29",
"d  c #C81E28",
"f  c #C91E28",
"g  c #CA1C2A",
"h  c #CB1D2A",
"j  c #C91E2B",
"k  c #CA1E2A",
"l  c #CD1D28",
"z  c #CD1C29",
"x  c #CC1D29",
"c  c #CD1D29",
"v  c #CF1D29",
"b  c #CC1E29",
"n  c #CE1E28",
"m  c #CF1E28",
"M  c #CD1D2A",
"N  c #CC1C2B",
"B  c #CE1C2A",
"V  c #CE1D2A",
"C  c #CE1E2A",
"Z  c #CE1D2D",
"A  c #CB1D29",
"S  c #D61C27",
"D  c #D51B28",
"F  c #D71B28",
"G  c #D61B29",
"H  c #D71B29",
"J  c #D61B2A",
"K  c #D71B2A",
"L  c #D71A2B",
"P  c #D11C29",
"I  c #D21C28",
"U  c #D21D28",
"Y  c #D21C29",
"T  c #D21D29",
"R  c #D31D29",
"E  c #D01F29",
"W  c #D21E28",
"Q  c #D31E28",
"!  c #D31E29",
"~  c #D11D2A",
"^  c #D21D2A",
"/  c #D31D2A",
"(  c #D01F2B",
")  c #D31E2A",
"_  c #D31E2B",
"`  c #D51C28",
"'  c #D41D28",
"]  c #D51D28",
"[  c #D51C29",
"{  c #D41D29",
"}  c #D51D29",
"|  c #D61C28",
" . c #D71C28",
".. c #D61D28",
"X. c #D71D28",
"o. c #D61C29",
"O. c #D71C29",
"+. c #D61D29",
"@. c #D71D29",
"#. c #D61E29",
"$. c #D71E29",
"%. c #D51C2A",
"&. c #D41C2B",
"*. c #D51C2B",
"=. c #D41D2B",
"-. c #D61C2A",
";. c #D71C2A",
":. c #D61D2A",
">. c #D71D2A",
",. c #D61C2B",
"<. c #D71C2B",
"1. c #D61D2B",
"2. c #D71D2B",
"3. c #D41E2A",
"4. c #D51E2A",
"5. c #D41E2B",
"6. c #D51E2B",
"7. c #D61E2A",
"8. c #D71E2A",
"9. c #D61F2A",
"0. c #D71F2A",
"q. c #D61E2B",
"w. c #D71E2B",
"e. c #D21E2C",
"r. c #D61D2C",
"t. c #D51E2C",
"y. c #D51F2C",
"u. c #D61E2C",
"i. c #D71F2D",
"p. c #D61C29",
"a. c #D81B29",
"s. c #D81B2A",
"d. c #D81B2B",
"f. c #D81C28",
"g. c #D81C29",
"h. c #D91C29",
"j. c #D81D29",
"k. c #D91D29",
"l. c #DB1C29",
"z. c #DA1D29",
"x. c #D81C2A",
"c. c #D91C2A",
"v. c #D81D2A",
"b. c #D91D2A",
"n. c #D81D2B",
"m. c #DA1C2A",
"M. c #DB1C2A",
"N. c #DA1D2A",
"B. c #DB1D2A",
"V. c #DA1C2B",
"C. c #DA1D2B",
"Z. c #D91E2A",
"A. c #D81E2B",
"S. c #D91E2B",
"D. c #D91F2B",
"F. c #DA1E2A",
"G. c #DA1E2B",
"H. c #DB1E2B",
"J. c #DA1F2B",
"K. c #DC1D2A",
"L. c #DE1E2B",
"P. c #D81F2C",
"I. c #DB1E2C",
"U. c #DC1E2C",
"Y. c #D91D2A",
"T. c #C8202C",
"R. c #D7202D",
/* pixels */
"                                                                                                                                ",
"                                    @ @ @ @ @ O @ @ @ @ O @ @ @ @ @ + @ * @ @ @ @ * @ @ + * * @ * * *                           ",
"                                  < R.S R.S O.R.R O.R.Q O.O.O.O.R.O.O.O.*.L D O.j.j.O.O.D O.O.O.j.R.e.:                         ",
"                                  1 R.R.S S S S S S S S Q O.S O.S O.R O.D V.D d.D D D O.D D O.O.j.P.*.:                         ",
"                                  2 R.S O.O.O.O.O.O.O.O.O.R O.O.O.O.*.O.L R D O.O.O.R O.O.O.D D d.j.*.<                         ",
"                                  1 R.S O.D R O.O.O.O.O.O.D O.O.O.O.O.O.O.O.O.O.O.O.D O.O.O.L D D K.*.:                         ",
"                                  1 R.*.O.R D O.R O.D O.*.j.j.K.O.P.j.K.j.j.*.j.D O.O.D R O.O.R d.j.*.>                         ",
"                                @ 3 j.O.O.D R O.O.O.R 6 4 & & & : , , > , , > 3 z O.O.R O.O.O.O.d.j.*.4 @                       ",
"      < w d d d 9 9 d d d d N N N R D O.O.O.O.O.O.j.R &                       O 6 O.O.O.O.O.S S D P.~ R z z t d j y t t Z Z 4 * ",
"      3 R d.V.O.O.O.O.O.d.D O.j.*.O.O.O.O.O.O.D O.R.O.&                         6 D P.O.R O.O.R D D D O.D j.D O.D V.O.D j.P.5 = ",
"      2 N O.d.O.O.O.O.O.D R O.O.O.O.O.O.O.O.O.R R j.R.&                         r L V.D O.O.O.R d.O.D O.O.O.O.O.O.O.O.&.j.j.5 # ",
"      2 l O.j.O.O.O.R D O.O.O.O.*.D R O.R D O.O.O.j.O.&                         r ~ V.L R O.O.O.O.O.R O.O.O.O.D O.O.O.R j.j.3 # ",
"      2 N j.j.D O.O.D R O.R D O.O.O.O.O.O.O.O.O.O.j.R.&                         r *.j.*.O.O.O.O.O.O.O.R O.O.O.R D R O.R j.j.5 $ ",
"      2 N *.j.j.O.O.*.O.O.O.O.O.O.D R D R O.R O.Q j.R &                         r *.j.O.O.O.O.O.O.O.O.D O.D O.O.O.O.O.O.P.U.5 = ",
"      2 N j.*.O.O.R O.O.O.O.O.R O.R D R D O.O.O.d.j.*.,                         q Z O.R.R R R R.Q Q R R S S D R O.O.O.O.K.R.5 # ",
"      3 N j.*.O.O.D O.D R O.O.D O.O.O.O.O.O.O.O.D j.j.,                           # # @ - # # @ @ # # $ 2 R O.O.O.O.O.O.j.j.3 # ",
"      2 R.R.S S D *.O.O.O.R O.R D O.D O.O.R D *.O.O.O.&                                                 # Q j.j.j.j.R D *.P.5 $ ",
"      2 T.R.S S R O.O.O.O.D O.O.O.O.R O.O.O.O.O.O.j.R.&                                                 @ Q S S O.O.O.O.j.P.5 = ",
"      2 l j.S j.O.O.O.O.O.R D O.O.*.O.O.O.O.O.O.Q j.R.&                                                 # d R.j.O.R O.D j.j.5 # ",
"      2 l j.j.j.O.D R O.O.O.*.O.R D O.O.O.D R O.O.O.R &                                                 # Q j.j.O.O.O.R j.j.5 # ",
"      2 l O.j.O.O.R D O.O.O.O.O.O.O.O.O.O.*.O.O.R j.R &                                                 # R.R.R.j.S j.S K.R.6 $ ",
"      2 l O.O.O.O.O.*.O.O.D R O.O.D R O.R D O.O.O.O.O.< O                                               o 2 3 3 3 3 5 3 5 3 & O ",
"      2 N O.S O.D O.O.O.O.R O.O.O.R O.O.O.O.O.R O.O.S 8 6 3 4 2 3 2 2 2 3 3 #                                                   ",
"      2 N O.j.O.R O.O.O.*.D *.D *.D *.D R O.O.D O.O.D F F F j.d.j.K.j.K.K.R.3 @                                                 ",
"      2 N j.j.j.d.O.O.O.O.O.O.R O.O.O.R R D O.O.R O.O.O.O.R O.R j.O.O.I O.P.3 +                                                 ",
"      4 N j.d.S S O.O.O.D V.O.O.O.O.O.D O.O.O.O.D O.D R O.O.O.O.O.O.O.R j.j.3 O                                                 ",
"      4 Z d.j.O.R O.R D D D L D O.O.O.O.O.O.O.O.O.D O.O.*.O.O.O.O.O.R O.j.j.4 O                                                 ",
"      2 j R e.R R R R R ~ ~ ~ Z R R R O.D R O.R O.R O.O.D R O.O.O.O.O.O.K.S 3 @                                                 ",
"                      o o o   + : 5 O.R.S O.O.O.O.O.O.O.R D R D O.O.O.O.j.O.7 1 # o O O O O O O + O o                           ",
"                                  1 O.j.O.O.O.R D R O.O.O.O.O.O.O.D R O.O.O.O.O.O.O.R.O.e.R.R R.O.*.R.,                         ",
"                                  < R.j.S O.R O.O.O.R O.O.D *.O.O.R O.R O.O.O.O.O.O.O.O.O.O.O.O.S S R &                         ",
"                                  1 j.j.S O.O.O.O.O.D *.O.R O.O.O.D O.O.R O.R O.O.R O.O.O.O.R O.O.R.O.,                         ",
"                                  < j.j.S R O.O.D R O.O.O.O.R O.O.O.O.R D O.O.R R D *.O.O.O.O.O.R j.O.,                         ",
"                                  2 P.j.S O.O.O.O.O.O.O.O.O.D O.R O.O.O.O.O.O.D O.O.O.O.D R O.O.D j.R &                         ",
"                                  2 P.j.D j.j.j.O.O.S j.O.&.O.O.D O.O.O.R O.O.O.O.O.O.O.O.O.R O.S j.O.< O                       ",
"                                  , d d r r e e e e e t &.D O.O.O.O.R R O.O.R O.D R O.O.O.O.D *.O.O.D I z d d r d t d t d T.< @ ",
"                                                      . > R *.O.O.O.R R R R O.O.O.O.R O.R O.O.D O.O.O.O.O.O.*.O.R O.O.O.j.P.5 # ",
"                                                        # R P.D R O.O.O.O.O.R O.O.O.D *.D O.O.R O.O.O.D D D L D O.O.R R j.P.5 # ",
"                                                        # R j.d.D O.O.O.D R D O.R D O.D O.O.O.O.R O.O.D *.O.O.O.O.R O.O.j.S 3 # ",
"                                                        # e.j.D O.O.O.O.*.O.O.O.O.O.O.R O.O.O.O.D O.O.R j.D O.O.O.D O.O.j.S 3 # ",
"                                                        ; e.P.P.L D d.j.D *.j.O.O.O.O.O.O.O.O.D O.D O.O.S S Q O.O.O.R D O.P.3 = ",
"                                                        - R.*.L e.e.R O.D D *.*.*.*.O.R D R O.R O.R O.O.D S S O.Q O.O.O.*.P.4 # ",
"                                                          = = = = = = = $ $ & 1 d *.*.O.S O.S O.O.O.R D D O.O.O.D O.O.D O.j.3 # ",
"      < r l 8 d 8 8 t d z z N r X                                               r e.O.O.O.S S O.D R O.O.O.O.O.*.D O.O.R O.j.4 # ",
"      4 N S R.S O.O.O.O.d.j.j.t o                                               r *.*.j.O.S R D O.O.R D O.O.O.D O.O.O.O.O.j.3 # ",
"      4 N S j.j.D R O.O.j.d.P.r o                                               q e.O.O.O.O.O.O.O.O.O.O.D R O.R O.R O.R O.R.4 # ",
"      4 N O.j.j.O.O.O.O.d.S P.t O                                               r e.P.L O.O.R O.O.O.O.O.O.O.R O.R D O.R O.O.3 # ",
"      3 N j.j.j.O.O.O.S d.j.j.r o                                               r *.V.D O.O.D O.O.O.D R O.O.D O.O.O.O.O.P.O.3 - ",
"      3 N S j.O.O.O.O.O.O.O.O.r *                                               r e.j.O.O.O.O.*.R O.O.O.*.O.O.O.R D O.R P.P.5 # ",
"      4 N S S j.O.O.R O.R O.D &.6 4 < < < < 1 < < 4 < o                         r O.j.O.R O.O.D D O.D R D R O.O.O.O.O.D d.j.5 * ",
"      4 N j.O.O.O.O.O.O.O.O.O.O.O.P.P.*.V.P.P.j.j.R.R.,                         r R *.O.D O.O.R R O.*.O.O.O.R O.O.D *.R d.P.3 * ",
"      2 d O.O.O.R O.R O.R O.O.O.O.O.O.O.D D d.D O.*.R.,                         r e.*.O.O.O.O.O.D O.O.O.O.O.D O.O.R O.O.j.D 3 = ",
"      4 N O.O.O.O.R O.R D O.O.R O.O.R O.O.O.R O.O.j.*.,                       o r e.O.D O.O.O.O.O.O.R D O.O.R O.O.O.O.O.O.j.3 - ",
"      4 N S j.j.O.O.O.O.O.O.O.D O.O.D O.O.O.D O.D P.*.:                       X r R O.O.O.O.R D O.O.O.O.O.O.O.O.R O.R O.O.j.3 - ",
"      4 N S S j.O.O.O.O.O.O.O.O.O.O.R O.R D O.O.D V.L :                       X 5 R.O.O.D *.O.R R O.O.O.R O.O.O.O.O.O.O.d.P.3 - ",
"      4 N R.S j.R R O.R O.R O.R *.*.D O.O.O.D R D P.*.:                         3 R O.O.R O.O.O.D *.O.*.D O.R R R O.*.L j.*.3 - ",
"      - < < 2 < < < 2 < < < < 4 5 7 D O.O.O.O.O.R *.e.1 @                     # e R O.O.O.O.O.O.O.j.*.r 3 2 < < < < < < 4 < - X ",
"                                o 1 O.j.O.O.O.O.O.O.O.&.t q q q 3 6 5 r r 5 r r N O.O.O.O.O.O.D O.P.*.:                         ",
"                                  2 P.j.O.O.O.D O.O.O.O.d.j.O.j.j.P.K.j.K.j.j.j.O.O.O.R O.O.O.D O.*.R.,                         ",
"                                  2 j.j.O.R O.R D R O.D j.D O.O.j.O.O.O.O.O.D d.R O.O.O.R O.&.D L P.R.,                         ",
"                                  2 *.P.O.O.O.S O.O.R D O.O.O.R R O.O.O.O.O.O.O.O.O.O.O.O.O.V.D L P.*.:                         ",
"                                  2 R.j.O.O.S j.O.*.D L D O.O.O.O.S O.S D D O.O.O.j.O.R O.O.D j.j.P.*.:                         ",
"                                  < Z Z d d N N Z N j j d N N d 9 d N N z d d d d d d j r T.j j T.Z T.;                         ",
"                                                                                                                                "
};
