/* XPM */
static char *result[] = {
/* columns rows colors chars-per-pixel */
"64 64 224 2 ",
"   c #0E4F9F",
".  c #134B96",
"X  c #11539F",
"o  c #1756AB",
"O  c #0E5AB9",
"+  c #165CB7",
"@  c #1C5BB5",
"#  c #1A56BE",
"$  c #155CBB",
"%  c #1B5CBB",
"&  c #1755B4",
"*  c #0C56AD",
"=  c #225BAA",
"-  c #2D5EA9",
";  c #225BB5",
":  c #235DBD",
">  c #1761B6",
",  c #1C63BC",
"<  c #1C67B9",
"1  c #1D75BF",
"2  c #2B66AC",
"3  c #336AAA",
"4  c #2465B3",
"5  c #2A65B3",
"6  c #2364BB",
"7  c #236ABB",
"8  c #2B6DBE",
"9  c #2A68B9",
"0  c #336BB9",
"q  c #3265B4",
"w  c #2E72BC",
"e  c #3E76B3",
"r  c #4173BA",
"t  c #164EC1",
"y  c #0D5AC2",
"u  c #1954C4",
"i  c #155CC2",
"p  c #1B5DC4",
"a  c #1657CA",
"s  c #1C5CCB",
"d  c #1758C6",
"f  c #1D5ED4",
"g  c #1A5EDB",
"h  c #185AD1",
"j  c #235ECE",
"k  c #265DC5",
"l  c #225DD4",
"z  c #0E63CD",
"x  c #1661C6",
"c  c #1D61C4",
"v  c #1F6BC6",
"b  c #1F63C8",
"n  c #1D69CC",
"m  c #1E64D3",
"M  c #1A66DA",
"N  c #2264C4",
"B  c #236AC3",
"V  c #2B6CC4",
"C  c #2164CA",
"Z  c #2966CC",
"A  c #2469CC",
"S  c #2B6CCE",
"D  c #2C62C4",
"F  c #316CC6",
"G  c #326ECE",
"H  c #3167C1",
"J  c #2B76CD",
"K  c #2E79CE",
"L  c #2979C0",
"P  c #3372C7",
"I  c #3072CE",
"U  c #3B75CA",
"Y  c #3679C6",
"T  c #2363D4",
"R  c #2A66D3",
"E  c #246AD2",
"W  c #2B6CD3",
"Q  c #2366DC",
"!  c #2A66DA",
"~  c #256CD9",
"^  c #2A6BDC",
"/  c #336ED3",
"(  c #336EDB",
")  c #3765DE",
"_  c #2E71D1",
"`  c #2C72DA",
"'  c #2576D8",
"]  c #3274D2",
"[  c #3778D2",
"{  c #3B7CD5",
"}  c #3374DC",
"|  c #3D7ED8",
" . c #357BDD",
".. c #1E62E1",
"X. c #286BE3",
"o. c #2570E3",
"O. c #3275E3",
"+. c #4069C1",
"@. c #4477CA",
"#. c #497ED5",
"$. c #5885BC",
"%. c #6189BC",
"&. c #2E81D1",
"*. c #3F81D7",
"=. c #4D86CC",
"-. c #4C86C3",
";. c #4180D7",
":. c #4283DA",
">. c #4788DC",
",. c #4C8CDD",
"<. c #508FDE",
"1. c #5283D0",
"2. c #5F92D5",
"3. c #5B92C8",
"4. c #6997CC",
"5. c #759CC1",
"6. c #6195D6",
"7. c #639DD6",
"8. c #6799DA",
"9. c #6A9EDA",
"0. c #6A92DA",
"q. c #729ADB",
"w. c #7098D6",
"e. c #6CA2DD",
"r. c #6FA9DB",
"t. c #73A1D5",
"y. c #7AA4DA",
"u. c #74ACDC",
"i. c #7AA7D9",
"p. c #7EB4DA",
"a. c #5693E1",
"s. c #5C9AE4",
"d. c #5896E8",
"f. c #609FE6",
"g. c #679AE6",
"h. c #64A2E6",
"j. c #6BA2E2",
"k. c #6AA3ED",
"l. c #6BAAEB",
"z. c #79ABE3",
"x. c #71ACEE",
"c. c #75A9E7",
"v. c #74B0EF",
"b. c #7DB1E1",
"n. c #7AB4F2",
"m. c #84AACB",
"M. c #85B5D9",
"N. c #9BB9DB",
"B. c #84BCEA",
"V. c #99BCE7",
"C. c #83BBF6",
"Z. c #86BEF8",
"A. c #92B6F2",
"S. c #9DC6E8",
"D. c #89C2F9",
"F. c #97C4F5",
"G. c #96CBF8",
"H. c #98DAF8",
"J. c #B2D5EB",
"K. c #B9D4E9",
"L. c #A9CBF8",
"P. c #A9D4F4",
"I. c #A4D4FE",
"U. c #ABD6FD",
"Y. c #B3D1FF",
"T. c #B4DCFD",
"R. c #BBDEFC",
"E. c #B8DAF5",
"W. c #ABC7EC",
"Q. c #B5E3FE",
"!. c #BAE4FF",
"~. c #BEEBFF",
"^. c #B8E8F4",
"/. c #C8E5DC",
"(. c #CFF0DF",
"). c #CBDBFF",
"_. c #C2DBF4",
"`. c #D2DEFF",
"'. c #C3E5ED",
"]. c #CBE5EC",
"[. c #C9E8E6",
"{. c #D3E4EC",
"}. c #D3EBED",
"|. c #D7E8E7",
" X c #D6F1ED",
".X c #D6F6E7",
"XX c #C4E4F2",
"oX c #CDE5F2",
"OX c #CDE8F5",
"+X c #C4E5FE",
"@X c #CBE4FE",
"#X c #C3ECFF",
"$X c #CCEBFD",
"%X c #D2E5F3",
"&X c #D5ECF4",
"*X c #DAEBF6",
"=X c #D1E6FB",
"-X c #D4ECFD",
";X c #DAECFC",
":X c #CBF2F4",
">X c #C6F2FE",
",X c #CBF4FF",
"<X c #CEFDFF",
"1X c #C3F0F5",
"2X c #D6F1F5",
"3X c #DBF2F6",
"4X c #D3F3FE",
"5X c #DCF3FE",
"6X c #D7FCFC",
"7X c #DBF9FE",
"8X c #DEFCF0",
"9X c #EAEEEB",
"0X c #E6F5EB",
"qX c #E2EEF4",
"wX c #E2EEFB",
"eX c #E9EAFC",
"rX c #EAF4F4",
"tX c #E3F4FE",
"yX c #EBF6FD",
"uX c #E4FBFF",
"iX c #ECFBFE",
"pX c #E4F6F3",
"aX c #F3FDFE",
"sX c #F8EEF6",
/* pixels */
"c C C N C j l j R p p p p m $ < 7 , Z k $ p E k b b b b b b b b b c b b b C c b b b b b b b b c b b b b b b b b b b b b b b b b ",
"E s d c c % c B d k N A m m E C i Z j ^ c n p N b b b b C c b b b C b C b b b b b b b b b b b b b C b b b b b b b b b b b b b b ",
"b s p A A B N B v B > B b i ~ c m ! u C m A $ S b b b b b b b C b b b c b c C c b b b b b b b N b b b b b b b b b b b b b b b b ",
"s A E b c b c O g a d # u t l u % @ ; @ i x x N b b b b b b b b b b b b b C b b b N b b b b b b b b b b b C b c b b N b b b b b ",
"c N Z f s m ~ ^ E 8 x.u.i.b.u.r.r.u.z.x.7 E A p b c b b b b c b N b b b b b b b b b b b b b b b b b b b b b b b b b b b N b b b ",
"B , p E T d d C o 3 Q.,X4X4X^.>X,X,X,X~.5 A s E b b b b b b C b b b b b C b c b b b b b b b b b b b b b b b N b N b b b c b b C ",
"A N b p N D 5 5 Z 0 Y.).`.).$X+X]./.[.T.e p i R b b b b C b C b b b b b b b C b b b b b b b b b b N b b b b b b b b b b b b b b ",
"$ E c & U C.H.G.U.S.2X0X0X9XaX3XiX|.uX@XF.S b $ b b b b c b c b b b b b b b b b b b b C b b b b b b b b b b b b b c b b b b b b ",
": ~ z 6 $.E.=X!.@X-X3XrXyXyXyXyXaX|.;X5XE.$.6 M M p p ^ a M n n 7 + > , B $ B % E b c p , C A s , , p S l a C B b C b b b b b b ",
"% n O s.@XyX*X+X$X-XtXyXaXyXyXiXqXiXiX&X-X!.k.i s p , B p b s p Q E ~ m a b T m C s N A C c b s Q p B < , N s s b b b b b b b N ",
"N $   4.tXwX&X$X@X-XuXyXyXyXyXuXyXaX&X}.&X4Xy.. R A N > A N : ; t # u # % s s s p p c C N c p C f l i O , A R ! b b b b b b b b ",
"x 7 2.N.aXrX-X$X+X-X5XtXtXtXtX;XtX5X[.&X2X5XS.4.: p x y E N ;.c.g.e.e.e.h.8 B i b c c c c b c A $ ` m M ~ i c o b b b b b b b b ",
"x F Q.-XaXaXyX@X@X@X-X5XwX5X;X;X%X;X7X}.uXiX5XT.8 B ' ..M # e.6X,X>X#X#XQ.2 S n b E C p C A c c 7 < p i > < < _ b C b C C b b C ",
"n = +X;X|.iX5X4X-X-X=X-X;X5X;X=X-X-X5X].*X*X-XR.K $ y x Z - %.6X'.oXoX-XR.2 k M p W Z x A N $ , 4 = n.B.p.D.D h C b C b b C C b ",
"p = T.tXyXiX*X;X5X-X-X-X-X5X-X*X5XoX-X-XtX;X@X_.O.+ 4 j.A.S.K.uX;XwXwXtX@Xq.V s p A C s A , + K F.V.iXyXpX6Xg.s b n b C C n b N ",
"s 0 L.-X5XyX-XtX;X4X-X4X-X-X-X-X&X5X$X4X&XtX@XE...N 3.#X5XtX*XyXaXyX9X0XuX,X-.7 C A b A E % B d.6X5XeXsX9XyXT.0 N C b N C b C b ",
"C E & w.tXrXrX5XqX X*X[.].4XOX:X2X4X-X-XtX5X+XP.1 4 A.7X/.[.tXtXyX;XuX0X%X7Xp.: n J N b Q N 3 #X4X].%XtX&X.XuX5.p A E A C C A C ",
"S # & n.5XyXpXtX-X-X;X@X@X-X@X@X2X7X5X-X*X;X@X!.A e.4XyX4X2X-X5X0X5X&X}.-X5X>Xz.p A 7 A ^ R q L.uX.X|.;X%X[.6Xy.p C A A A C A A ",
"V N k =.M.7XtX}.$X4X5XOXOX-XoX-XoXoX'.[.5X-XP.y.s i.iXwX;X$X'.,X(.5X-X2XtX{.6Xm.i C V Z E E ; 6.8X8X&X=X-X6X,X0.N A Z A A C A A ",
"D W b @ e !.-X5X8X X X}.2XXXP.+X$X!.T.Q.#X!.e.5 R $.J.tXaX*X5X,X X7XOX}.;X}.,Xy.T A F B A E # 9 m.#X,XL.y.t.9.H A A S Z S S Z Z ",
"/ W T c 7 6.%.L.*X{.oX-X$XF.6.g.8.h.e.e.7.8.:.m 7 % @.W.yX{.5XOXoX).XX[.^.:XF.#.E Z / V A ' E k : 9.j.@.& o 4 i S S S S S S S S ",
"W R R R A 6 . q.-X]._.+XT.7.o * o $ > > @ B ^ o.L o.h 9.OXtXwXtX-XY.Q.^.U.Q.e.m W S / Z S J } C l : o p l J v ` S S S S S S S S ",
"n S ] S _ J F g.#X~.!.Q.Q.l.8 K ] ^ ` E S S S E V ` m F t.+X_.oXU.2.-.-.#.2.Y Q J S / W _ A W A X.D 7 ` X.A % ` ] S S G ] S S / ",
"' V Y Y B v B U Y @.r r 1.U k O.J S ~ ^ I F F J ) 6 &.A k U.E.!.H.Y N p ) D w ] J S ( (  .B I G R 8 2 J T } V S ] W S / ] W S _ ",
"J J W G W J / W B B Z S J S S W G W ] W _ _ _ _ I S I I G J / J J W ] _ ] _ ] _ _ _ _ _ ] _ _ _ / S / S G S ] W ] W _ ] _ W ] J ",
"] _ ] ] ] ] _ ] W G J _ _ _ ] ] ] ] ] ] ] ] ] _ ] ] G ] ] ] ] G _ _ ] ] _ ] _ ] ] ] ] _ ] _ ] ] / J / ] ] ] W _ ] ] _ ] ] _ ] / ",
"] ] ] ] ] ] ] ] ] [ ] ] ] ] ] ] ] ] ] ] ] ] ] ] ] ] ] ] ] ] ] [ ] ] ] ] ] ] ] ] ] ] ] ] ] ] ] ] ] ] ] ] ] ] ] ] ] ] ] ] ] ] ] ] ",
"] ] ] ] [ [ ] ] [ [ ] [ [ ] ] ] [ ] ] ] [ ] [ ] [ [ ] ] ] [ ] ] I ] ] I I ] ] ] ] [ ] ] ] ] ] [ [ ] ] { ] ] [ [ ] ] ] [ [ ] ] ] ",
"[ [ [ [ [ [ ] [ ] ] ] ] [ U ] [ [ [ [ [ [ [ ] [ { [ [ [ [ } [ [ [ [ [ [ [ [ [ [ [ [ [ [ [ [ [ [ [ [ [ [ [ [ { [ [ [ [ [ [ ] [ [ ",
"{ { { [ [ { { { { { { { { { { { [ { [ { { [ [ { [ { {  .{ { {  .[ { { { { { { { { { { [ { [ { { { { { { [ { { [ [ { [ [ { { { [ ",
";.{ :.#.*.*.| | { | | { | { #.| *.{ *.{ #.{ *.{ |  .{ | {  .| | *.{ #.{ *.{ { { { { { #.{ { { { { *.{ *.{ *.*.{ *.{ { #.;.{ { ;.",
":.;.;.:.*.*.:.:.#.*.:.:.*.:.*.*.;.;.;.:.*.*.:.:.#.:.*.:.:.#.*.:.*.*.{ :.;.;.;.;.:.*.*.:.;.:.*.:.*.*.*.*.*.*.*.*.:.:.:.;.:.;.:.;.",
":.:.:.*.>.*.*.*.>.&.>.&.*.*.*.*.:.*.*.*.>.*.*.*.*.*.*.*.*.*.*.*.:.:.*.*.:.:.:.*.*.*.,.*.>.*.&.>.>.:.:.:.&.>.:.:.:.:.:.:.:.:.:.:.",
":.>.:.:.>.*.>.*.>.>.>.>.<.*.<.&.:.>.>.>.>.*.>.>.>.>.>.*.>.*.>.>.:.:.>.*.>.:.:.>.*.*.>.*.>.>.:.>.>.:.:.>.>.:.:.:.:.:.:.>.:.:.>.:.",
">.>.>.>.>.>.>.>.>.>.>.>.*.<.*.,.>.>.>.>.>.>.>.>.>.>.>.>.,.>.>.>.>.>.>.>.>.>.>.>.*.,.,.*.>.>.>.>.>.>.>.>.,.>.,.*.>.>.>.>.>.>.>.>.",
",.,.,.,.,.,.,.>.,.>.,.,.,.<.,.,.,.>.>.,.,.>.,.,.,.,.,.>.,.,.,.,.,.,.,.,.>.,.,.,.,.,.,.,.,.,.,.,.>.>.>.>.,.,.,.,.,.,.,.,.,.,.>.>.",
",.,.,.,.,.,.,.<.,.,.,.<.,.,.,.,.,.,.,.<.,.,.,.,.,.,.,.<.<.<.<.<.,.,.,.,.,.,.,.,.,.,.,.,.,.<.,.,.<.<.,.,.,.<.,.,.,.,.,.,.<.>.<.,.",
"<.<.<.<.<.<.<.<.<.<.<.<.<.<.<.<.<.<.<.<.<.<.<.<.<.<.<.<.<.<.<.<.a.<.<.<.<.<.<.<.<.<.<.<.<.<.<.<.<.<.,.,.<.<.<.<.<.<.<.<.<.<.<.<.",
"d.<.d.<.<.a.a.<.d.<.d.<.a.a.a.<.d.<.d.<.a.<.<.<.<.a.d.<.<.<.s.<.a.a.a.<.d.<.d.a.a.<.a.a.a.a.<.<.d.a.<.a.d.a.<.a.a.a.a.<.<.<.d.<.",
"a.a.a.d.d.a.a.a.a.a.a.d.a.a.a.a.a.a.a.d.a.a.d.s.a.a.a.d.<.s.<.<.a.a.a.a.a.a.a.a.a.a.a.a.a.a.s.a.a.a.d.a.a.a.a.a.a.a.a.a.d.a.d.d.",
"a.a.a.a.a.a.a.a.a.a.a.a.a.a.a.a.a.a.<.<.s.<.<.s.a.a.<.<.s.s.a.<.a.a.a.a.a.a.a.a.a.a.a.a.<.s.<.<.a.<.s.<.s.<.s.<.s.a.<.a.<.<.s.<.",
"s.s.s.s.s.s.s.s.s.s.s.s.s.s.s.a.s.s.s.s.s.s.s.s.s.s.s.s.s.s.s.s.d.s.s.s.s.s.s.s.s.s.s.s.s.a.f.s.s.s.s.s.s.s.s.s.s.s.s.s.f.s.s.f.",
"f.s.s.s.s.f.s.s.s.s.s.f.f.s.f.s.s.s.s.f.s.s.h.s.s.s.s.s.s.s.s.s.s.s.s.s.s.s.s.s.s.s.s.s.s.f.f.f.s.s.s.s.s.f.f.s.s.s.f.s.s.s.s.f.",
"f.f.f.f.f.f.f.h.f.f.f.f.f.f.f.f.f.f.f.f.h.h.s.h.f.f.h.h.f.f.h.f.h.f.f.f.f.f.h.f.h.f.f.h.f.f.f.h.f.h.f.f.f.f.f.h.f.f.f.f.f.f.f.f.",
"h.h.h.h.h.h.h.f.h.h.h.h.h.h.h.h.h.h.h.h.h.h.h.h.h.h.h.h.h.h.h.f.h.h.h.h.h.h.h.h.h.h.h.h.f.h.h.h.h.h.h.f.h.h.h.h.h.h.h.h.h.f.h.f.",
"h.h.h.h.h.h.h.h.h.h.h.h.h.h.h.h.h.h.h.h.h.h.h.h.h.h.h.h.h.h.h.h.h.h.h.h.h.h.h.h.h.h.h.h.h.h.h.h.h.h.h.h.h.h.h.h.h.h.h.h.h.l.h.h.",
"r.l.l.l.h.l.l.h.l.l.h.r.l.l.l.h.h.l.l.l.h.h.l.l.h.l.l.h.l.l.k.l.l.l.h.l.l.l.h.l.h.r.l.l.l.h.h.l.l.l.l.h.l.h.l.r.h.l.h.l.l.h.l.l.",
"l.l.l.l.l.l.l.l.l.l.l.l.l.l.l.l.l.l.l.l.l.l.l.l.l.l.l.l.l.l.l.l.l.l.l.l.l.l.l.l.l.l.l.l.l.l.l.l.l.l.l.l.l.l.l.l.l.l.l.l.l.l.l.l.",
"l.l.l.v.l.x.x.l.x.x.x.x.x.x.l.l.x.x.k.x.x.k.k.x.x.x.x.k.l.x.x.x.l.x.k.x.x.k.x.x.k.x.x.l.x.k.x.x.l.l.l.v.v.l.v.l.l.x.x.l.x.x.l.x.",
"l.v.l.v.l.v.x.x.x.x.x.x.x.x.x.x.x.x.v.x.x.v.x.x.x.x.x.x.x.x.x.x.x.x.v.x.x.x.x.x.v.x.x.x.x.x.x.x.l.v.l.v.l.v.l.v.x.x.x.v.x.x.x.x.",
"v.v.v.v.v.v.v.v.v.v.v.v.v.v.v.v.v.v.v.v.v.v.v.v.v.x.v.v.v.v.v.x.v.v.v.v.v.v.v.v.v.v.v.v.v.v.v.v.v.v.v.v.v.v.v.v.v.v.v.v.v.v.v.v.",
"n.n.v.v.n.n.v.n.v.v.n.n.n.v.n.n.n.v.n.n.n.n.v.n.n.n.n.n.n.v.n.n.v.n.v.n.n.n.n.n.n.n.n.v.n.n.n.n.n.n.v.v.v.n.v.n.n.v.n.v.n.n.v.n.",
"n.n.v.n.n.n.v.n.n.n.n.n.n.n.n.n.n.n.n.n.n.n.n.n.n.v.n.n.n.n.n.n.n.n.n.n.n.n.n.n.n.n.n.n.n.n.n.n.v.C.n.n.n.v.v.n.n.n.n.n.n.n.n.n.",
"C.n.n.C.n.C.n.n.n.C.n.n.n.n.n.n.C.n.n.n.n.C.n.n.n.n.C.n.n.n.n.C.n.n.C.n.C.n.n.n.n.n.n.n.C.n.n.n.C.n.n.n.n.C.C.n.n.n.C.n.n.n.n.n.",
"C.C.C.n.C.C.C.C.Z.n.Z.n.Z.n.n.Z.C.n.n.C.C.C.n.C.Z.n.C.n.C.C.C.n.C.C.C.n.n.C.C.C.C.n.C.C.n.C.C.C.B.C.C.C.C.C.n.C.Z.C.C.n.Z.n.n.Z.",
"C.C.C.C.C.C.C.C.Z.Z.Z.n.Z.D.n.Z.C.Z.Z.C.C.C.C.C.Z.C.Z.C.Z.C.C.C.C.C.C.Z.C.C.C.C.Z.C.C.C.C.C.Z.n.C.C.C.C.C.C.Z.C.C.C.Z.n.Z.D.n.Z.",
"Z.n.C.Z.D.n.Z.D.Z.C.C.Z.C.C.C.Z.Z.Z.n.Z.Z.C.Z.C.Z.C.Z.C.Z.Z.n.Z.C.C.Z.Z.C.C.Z.C.D.Z.Z.n.Z.Z.C.Z.C.C.C.Z.n.Z.n.D.Z.C.Z.C.C.C.Z.C.",
"Z.Z.Z.Z.Z.Z.Z.n.Z.Z.Z.Z.Z.Z.C.Z.D.n.D.Z.Z.Z.Z.Z.Z.C.Z.Z.C.Z.D.Z.Z.Z.Z.Z.Z.Z.Z.Z.n.Z.Z.Z.Z.Z.Z.Z.Z.Z.Z.Z.D.D.D.n.Z.Z.C.Z.Z.Z.Z.Z.",
"D.Z.Z.Z.D.Z.D.Z.Z.Z.Z.Z.Z.Z.Z.Z.D.Z.D.D.Z.Z.Z.Z.Z.Z.Z.Z.Z.Z.D.Z.Z.Z.D.Z.Z.Z.Z.Z.D.Z.D.D.Z.Z.Z.Z.Z.Z.Z.Z.D.Z.D.D.Z.Z.Z.D.D.Z.Z.Z.",
"D.D.Z.D.Z.D.D.D.Z.D.D.Z.D.Z.D.D.D.D.D.D.Z.D.D.Z.Z.D.D.Z.D.D.D.D.Z.Z.Z.D.D.Z.Z.Z.D.D.D.D.D.D.Z.D.Z.D.D.Z.Z.D.D.D.D.Z.D.Z.Z.Z.D.Z.",
"D.D.D.D.D.D.D.D.D.D.D.D.D.D.D.D.D.D.D.D.D.D.D.D.D.D.D.D.D.D.D.D.D.D.D.D.D.D.D.D.D.D.D.D.D.D.D.D.D.D.D.D.D.D.D.D.D.D.D.D.D.D.D.D.",
"D.D.D.D.D.D.D.G.D.D.D.D.D.D.D.D.D.D.D.D.D.D.D.D.D.D.D.D.D.D.D.G.D.D.D.D.D.D.D.D.D.D.D.D.D.D.D.D.D.D.D.D.G.D.D.D.D.D.D.D.D.D.D.D.",
"D.D.D.D.D.D.D.D.D.D.D.D.D.D.D.D.D.D.D.D.D.D.D.D.D.D.D.D.D.D.D.D.D.D.D.D.D.D.D.D.D.D.D.D.D.D.D.D.D.D.D.D.D.D.D.D.D.G.D.D.D.D.D.D.",
"D.D.D.D.D.D.D.D.G.D.D.D.D.D.D.D.D.D.D.G.D.D.D.D.D.D.D.D.D.D.D.D.D.D.G.D.D.D.D.D.D.D.D.D.D.G.D.D.D.D.D.D.D.D.D.D.D.D.D.D.D.D.D.D."
};
