/* XPM */
static char *result[] = {
/* columns rows colors chars-per-pixel */
"64 64 222 2 ",
"   c #150400",
".  c #190600",
"X  c #170D01",
"o  c #1A0D01",
"O  c #1D1103",
"+  c #210E00",
"@  c #2B0D00",
"#  c #241403",
"$  c #2B1602",
"%  c #2D1A03",
"&  c #231608",
"*  c #251A0B",
"=  c #2C1C0B",
"-  c #331600",
";  c #341C02",
":  c #3A1E00",
">  c #321F0A",
",  c #2C1E11",
"<  c #2F210D",
"1  c #362104",
"2  c #3C2304",
"3  c #34220B",
"4  c #3B250C",
"5  c #3E290D",
"6  c #2E2112",
"7  c #322313",
"8  c #392612",
"9  c #3D2911",
"0  c #422502",
"q  c #452A04",
"w  c #4A2C03",
"e  c #41270A",
"r  c #432B0C",
"t  c #4A2E0B",
"y  c #482700",
"u  c #512C00",
"i  c #4E3103",
"p  c #4C310D",
"a  c #4A340C",
"s  c #533304",
"d  c #5D3C03",
"f  c #53340C",
"g  c #543A0C",
"h  c #5A3A0C",
"j  c #553A05",
"k  c #432D13",
"l  c #492F11",
"z  c #412F19",
"x  c #463115",
"c  c #4C3314",
"v  c #46321A",
"b  c #4C351A",
"n  c #4E391C",
"m  c #4F3912",
"M  c #523613",
"N  c #553915",
"B  c #5B3C14",
"V  c #503719",
"C  c #543B1B",
"Z  c #5B3E1B",
"A  c #583610",
"S  c #633F02",
"D  c #613E14",
"F  c #4E3820",
"G  c #463420",
"H  c #533D21",
"J  c #593F21",
"K  c #5B4303",
"L  c #56421C",
"P  c #5D411C",
"I  c #5D4111",
"U  c #6E490A",
"Y  c #674605",
"T  c #765609",
"R  c #634214",
"E  c #6B4B14",
"W  c #63441C",
"Q  c #6A471B",
"!  c #634A1D",
"~  c #6C4A1D",
"^  c #6A4616",
"/  c #714C1D",
"(  c #704C12",
")  c #6E5014",
"_  c #76531D",
"`  c #765717",
"'  c #754D05",
"]  c #7C6215",
"[  c #564223",
"{  c #5C4322",
"}  c #5E4923",
"|  c #5B472A",
" . c #634622",
".. c #684621",
"X. c #654A25",
"o. c #6C4C24",
"O. c #62472A",
"+. c #654D2B",
"@. c #6B4E2A",
"#. c #714E22",
"$. c #704F2C",
"%. c #65512D",
"&. c #6C532C",
"*. c #6F582F",
"=. c #745125",
"-. c #7A5426",
";. c #7D5926",
":. c #74542B",
">. c #7A562A",
",. c #7C592C",
"<. c #725C2D",
"1. c #674E31",
"2. c #6D5332",
"3. c #6E5933",
"4. c #6E573A",
"5. c #735531",
"6. c #795731",
"7. c #745C33",
"8. c #7C5B33",
"9. c #745D39",
"0. c #7B5E3A",
"q. c #715638",
"w. c #7E6221",
"e. c #776037",
"r. c #796137",
"t. c #75613A",
"y. c #7C653A",
"u. c #7F683D",
"i. c #7E6A43",
"p. c #7F6240",
"a. c #805F1A",
"s. c #886319",
"d. c #936B1C",
"f. c #906405",
"g. c #825C2C",
"h. c #825E32",
"j. c #845F35",
"k. c #86632C",
"l. c #896527",
"z. c #936E2A",
"x. c #957124",
"c. c #9A762B",
"v. c #836134",
"b. c #8A6434",
"n. c #83643B",
"m. c #8B663A",
"M. c #826A3D",
"N. c #8D6A3C",
"B. c #886936",
"V. c #926D35",
"C. c #926B3B",
"Z. c #987839",
"A. c #A47F2B",
"S. c #A37D38",
"D. c #846641",
"F. c #846C42",
"G. c #8A6D43",
"H. c #846E4A",
"J. c #926E42",
"K. c #877046",
"L. c #8B7345",
"P. c #86704C",
"I. c #8D754A",
"U. c #8F784B",
"Y. c #917345",
"T. c #92754A",
"R. c #937A4C",
"E. c #987B4F",
"W. c #967D53",
"Q. c #997B52",
"!. c #967E5A",
"~. c #A07B46",
"^. c #9F813B",
"/. c #A5863C",
"(. c #B08F3E",
"). c #A9862C",
"_. c #D29F34",
"`. c #9B8155",
"'. c #9A835C",
"]. c #A98F4B",
"[. c #AD9042",
"{. c #B79748",
"}. c #A68B5F",
"|. c #A1865A",
" X c #B99A55",
".X c #B58D59",
"XX c #A88E61",
"oX c #AC9163",
"OX c #AA956B",
"+X c #B29769",
"@X c #B59A6D",
"#X c #B99E6F",
"$X c #B49C72",
"%X c #BA9F72",
"&X c #BDA275",
"*X c #BEA579",
"=X c #C49E55",
"-X c #C8A848",
";X c #C7A858",
":X c #D4B558",
">X c #D1B053",
",X c #CCAA66",
"<X c #C9B262",
"1X c #C2A679",
"2X c #C3A97C",
"3X c #C1A677",
"4X c #CDB377",
"5X c #D1AF66",
"6X c #E6BF64",
"7X c #E7C97E",
"8X c #EACD73",
"9X c #C8B282",
"0X c #D4BB82",
"qX c #D9C797",
"wX c #E8CE84",
"eX c #FBDF84",
"rX c #F0D891",
"tX c #FFEE9F",
"yX c #FFEA94",
"uX c #FCF093",
"iX c #FEF2AB",
"pX c #FFFEC7",
/* pixels */
"u.K.R.&X+XL.`.`.r.y.u.Z.XX*X`.U.R.B.M.U.@X&XR.K.M.U.XX3XM.M.R.#X@XR.M.L.2XXXR.3XoXY.B.M.`.u.L.2X3X&Xu.M.^.u.u.y.@X#XL.@X&XR.K.M.",
"u.K.R.#X+XL.Y.L.u.u.u.`.XX*X`.U.`.M.M.U.+X#XR.N.B.L.XX3XK.F.R.#X#XY.M.K.2X}.Y.&XoXI.F.F.`.B.Y.&X*X&XM.L.`.M.u.y.$X$XL.+X&XR.M.M.",
"U.L.M.M.Z.`.M.M.^.oX#XM.M.L.N.|.*X`.N.M.K.M.B.L.L.<.y.L.U.i.L OX#Xy.L.I.r.y.M.`.I.F.} 9.&X`.Y.U.<.%.u.M.M.#XoXu.%.%.M.K.K.M.I.R.",
"U.N.M.M.M.`.M.B.L.OX&Xu.u.u.L.XX2X`.L.M.M.M.u.L.U.<.e.y.U.y.a OX&Xr.U.U.&.e.M.R.K.i.L 9.2X'.L.M.} L u.u.u.&XOX`.} L K.u.u.y.L.R.",
"M.N.Z.u.u.u.u.u.M.y.y.u.N.U.u.u.L.K.M.u.L.L.u.M.M.y.K.U.M.M.y.K.F.7.y.F.y.r.<.M.M.M.K.L.I.F.u.F.u.y.`.u.y.`.`.u.y.u.y.XX+Xu.M.M.",
"u.L.`.u.u.u.u.u.M.<.*.u.U.`.M.u.u.M.M.u.U.U.u.u.u.M.K.R.u.F.M.u.y.&.r.F.M.e.*.u.u.M.R.I.y.y.M.D.u.u.`.L.t.^.L.u.u.u.y.+X*Xu.u.M.",
"u.y.e.u.u.<.M.M.u.M.K.<.<.e.P <.M.L.M.u.r.e.*.y.M.L.K.M.+.3.i.e.7.*.e.F.U.u.*.u.y.7.7.9.F.7.7.M.L.M.M.M.u.u.u.<.y.u.L.L.L.U.K.u.",
"u.r.&.u.y.&.U.`.B.U.U.&.<.%.L } M.R.U.u.e.*.*.e.M.`.L.u.L } K.3.*.&.y.F.R.u.&.i.r.&.&.7.F.7.3.F.U.`.u.u.u.u.y.&.u.L.`.M.M.E.K.M.",
"U.M.K.u.y.y.M.F.u.M.i.y.e.*.e.e.3.i.M.e.} %.u.&.} K.F.u.7.0.F.7.3.y.K.L.M.u.y.i.y.y.G.N.y.y.y.7.u.K.M.y.7.u.F.L.! ! K.M.u.e.r.u.",
"R.U.`.K.F.F.M.n.M.M.K.i.e.*.i.y.3.u.y.*.L L K.! a u.u.u.K.F.i.q.7.u.L.R.F.M.M.u.F.F.R.U.u.F.i.&.e.i.u.e.&.y.K.W.L L K.i.u.&.y.M.",
"K.M.y.X.%.M.K.H.r.} L i.3.[ i.*.x i.L.r.e.7.i.y.y.u.F.K.[ | U.y.y.I.i.e.+.&.e.I.9.c i.M.7.u.u.y.e.e.K.M.M.M.F.K.a x y.3.e.y.e.7.",
"M.r.&.M } F.R.K.7.a 1 i.%.m i.%.1 i.W.K.F.F.M.U.`.M.U.'.2 [ '.F.K.W.y.%.m { &.'.4.$ 0.y.%.y.F.H.9.<.R.`.`.K.M.F.5 5 9.3.e.i.e.&.",
"e.e.r.&.X.P F.I.3.n 5 | %.3.| [ l 3.7.P r.M.7.i.i.L } %.Z { &.+.&.K.t.3.+.e.F.+.{ N ..&.y.y.t.[ X.&.&.&.3.y.y.:.x k [ n L i.y.y.",
"3.y.F.y.+.2 D.R.7.C e 2 %.P.x x m W W w 7.F.%.t.i.4 1 4 +. .t t L P.e.%.%.H.!.q m 5.M P F.K.t.% N o.t c C n.8.X.c 5 5 ; 4 i.i.u.",
"J { %.X.{ t :.v.<.! N p o.r.c C o.:.=.P X.&.y.2.} x m L Z {  .D { } 7.i.y.e.3.L Z P P @.H.&.X.+.W P W P N 0.>.Z Z C { k x } <.r.",
"4 r M M c M W o.n.:.X.f Q 8.r L v.,.-.@.A A L.L 2 m P %.A B X.$.X.1 y.`.K.%.m +.P p ! :.F.M m W.o.p :.B s 6.o.i X.&.@.m 5 2 W v.",
"Z N N Z J M ....Z X.:.D / 8.t C >.h.g...W W n.W a P ..o.R ..:.W P B :.r.%. .N &.o.D P +.n.W Z $.P A :.#.^ j.;.D D  .$.D N c C ..",
"@.W f X...f .. .@  .j.~ -.8.t M #.m.b.^ ~ #.8.W A X...~ Q =.h.B f @.o.P p c N 6.>.@.f B 8.=...M p A >.g.g.C.h./ A B j.:.X.V r 4 ",
"=.Q D =.o.Z C C B #.-.#.#.:.M C =.-.-.g.=.=.8.R a ,.-.-.m.b.=.~ ! ~ #.=.R N A j.:.B R o.-.:...t M W h.g.g.g.,.=.W ..>...P P B B ",
"g.>.~ ,.-...2 q Q.>.Q h.=.~ f W n.A D C.h.>.o.f w N.l.` .XE.^ ,.,.~ >.8.=.B f I.&.2 8.8.o.8.2.: B =.C.b.g.^ #.g.h.>...B g X.o.@.",
"-.-./ g.b.m.D D 6.:.#.-.=...D W O.D Q C.g.-.-.Q B k.d.x.4XoXP ,.,.~ =.>.o.~ Q 6.o.M .. .N 2.+.2 B >.h.g.=./ =.-.>.-.:.D R >...P ",
"Q Q / b.S. X~.v.u o.j.~ Q ..n. .- D -.C._ / J.b.,.Y A.6XiX4X2 v.m.^ ~ ~ Q j.J.s N #.2 - - { +.e o.8.Q ^ o.~ ~ ^ -.g.j.#.o.T.@.i ",
"=.#./ g.S.;XZ.-.B ....$.#.#.$.Z 0 ..-.b.-.=.j.g.g.E z.[.eX:X] w.-./ o.~ o.>.8.D ~ =.M l l Z H 2 W >.-.#.^ @./ ~ g.g.#.=.>.6.#.R ",
"g.g./ k.{.yXz.S =.w : 6.h.g.: : C 5.g.g.g.;.( h.V./ d s ).:XtX] j v.=.~ j...f 8.8.>.@.@.@.r ; ; N :.J.#.s 6.>.Q m.h.u j.n.0 D 7.",
"-.-.#.-.Z.5Xx.T _ A s $.-.>.f t f @.6.-.g.g.( >.v.=.^ d c.[.4X! j v.=.! $. .Z o.:.,.o.o.#.f e t C ..m.=.A >.=.Q h.>.D g.m.u 0.'.",
"D >.h.D y - ).{.g.g.6.f ~ j.D.O.-  .#.~ g.V./ ^ / g.-.~ w 0 ; ; p T.,.W - W 0.: g v.o.=.8.=.#.y.c : h.:.~ o.o.@.f D g.m.m.D 9XpX",
"O...1.Z c 2 z./._ g.-.D Q :.5.J q P ....g.j./ / #.>.o...g q 2 1 t D.@.P 0  .6.w N 5...o.,./ / v.Z q :.@.~ o.+. .D W -.j.B.I <XiX",
"r 0 : O...M s d Q =.g.h.~ f : N D.0 q @.=.g.g./ ~ #.D p X.{ k 3 4 V 4 2 o.o.o.8...0 f B ~ Q _ J.>...: M #.8...- $.>./ -.v.l.;XuX",
"t r 0  .{ M m B / -.,.>.! B 0 N 6.t t o.:.g.g.g.o.#.Q B ..P l e 4 V q t o.....8...t B R #.( _ m.>...0 N $.6.{ : @.:.~ >.r.;. X8X",
"..:.0.C a q l n ~ h.m.y W 8.0.@.f 5.@.A D #.C.j.>.Q >.G.N C @.C c ; O.j.J.#.s o.o...v.C.C.=./ ;.b.m.o.@...A V V r f o.o.Q 2 K T ",
"o.$.6.N a K [ |  .r.v.w R 8.<.X.f 5.@.t ~ -.m.g.g.^ g.C.B B @.Z c : ..8.C./ h ..#.o.m.m.n.=./ g.b.m...o.o.B N B t M =.~ W 0 h / ",
"#.B t ; ` rXiXqX2 W =.,.:.o.0 q M X. .: o.6./ h.m./ =.g.#...o.,.5.l R #.g.k.b./ #.>.#.D 0 Z #.,.g.>.A D o.6.=.X.N Z ,./ o.<.,.,.",
"~ P r ; ] 8XtXwX2 Z @.8.$...0 q B ..D : X.6...7.D...=.,.#.o...6.$.M W #.-.k.V.` ` <.=.P ; L :.>.,.>.g Z o.8.>.~ N R w.` ) ,.,.g.",
",.&.+.0 T -X:X{.1 r f 0.Z 2 :.:...5.8.6.Z r 0 q t w D #.~ $.j.t w X.o.o.s b.=X7X].i @.P : v N h ~ ,.@.N 0 :.,.>.^ B.rXz.E o.g.V.",
"g.-.o.w T {.-X[.1 4 p 8.C : 8.:...>.8.j.B q 4 2 : q N @...$.0.w q @.o.~ t B.=XeX Xq X.{ ; c M f ~ ,.#.N : :.,.,.Q B.tXZ.R ~ g.V.",
";.g.M.q w K Y Y 2 V @.8.{ e ..#.~ #...A o.:.P o.:.D.X.t X.P 0 J ..X.:.>.o.j s :XZ.; A M e { &.n.>...0 M @.N R =.B g j j B ~ ;.g.",
";.v.G.w 2 q s t ; C &.8.{ q ~ ~ o.o.~ s &.r.U ) h.G.@.4 +.C -  .@.X.>.,.:.s 2 ,XY.% f m r { 5.J.8. .2 V @.f B o.A p ; r B ..-.,.",
"~ -.8.q 4 b @.@.c { X.w Z 6.v.,...B Z 6.j E 7X^.R Q c 2 e c O.l l N ..o.N f i I g p W X. .t w Z A r ; C 6.~ ..o.X.P c b N o.o.#.",
"~ :.0.0 2 m :.6.M  .O.: D n.C.v.~ N D v.i K tX].B C q ; ; t 2.q 2 V  .X.f M g ; 0 M ~ o.@.q : M l q 1 Z n.o.~ ..o.X.N m N ..o.~ ",
"@.B t 5.5.W #...q +.q.D N M g.-...p N >.^./.` K w  .@.9.J @.D.M 4 9 k N  .@.&.c N ..h.8.~ @.@...{ { r x M j.,.~ >.o.M P ~ >.#.~ ",
"&.N - n.m.Q ~ Q 0 X.y.:.V q >.>.%.p N >.;X;X1 1 2 ..8.T.$.6.T.N 2 1 4 c o.6.6.A B ..C.b.Q >.h...$.+.k r t G.v.Q ,.:.M  .o.h.:.~ ",
"k M P @.,.v.=.! P Z V t V  .&...B t t p Y Y a C { j.:.W t N ,.W J v 4 k o.o.#.#.>.h.-.-.>.#./ #.A t { c 4 N W ~ #.~ 0  .X.D ~ ..",
"- c 7.~ -.C.=.Q @.N 2 ; V 5.@.R a l e > % 1 m W #.J.:.t : r o.@.+.C e 2 o.o.o.g.b.C.#.#.g./ ^ / w : 2.V ; 4 M @.o.D - J @.s D $.",
"J c t ..=.k.>.=.@.c 4 [ V t N  .2.r k H 9 9 P :.8.~ .. .c N o.W N e V J o.W D #.-.g.Q D -.D U S.&.N l M J 4 c @.Z P ..{ Z W R D ",
"&.N ;  .=.,.g.-.o.i 2 3.c ; c { y.0 e 4.k 2 ..v.J.s B $.N C &.N l - J 2.o.Z f ..-.g.A B o.s Y ,XV.R 1 b 2.: c 5.N B j.D s E d u ",
"@.C 2 X.=._ g.h.:.P M +.n 4 x P 8.P N P x m 8.o.Z P P Z W W R P J r c M @.W W Z ..=...J D D U s._ Q 2 n q.q r v C ..g./ ( /.c.d.",
"&.Z e ../ R m.C.,.-.@.&.H 9 k { 0.:.X.m c Z Q.B - @. .c @.W q ~ X.M 4 1 @.@.@.M B @.o...M X.~ y R @.; L 0.c 4 % ..5.g.g.x.6X>X_.",
"M N N h ( Z./ Q g.~ B m x 8 3 b o.R Z M Z P ..Z N J C M f ~ Z.E D  .z 4 C Z Z P D D 8.o.e C  . .V c r J 5.q 5 z c Z g.D S s.f.f.",
"% v q.y ' 5Xh 0 j.W l 2 > > > 2 c M M M X.O.$ Z 3.c V N @ ) 8XT u q.l > k l C 2. .p G.6.- k N q.c ; M J @.4 4 H > 5 2.t - $ 0 s ",
"4 n 2.0 S Z.s e :...F - > 8 b F { c c { Z N 4 x V { V t E a.x.U h  .H b k k l J P B =.#.N J Z V v k C W { e r b 7 9 J l k 9 z c ",
"9 V 2.0 w @.e e o.:.O.. @ 8 1.$.&.2 e q.b 5 x 4 : 1.V ; =XA.@ { @.t 5.0.k 3 ; c Z $.f B j.:. .; k V $.R c r r k 3 8 k c V H k $ ",
"V C J e e F 8 k J J F 8 8 > V J { p M { c 9 9 v m +.F 0 l.` 0 H Z Z ....r 9 8 b Z o.C ..:.W V e V P P Z N V c V k 3 4 n J l k c ",
":.J e v 7   = > k : 4 4.F ; 3 k N +.X.V 4 3 9 { &.@.J r - 2 C 2 r 2.{ b > 8 l c J @.$.@.@.q 4 V X.@.m m N @.@.%.c 9 > | 1.; C 5.",
"..V k k 7 + 7 8 9 3 4 { v 4 % 8 V L Z c k 9 k C  .{ F c 4 k n 2 e { v 9 8 9 v c C ..P R  .4 > v C P N m c C W { c k $ b F 4 c { ",
"V c k > 7 8 V F 9 8 3 9 x n . = C r r 5 n n k c c r l V 3 4 b 4 1 z $ . k b V k c V k r F $ + z 9 5 V r ; r k V H k   = 3 H 9 > ",
"b v k 9 > > l V l k 5 b m b $ 3 b k x x x x k b V l l V 4 k l r 5 l = $ z c v l k c k c F ; @ v x x V k 3 z c c c k + = 4 b 8 = ",
"> k V V x 1 9 l b c N 2.P a V v ; b C b 4 4 V c m N M c V x ; b V n 9 3 H r ; F k ; x c C 5 2 b V V M r ; b k ; l l > 3 3 8 #   ",
"3 k b c 5 % 8 r r m N P V c b l 3 k l l 5 4 c l r M p t V k = v c a r 4 v k 4 v x 4 r c l 4 e l c l M k 2 l r e k k 4 4 3 8 * o ",
"V r ; k 3 . % 4 ; k c : 5 x ; 5 b # + 3 k c 1 2 2 c e ; b e X 8 k 2 k c 1 9 b 2 q c 4 % o 9 G 3 > 2 c c c 2 e V @ # F e 2 b 9 3 ",
"k r > k 3 # = > ; k l > 3 9 1 5 v # + 3 k k 1 > 3 x k > c 3 O 7 8 = r k ; 4 x ; 5 c 3 % . 8 z > = > l c l > 3 G + + b > ; z 8 > ",
". 3 n $ 1 F # o $ # # o # % x 5 # o + # > > # + o # = 3 $ # $ O O O # $ $ # O # 2 b # X o & * $ O O 3 > & . . . o o = $ # . # $ ",
"o = v % % b % + & & $ # O $ x 4 # + # & = 7 % # # # * 7 * $ O O X O O * & O O # > v & X o & * # O O 6 = & X O O X X & & & o O & ",
"X O O o o o z 9 o o # v < X O O o , = o o & b 8 3 o o o v 8 X 6 6 7 & X X * 6 O o o 6 , o * 6 X * 7 O X X X * 7 X X X O O 7 * o ",
"X X o o X X k k o o O n < X X X o , , o X # b k > o o o x 4 X 6 7 7 O X X * 6 o X X 6 = X 6 6 o = 6 o X X X * 7 O X X X O 6 * X "
};
