/* XPM */
static char *result[] = {
/* columns rows colors chars-per-pixel */
"64 64 232 2 ",
"   c #241F3D",
".  c #1D273C",
"X  c #24233E",
"o  c #27263A",
"O  c #36273A",
"+  c #293539",
"@  c #3D3A3D",
"#  c #5C332E",
"$  c #452C36",
"%  c #46393B",
"&  c #5A3433",
"*  c #573738",
"=  c #69382D",
"-  c #7E3F2D",
";  c #773E2C",
":  c #663532",
">  c #653937",
",  c #7B3F33",
"<  c #36493B",
"1  c #3B5D3D",
"2  c #375339",
"3  c #324437",
"4  c #3D7336",
"5  c #4D523A",
"6  c #68453D",
"7  c #7C4132",
"8  c #6B553B",
"9  c #735831",
"0  c #456A3B",
"q  c #48783B",
"w  c #53773F",
"e  c #516234",
"r  c #241F42",
"t  c #221E48",
"y  c #1E2240",
"u  c #252342",
"i  c #282241",
"p  c #262B42",
"a  c #292B44",
"s  c #272048",
"d  c #2A3542",
"f  c #4E3A42",
"g  c #285B47",
"h  c #3B5B43",
"j  c #395649",
"k  c #2C534A",
"l  c #346749",
"z  c #2B6553",
"x  c #2A6B55",
"c  c #2E745A",
"v  c #377659",
"b  c #2D694C",
"n  c #367C63",
"m  c #1B4B48",
"M  c #564A44",
"N  c #435C40",
"B  c #4B4D45",
"V  c #6D4746",
"C  c #6A5443",
"Z  c #715245",
"A  c #7C5548",
"S  c #76534C",
"D  c #476945",
"F  c #487847",
"G  c #5B7D44",
"H  c #587845",
"J  c #457B59",
"K  c #537953",
"L  c #586C4B",
"P  c #6F7148",
"I  c #863E2B",
"U  c #873B29",
"Y  c #823E30",
"T  c #8B422D",
"R  c #83412A",
"E  c #98492E",
"W  c #824233",
"Q  c #8C4432",
"!  c #89483A",
"~  c #954C3A",
"^  c #9A4C37",
"/  c #96523D",
"(  c #A14D35",
")  c #A8583B",
"_  c #B15A3A",
"`  c #916F3E",
"'  c #B4633B",
"]  c #C46B3E",
"[  c #845A48",
"{  c #935848",
"}  c #994F40",
"|  c #AB5B44",
" . c #A85A45",
".. c #B35E45",
"X. c #B55F4A",
"o. c #956650",
"O. c #AA644B",
"+. c #B5624D",
"@. c #BB644B",
"#. c #B96746",
"$. c #B66252",
"%. c #B27252",
"&. c #C26C4B",
"*. c #C9764E",
"=. c #C36E52",
"-. c #CB7B54",
";. c #C87A58",
":. c #D27E51",
">. c #CC7C63",
",. c #4D823D",
"<. c #3E8D5C",
"1. c #3B955B",
"2. c #358E6A",
"3. c #3A8D6D",
"4. c #388965",
"5. c #2F9164",
"6. c #349266",
"7. c #3C9564",
"8. c #3D9A65",
"9. c #34926B",
"0. c #3A946D",
"q. c #39996B",
"w. c #35996C",
"e. c #359372",
"r. c #3B9472",
"t. c #3B9278",
"y. c #328C6A",
"u. c #4D8748",
"i. c #528A45",
"p. c #538B4B",
"a. c #5A8648",
"s. c #55984B",
"d. c #488A56",
"f. c #489A5A",
"g. c #549A57",
"h. c #538F55",
"j. c #638949",
"k. c #68984B",
"l. c #6C9957",
"z. c #759759",
"x. c #758E50",
"c. c #55A54E",
"v. c #49A059",
"b. c #53A45D",
"n. c #57A558",
"m. c #6CA548",
"M. c #77A74B",
"N. c #67AA57",
"B. c #74A551",
"V. c #78A856",
"C. c #6DB85E",
"Z. c #7BB858",
"A. c #449C63",
"S. c #4C9D63",
"D. c #419669",
"F. c #469666",
"G. c #529F64",
"H. c #448E6B",
"J. c #4CA164",
"K. c #49A167",
"L. c #53A462",
"P. c #5CAB63",
"I. c #58A969",
"U. c #5CB265",
"Y. c #65AB68",
"T. c #63B265",
"R. c #69B665",
"E. c #75B966",
"W. c #78C35F",
"Q. c #7CC463",
"!. c #7BC569",
"~. c #9B8F55",
"^. c #AE9050",
"/. c #84BC49",
"(. c #88A656",
"). c #84B856",
"_. c #99B65B",
"`. c #A0BE5A",
"'. c #8EB668",
"]. c #97956B",
"[. c #CA8257",
"{. c #D28258",
"}. c #D8B35C",
"|. c #89C65A",
" X c #94CA59",
".X c #94D45A",
"XX c #9CDD5C",
"oX c #96D858",
"OX c #8CD354",
"+X c #95E54D",
"@X c #9BE44B",
"#X c #9BEA4C",
"$X c #94EA4E",
"%X c #95E551",
"&X c #9BE553",
"*X c #9BE953",
"=X c #9DE35A",
"-X c #9EEC5A",
";X c #96EA53",
":X c #A2EA4D",
">X c #A3EB54",
",X c #AAEC54",
"<X c #A4E65C",
"1X c #A4EB5C",
"2X c #ABEC5B",
"3X c #A9E65A",
"4X c #B3EE5C",
"5X c #B0E955",
"6X c #AAF157",
"7X c #B2F15B",
"8X c #B8F25A",
"9X c #82CB65",
"0X c #82C96A",
"qX c #8ACB67",
"wX c #94C765",
"eX c #8BD763",
"rX c #93D463",
"tX c #97D868",
"yX c #9DCA74",
"uX c #A2DD63",
"iX c #9EE564",
"pX c #A4E363",
"aX c #ACEC64",
"sX c #A9E667",
"dX c #B3ED63",
"fX c #B5E66A",
"gX c #B3F164",
"hX c #B9EA72",
"jX c #A7D959",
"kX c #C2C37B",
"lX c #EEE277",
"zX c None",
/* pixels */
"zXzXzXzXzXzXzXzXzXzXzXzXzXzXzXzXzXzXzXzXzXzXzXzXzXzXzXzXzXzXzXzXzXzXzXzXzXzXzXzXzXzXzXzXzXzXzXzXzXzXzXzXzXzXzXzXzXzXzXzXzXzXzXzX",
"zXzXzXzXzXzXzXzXzXzXzXzXzXzXzXzXzXzXzXzXzXzXzXzXzXzXzXzXzXzXzXzXzXzXzXzXzXzXzXzXzXzXzXzXzXzXzXzXzXzXzXzXzXzXzXzXzXzXzXzXzXzXzXzX",
"zXzXzXzXzXzXzXzXzXzXzXzXzXzXzXzXzXzXzXzXzXzXzXzXzXzXzXzXzXzXzXzXzXzXzXzXzXzXzXzXzXzXzXzXzXzXzXzXzXzXzXzXzXzXzXzXzXzXzXzXzXzXzXzX",
"zXzXzXzXzXzXzXzXzXzXzXzXzXzXzXzXzXzXzXzXzXzXzXzXzXzXzXzXzXzXzXzXzXzXzXzXzXzX2 5 l.V.B.B.B.B.B.V.k.1 < zXzXzXzXzXzXzXzXzXzXzXzXzX",
"zXzXzXzXzXzXzXzXzXzXzXzXzXzXzXzXzXzXzXzXzXzXzXzXzXzXzXzXzXzXzXzXzXzXzXzXa.)./.|.oX6X-X:X>X*X>X-XiX).Z.(.a.N zXzXzXzXzXzXzXzXzXzX",
"zXzXzXzXzXzXzXzXzXzXzXzXzXzXzXzXzXzXzXzXzXzXzXzXzXzXzXzXzXzXzXzXzXzXzXk.tX1X#X@X@X@X@X@X@X@X@X@X&X;X>X:XOX|.k.w D zXzXzXzXzXzXzX",
"zXzXzXzXzXzXzXzXzXzXzXzXzXzXzXzXzXzXzXzXzXzXzXzXzXzXzXzXzXzXzXzXzXL V.XX*X@X:X2X7X7X7X7X5X7X5X7X7X7X:X@X@X#X&XtXV.j zXzXzXzXzXzX",
"zXzXzXzXzXzXzXzXzXzXzXzXzXzXzXzXzXzXzXzXzXzXzXzXzXzXzXzXzXzXzXzXG ).pX2X7XgX2X9XQ.9X9X0X9X9X0X9X9X|.sX8X4X,X:X:X XH zXzXzXzXzXzX",
"zXzXzXzXzXzXzXzXzXzXzXzXzXzXzXzXzXzXzXzXzXzXzXzXzXzXzXzXzXzX5 x. X2X2XtXE.C.T.8.5.6.9.9.w.9.9.9.9.7.U.E.Z.rXgX7X8XjXz.D zXzXzXzX",
"zXzXzXzXzXzXzXzXzXzXzXzXzXzXzXzXzXzXzXzXzXzXzX].kX~.zXzXzXzXV.uXgXfXqXL.4.2.3.w.9.w.0.w.0.0.q.9.9.r.9.6.w.S.P.P.C.uXdX'.H zXzXzX",
"zXzXzXzXzXzXzXzXzXzXzXzXzXzXzXzXzXzXzXzXzXzXzX~.lXlX~.zXzXe wXsXR.G.8.9.0.0.e.e.r.r.r.0.D.0.0.0.r.r.9.w.q.9.3.0.8.f.N.tX'.z.zXzX",
"zXzXzXzXzXzXzXzXzXzXG j.j.G a.j.G j.j.j.zXzXC ~.}.}.^.8 B x.'.I.9.e.2.q.r.t.t.H.H.c z z z z z x 3.t.e.q.A.L.b.b.c.f.v.n.R.'.K zX",
"zXzXzXzXzXzXzXzXk.m..X=XXXXX=X=X=X<X<XoXM.k.P C 9 ` [.` 5 Y.G.y.e.e.q.7.n z g z l F a.a.s.j.a.p.z g b d.h.p.i.,.w ,.q F v D zXzX",
"zXzXzXzXzXzXG ).=X-X+X@X:X:X,X>X2XgXgXgXgXfXwX(.(.x.P P j n t.e.0.0.3.c F z.z.M.M..X-X*X-X*X-XXXm.m.k.q zXzXzXzXzXzXzXzXzXzXzXzX",
"zXzXzXzXzXF |.-X$X+X,X5X5X3XsXsXtXY.P.P.C.n.T.Y.Y.F.l B J e.e.r.4.v b u.).<X>X3X=X;X$X#X#X*X%X&X-X<X&XOX|.B.zXzXzXzXzXzXzXzXzXzX",
"zXzXzXzX5 B.<X:X1X1X<XuXtXE.b.J.F.0.e.r.e.r.9.9.q.r.x m 3.q.e.n l l k.OX>X#X@X#X&X&X>X,X5X,X&X#X@X@X@X#X-XXXoX).zXzXzXzXzXzXzXzX",
"zXzXzXzXj.XX,X3XtX0XI.F.F.7.e.e.e.t.4.x l x x d.L.b.d.1 c f.v F Z.oX-X#X:X6X6X6X4XdXtXeX.XXX6X7X7X6X>X&X&X*X#X&XXX Xj.zXzXzXzXzX",
"zXzXzXG /.dXsXR.7.4.3.r.q.w.t.n g g l p.j.a.p.F 4 4 0 1 + k < (.1X#X6XaXaX9XW.Q.0X!.b.<.d.L.Q.|.W.|.aXdX4X,X:X#X#X1X|.e zXzXzXzX",
"zXzXzX(.hXtXP.6.9.9.q.r.3.n x F V.N.Z.XX*X&X=X|.m.m.M.(.x.@ 3 M.aX2XrXE.L.0.5.5.9.5.9.e.e.e.7.2.9.7.U.R.C.eXaX1X>X>XXXk.N zXzXzX",
"zXzXe `.tXS.2.0.0.9.q.v l h a..XiX-X;X#X@X+X+X&X1X2XdXdXuXyX(.j.V.0XS.8.1.J.v.A.A.A.K.K.K.K.F.0.r.r.e.e.6.8.U.!.iXaX6XoXH zXzXzX",
"zXzX(.hXR.5.e.3.7.7.c F V. XXX-X;X%X@X@X@X,X,X4X4XuXqXg.J.K.J.4.2 v n.g.u.p.i.,.i.p.s.s.s.s.s.L.S.K.D.r.q.6.9.0.A.U.eXgX X0 zXzX",
"zXzX`.0X7.8.L.b.f.b F |.=X:X*X%X%X@X3X4X4XXXrXwXR.A.7.3.e.e.q.3.m 2 K h + o . + o + zXzXzXzXzXs.p.p.g.L.L.L.A.0.9.1.J.9XuXL zXzX",
"zXzXl.E.n.p.q 4 0 k..X<X&X@X%X;X@X6X<XwXE.S.3.0.6.6.9.7.7.A.c.g.j o . X u y . t t y a zXzXzXzXzXzXzXzXp.H q p.n.n.v.1.v.E.'.L zX",
"zXzXzXi.0 zXzXzX1  X6X&X%X+X;X1XgXtXR.F.2.r.e.0.8.A.S.n.c.s.1 5 + r r X u o u i t u X p zXzXzXzXzXzXzXzXzXzXzXzX4 ,.s.c.g.E.L zX",
"zXzXzXzXzXzXzXzXa. X>X&X@X>X1XeXY.S.4.9.9.A.S.g.g.s.i.1 k + o   O O o u i X i i i r X i p zXzXzXzXzXzXzXzXzXzXzXzXzXzX0 F K h zX",
"zXzXzXzXzXzXzXzXwX<X&X@X6X=XQ.1.2.3.9.q.f.s.p.D 2 zXzXzXzXy o * 7 ; & O X i i i i r   i X X zXzXzXzXzXzXzXzXzXzXzXzXzXzXzXzXzXzX",
"zXzXzXzXzXzXzXw XX*X+X*XeXT.7.9.0.q.A.f.u.1 zXzXzXzXzXzXzX@ C 7 U T R & o s i i i u r u r   a zXzXzXzXzXzXzXzXzXzXzXzXzXzXzXzXzX",
"zXzXzXzXzXzXzXH .X>X*XiXR.4.0.0.1.f.g.F zXzXzXzXzXzXzXzXzXB %.) U U R 7 $ u u s u i X u i i u o zXzXzXzXzXzXzXzXzXzXzXzXzXzXzXzX",
"zXzXzXzXzXzXzXw OX>XiXQ.S.3.9.8.f.h.D zXzXzXzXzXzXzXzXzXzXzXZ %.( U ; U > O     u u u u u u u p zXzXzXzXzXzXzXzXzXzXzXzXzXzXzXzX",
"zXzXzXzXzXzXzXj.oX1XtXL.2.9.K.v.u.N zXzXzXzXzXzXzXzXzXzXzXzXzXo.#.E E ( / V O   u p y . y u u X p zXzXzXzXzXzXzXzXzXzXzXzXzXzXzX",
"zXzXzXzXzXzXK wX1X=XP.2.9.f.f.F zXzXzXzXzXzXzXzXzXzXzXzXzXzXzX* O.[.*.:.#.I $ O a a u u u u u u p zXzXzXzXzXzXzXzXzXzXzXzXzXzXzX",
"zXzXzXzXzXzXG XXiXQ.D.w.f.p.D zXzXzXzXzXzXzXzXzXzXzXzXzXzXzXzX% o.[.#.@._ U = $ zXzXzXzXo X u u p p zXzXzXzXzXzXzXzXzXzXzXzXzXzX",
"zXzXzXzXzXzXw iXeXv.8.b.u.D zXzXzXzXzXzXzXzXzXzXzXzXzXzXzXzXzXzX8 %.*.#.| ( , & zXzXzXzXzXzXzXp y p zXzXzXzXzXzXzXzXzXzXzXzXzXzX",
"zXzXzXzXzXzXG fXeXb.d.F zXzXzXzXzXzXzXzXzXzXzXzXzXzXzXzXzXzXzXzX3  .{.%.+.| I > f zXzXzXzXzXzXzXa d zXzXzXzXzXzXzXzXzXzXzXzXzXzX",
"zXzXzXzXzXzXK '.U.f.h zXzXzXzXzXzXzXzXzXzXzXzXzXzXzXzXzXzXzXzXzX% o.;.) | ( ^ Y > zXzXzXzXzXzXzXzXzXzXzXzXzXzXzXzXzXzXzXzXzXzXzX",
"zXzXzXzXzXzXzXh d.J zXzXzXzXzXzXzXzXzXzXzXzXzXzXzXzXzXzXzXzXzXzXB S O.) _ _ _ =.{ f zXzXzXzXzXzXzXzXzXzXzXzXzXzXzXzXzXzXzXzXzXzX",
"zXzXzXzXzXzXzXj K 2 zXzXzXzXzXzXzXzXzXzXzXzXzXzXzXzXzXzXzXzXzXzXzXf [ {.-.-.*.+.! $ zXzXzXzXzXzXzXzXzXzXzXzXzXzXzXzXzXzXzXzXzXzX",
"zXzXzXzXzXzXzXzX1 zXzXzXzXzXzXzXzXzXzXzXzXzXzXzXzXzXzXzXzXzXzXzXzX5 [ {.#.X.+. .W > f zXzXzXzXzXzXzXzXzXzXzXzXzXzXzXzXzXzXzXzXzX",
"zXzXzXzXzXzXzXzXzXzXzXzXzXzXzXzXzXzXzXzXzXzXzXzXzXzXzXzXzXzXzXzXzXzXZ %.@.$.+.O.^ 7 % zXzXzXzXzXzXzXzXzXzXzXzXzXzXzXzXzXzXzXzXzX",
"zXzXzXzXzXzXzXzXzXzXzXzXzXzXzXzXzXzXzXzXzXzXzXzXzXzXzXzXzXzXzXzXzXzX6 { ;.@.$.+.{ ! * zXzXzXzXzXzXzXzXzXzXzXzXzXzXzXzXzXzXzXzXzX",
"zXzXzXzXzXzXzXzXzXzXzXzXzXzXzXzXzXzXzXzXzXzXzXzXzXzXzXzXzXzXzXzXzXzXzXA -.&.X.X.) Q , & zXzXzXzXzXzXzXzXzXzXzXzXzXzXzXzXzXzXzXzX",
"zXzXzXzXzXzXzXzXzXzXzXzXzXzXzXzXzXzXzXzXzXzXzXzXzXzXzXzXzXzXzXzXzXzXzXA *._ ( _ | ) } > zXzXzXzXzXzXzXzXzXzXzXzXzXzXzXzXzXzXzXzX",
"zXzXzXzXzXzXzXzXzXzXzXzXzXzXzXzXzXzXzXzXzXzXzXzXzXzXzXzXzXzXzXzXzXzXzX[ {.] ] ' &.| ~ > zXzXzXzXzXzXzXzXzXzXzXzXzXzXzXzXzXzXzXzX",
"zXzXzXzXzXzXzXzXzXzXzXzXzXzXzXzXzXzXzXzXzXzXzXzXzXzXzXzXzXzXzXzXzXzXzX[ {.*.=.=.@. .Q & zXzXzXzXzXzXzXzXzXzXzXzXzXzXzXzXzXzXzXzX",
"zXzXzXzXzXzXzXzXzXzXzXzXzXzXzXzXzXzXzXzXzXzXzXzXzXzXzXzXzXzXzXzXzXzXzXS %.&.X.X.@.+.~ # zXzXzXzXzXzXzXzXzXzXzXzXzXzXzXzXzXzXzXzX",
"zXzXzXzXzXzXzXzXzXzXzXzXzXzXzXzXzXzXzXzXzXzXzXzXzXzXzXzXzXzXzXzXzXzXzXzX[ {.#.#.@.+.~ ; & zXzXzXzXzXzXzXzXzXzXzXzXzXzXzXzXzXzXzX",
"zXzXzXzXzXzXzXzXzXzXzXzXzXzXzXzXzXzXzXzXzXzXzXzXzXzXzXzXzXzXzXzXzXzXzXzXV [.#...@.X.~ I & zXzXzXzXzXzXzXzXzXzXzXzXzXzXzXzXzXzXzX",
"zXzXzXzXzXzXzXzXzXzXzXzXzXzXzXzXzXzXzXzXzXzXzXzXzXzXzXzXzXzXzXzXzXzXzXzXZ ;.@.+.+.#.^ 7 & zXzXzXzXzXzXzXzXzXzXzXzXzXzXzXzXzXzXzX",
"zXzXzXzXzXzXzXzXzXzXzXzXzXzXzXzXzXzXzXzXzXzXzXzXzXzXzXzXzXzXzXzXzXzXzXzXC [.@...@.| ^ , & zXzXzXzXzXzXzXzXzXzXzXzXzXzXzXzXzXzXzX",
"zXzXzXzXzXzXzXzXzXzXzXzXzXzXzXzXzXzXzXzXzXzXzXzXzXzXzXzXzXzXzXzXzXzXzXzXZ ;...)  . .( ~ > zXzXzXzXzXzXzXzXzXzXzXzXzXzXzXzXzXzXzX",
"zXzXzXzXzXzXzXzXzXzXzXzXzXzXzXzXzXzXzXzXzXzXzXzXzXzXzXzXzXzXzXzXzXzXzXzXZ [.#.) _ =.@.} 6 zXzXzXzXzXzXzXzXzXzXzXzXzXzXzXzXzXzXzX",
"zXzXzXzXzXzXzXzXzXzXzXzXzXzXzXzXzXzXzXzXzXzXzXzXzXzXzXzXzXzXzXzXzXzXzXzXZ [.*.*.*.#.( R & zXzXzXzXzXzXzXzXzXzXzXzXzXzXzXzXzXzXzX",
"zXzXzXzXzXzXzXzXzXzXzXzXzXzXzXzXzXzXzXzXzXzXzXzXzXzXzXzXzXzXzXzXzXzXzXzX8 -.&.#.@._ ( I & zXzXzXzXzXzXzXzXzXzXzXzXzXzXzXzXzXzXzX",
"zXzXzXzXzXzXzXzXzXzXzXzXzXzXzXzXzXzXzXzXzXzXzXzXzXzXzXzXzXzXzXzXzXzXzXzXC -.&...@.X.( Y & zXzXzXzXzXzXzXzXzXzXzXzXzXzXzXzXzXzXzX",
"zXzXzXzXzXzXzXzXzXzXzXzXzXzXzXzXzXzXzXzXzXzXzXzXzXzXzXzXzXzXzXzXzXzXzXzXV >.@.+.$.X.~ 7 & zXzXzXzXzXzXzXzXzXzXzXzXzXzXzXzXzXzXzX",
"zXzXzXzXzXzXzXzXzXzXzXzXzXzXzXzXzXzXzXzXzXzXzXzXzXzXzXzXzXzXzXzXzXzXzXM { ;.@.+.+. .! W & zXzXzXzXzXzXzXzXzXzXzXzXzXzXzXzXzXzXzX",
"zXzXzXzXzXzXzXzXzXzXzXzXzXzXzXzXzXzXzXzXzXzXzXzXzXzXzXzXzXzXzXzXzXzXzXA >.&.X.$.X.~ I , & zXzXzXzXzXzXzXzXzXzXzXzXzXzXzXzXzXzXzX",
"zXzXzXzXzXzXzXzXzXzXzXzXzXzXzXzXzXzXzXzXzXzXzXzXzXzXzXzXzXzXzXzXzXzXzXS >.} ~ ^ ^ Q I , & zXzXzXzXzXzXzXzXzXzXzXzXzXzXzXzXzXzXzX",
"zXzXzXzXzXzXzXzXzXzXzXzXzXzXzXzXzXzXzXzXzXzXzXzXzXzXzXzXzXzXzXzXzXzXzXS ;.U U U U I I W & zXzXzXzXzXzXzXzXzXzXzXzXzXzXzXzXzXzXzX",
"zXzXzXzXzXzXzXzXzXzXzXzXzXzXzXzXzXzXzXzXzXzXzXzXzXzXzXzXzXzXzXzXzXzXM o.+.E U Y I Q W W & zXzXzXzXzXzXzXzXzXzXzXzXzXzXzXzXzXzXzX",
"zXzXzXzXzXzXzXzXzXzXzXzXzXzXzXzXzXzXzXzXzXzXzXzXzXzXzXzXzXzXzXzXzXzXM A ; : : : > : : > * zXzXzXzXzXzXzXzXzXzXzXzXzXzXzXzXzXzXzX",
"zXzXzXzXzXzXzXzXzXzXzXzXzXzXzXzXzXzXzXzXzXzXzXzXzXzXzXzXzXzXzXzXzXzXzXzXzXzXzXzXzXzXzXzXzXzXzXzXzXzXzXzXzXzXzXzXzXzXzXzXzXzXzXzX",
"zXzXzXzXzXzXzXzXzXzXzXzXzXzXzXzXzXzXzXzXzXzXzXzXzXzXzXzXzXzXzXzXzXzXzXzXzXzXzXzXzXzXzXzXzXzXzXzXzXzXzXzXzXzXzXzXzXzXzXzXzXzXzXzX",
"zXzXzXzXzXzXzXzXzXzXzXzXzXzXzXzXzXzXzXzXzXzXzXzXzXzXzXzXzXzXzXzXzXzXzXzXzXzXzXzXzXzXzXzXzXzXzXzXzXzXzXzXzXzXzXzXzXzXzXzXzXzXzXzX"
};
