/* XPM */
static char *f1324cfdbb3042ecd7a3b6637d933c27mifFyhLN1j9KeeSn[] = {
/* columns rows colors chars-per-pixel */
"64 64 157 2 ",
"   c None",
".  c #75111D",
"X  c #84141F",
"o  c #8E141E",
"O  c #91141E",
"+  c #9D171F",
"@  c #95191F",
"#  c #A0171F",
"$  c #A1191F",
"%  c #A9181F",
"&  c #871420",
"*  c #8E1320",
"=  c #911421",
"-  c #9E1722",
";  c #9C1924",
":  c #A01620",
">  c #AF1724",
",  c #A21922",
"<  c #AF1923",
"1  c #B21924",
"2  c #BC1C27",
"3  c #B31C28",
"4  c #BD1C28",
"5  c #C11C26",
"6  c #CB1C27",
"7  c #C61D29",
"8  c #C91B28",
"9  c #CA1B28",
"0  c #CB1B28",
"q  c #CB1B29",
"w  c #CA1B2A",
"e  c #CC1B29",
"r  c #CE1B2A",
"t  c #C81C28",
"y  c #C91C28",
"u  c #C81C29",
"i  c #C81D29",
"p  c #CB1C28",
"a  c #CB1D28",
"s  c #CB1C29",
"d  c #C91E28",
"f  c #CA1E28",
"g  c #CA1E29",
"h  c #C81D2A",
"j  c #C91D2B",
"k  c #CB1D2A",
"l  c #CA1D2B",
"z  c #CB1D2B",
"x  c #CA1E2A",
"c  c #CA1E2B",
"v  c #CB1E2B",
"b  c #CC1C28",
"n  c #CC1D28",
"m  c #CC1C29",
"M  c #CD1C29",
"N  c #CC1D29",
"B  c #CF1C28",
"V  c #CE1C29",
"C  c #CE1D29",
"Z  c #CC1C2A",
"A  c #CD1C2A",
"S  c #CC1D2A",
"D  c #CF1D2B",
"F  c #CC1E2A",
"G  c #CD1E2A",
"H  c #CC1F2A",
"J  c #CF1E2A",
"K  c #CB1C2C",
"L  c #D01D27",
"P  c #D21C27",
"I  c #D21D27",
"U  c #D61C27",
"Y  c #D01B29",
"T  c #D51B28",
"R  c #D61B28",
"E  c #D71B28",
"W  c #D61B29",
"Q  c #D71B29",
"!  c #D51B2A",
"~  c #D61B2A",
"^  c #D71B2A",
"/  c #D71B2B",
"(  c #D01D28",
")  c #D11D28",
"_  c #D01C29",
"`  c #D11C29",
"'  c #D01D29",
"]  c #D21C28",
"[  c #D31C28",
"{  c #D21D28",
"}  c #D31D28",
"|  c #D21C29",
" . c #D31C29",
".. c #D21D29",
"X. c #D31D29",
"o. c #D01D2A",
"O. c #D31C2A",
"+. c #D01E2A",
"@. c #D51C28",
"#. c #D51C29",
"$. c #D41D29",
"%. c #D51D29",
"&. c #D61C28",
"*. c #D71C28",
"=. c #D61D28",
"-. c #D61C29",
";. c #D71C29",
":. c #D61D29",
">. c #D71D29",
",. c #D41E29",
"<. c #D51C2A",
"1. c #D51D2A",
"2. c #D61C2A",
"3. c #D71C2A",
"4. c #D71D2A",
"5. c #D71C2B",
"6. c #D61D2B",
"7. c #D71D2B",
"8. c #D51E2A",
"9. c #D41E2B",
"0. c #D51E2B",
"q. c #D61E2B",
"w. c #D71D2C",
"e. c #D41E2C",
"r. c #D71E2C",
"t. c #D81C29",
"y. c #D91C29",
"u. c #D91D29",
"i. c #DA1C29",
"p. c #DA1D29",
"a. c #DB1D29",
"s. c #D91E29",
"d. c #D81C2A",
"f. c #D91C2A",
"g. c #D81D2A",
"h. c #D91D2A",
"j. c #D81C2B",
"k. c #D81D2B",
"l. c #DB1C2A",
"z. c #DA1D2A",
"x. c #DB1D2A",
"c. c #DB1C2B",
"v. c #DA1D2B",
"b. c #DA1E2A",
"n. c #DB1E2A",
"m. c #DA1E2B",
"M. c #DB1E2B",
"N. c #DC1D2A",
"B. c #DC1D2B",
"V. c #DC1E2A",
"C. c #DC1E2B",
"Z. c #DA1E2D",
"A. c #DC1D2C",
"S. c #DC1E2C",
"D. c #DD1E2C",
"F. c #DC1E2D",
"G. c #DC1F2D",
/* pixels */
"                                                                                                                                ",
"      X O O o o o o o * o * * * o * * O * * * o = &                           . * = * * o = * * o = o o * o o * * o o O * X     ",
"    , M G.e.=.e.U =.0.e.Z.=.e.=.e.n.=.=.n.e.e.Z.Z.v 3                       * > e.Z.Q Z.=.e.n./ Z.e.Z.=.n.Q e.e.n.e.=.Z.e.h ;   ",
"    # M Z./ =.=.U =.=.=.Q / / j.=.Q =.Q Q Q / / Z.p 1                         > O.Z.Q Q Z.Q Q Q Q / / =./ / / / =./ / j.=.7 -   ",
"    # 0 N.*.=.=.=.O.=.O.Q =.Q =.=.Q =./ Q =.O./ n.M 1                         > L / / =.Q =.Q =.Q Q / =.Q O.Q O.=.Q =./ O.7 ;   ",
"    + 6 N.*.Q =.=.=.Q / =.Q O./ O.Q Q =.O.Q =.=.Z.p 3                         > L n.*.U O./ =.O.Q =.=.Q Q =.=./ Q =.Q n.=.h ;   ",
"    # p N.*.U =./ =.Q =.O./ =.Q / =.O.Q =.Q O.Q n.0 1                         > O.n.O.Q =.Q =.Q =.Q =.=.=.Q O.=.=.Q =./ e.h ,   ",
"    # 0 N.*.=.=.O.Q =.Q =.=.Q =.=.Q =.=./ =.=.Q n.0 1                         > O.n.=.=./ =./ =.Q =.Q O./ =.=.Q Q =.Q =.Q v -   ",
"    : p n.=.Q =.=.Q =.Q =.Q O.=.O.=.Q =.Q O.O.=.Z.M 1                         > ,.n.=.=./ =.Q Q Q =.Q =./ =.O.Q =./ Q n.O.7 -   ",
"    : p n.Q =.Q / =.O.Q / =.=.Q Q =.=./ Q =.Q =.Z.M 1                         < ,.s.=.=.=.Q O.=.O./ =.O.=.Q =.=.=.O.=./ Q 7 :   ",
"    # p n.Q Q =.=.=.Q =.=.Q / =.=./ Q =.=.Q O.O.n.e 1                         > O.n.=.Q O.=.=.Q =.Q =.Q Q O.=./ Q =./ Q =.h -   ",
"    : p N.U =.Q Q O.=./ / =.O.Q Q =.O./ / =.=.Q Z.e 1                         > O.=.Q =.Q =./ =./ =./ =.Q =.Q =.=.Q O.n.Q v -   ",
"    : p N.=.=.=.=.Q Q =.=.=.Q =.=.Q O.=.=.Q Q =.n.M 1                         3 O.n.=.Q =.Q Q O.=.=.Q =.Q =./ O.O.Q Q n.O.h -   ",
"    + M N.Q =.Q / =.O./ Q O.=./ / =.=.Q Q =.O.O./ e 1                         < L n.Q =.Q =.=./ Q O.=./ =.O.=.Q =.=.Q / =.h -   ",
"    : e n.=.Q =.=.Q Q =.=./ Q O.=.Q Q =.=.Q =.Q Z.M 1                         < O.n.U =.=.Q O.=.=./ Q O.=.Q =.O.Q =.Q =.e.h -   ",
"    # b Z.Q =.Q =.O.=.O.Q =.Q =.O.Q =.Q =.O.Q Q Z.M 1                         < O.*.U =.Q =.=.Q Q =.Q =./ =.Q Q =.Q Q n.=.v -   ",
"    : 0 N.*.U =.=./ =.=.Q =.Q =./ =./ =.Q Q O.=.Z.e 1                         < O.=.=.Q =./ =.O.O.=./ =.Q =./ O.=.Q =.n.=.p -   ",
"    # b N.*.Q =.Q =.Q O.=./ =.O.O.Q =.Q O.=.=.Q n.e 1                         > O.n.Q =.Q =.Q Q =.Q O.Q =.O.=.Q / =.Q / =.7 -   ",
"    : b N.Q =.Q Q O.Q =.Q Q =.Q =./ =.=.O.Q O.Q Z.e 1                         > O.n.Q O.O.=./ =.O.Q =.Q =.Q =.O.=.=.Q Z.e.7 -   ",
"    : M N.=.Q =.=./ =.O.O.=./ =.Q =.Q O.=.=./ =.Z.M 1                         > L n.=./ =.Q =.Q =.=./ =./ =.Q Q Q O.=.e.=.h -   ",
"    # b N.=.=.=.=.Q =.Q Q =.Q =.=.O./ =.Q =.O.Q n.0 1                         1 O.N.U =.=./ =.=.Q =.Q =./ =./ =.Q =.Q n.e.h -   ",
"    : b V.=.=.Q O.Q / =.O./ =.O.Q Q =.Q =./ O.=.Z.p 1                         < O.*.=.=.Q =.Q O.=./ =.O.O.Q =.Q =.O.Q j.Q h -   ",
"    : M N.=.Q =./ =.O.Q =.Q =.Q =./ O.=.=.Q Q =.n.M 1                         < O.n.=.Q Q O.Q =.Q Q =.Q =./ =.=.Q =.Q =.e.h -   ",
"    + M N.Q =.Q =.Q =.=./ =./ =.Q =.Q =./ =.O.Q Z.M 1                         < L n.Q =.=./ =.O.O.=./ =.Q =.Q O.O.Q Q Z.=.h -   ",
"    : M N.U =.Q =.Q =.Q / =.Q Q O.=./ =.O.=.Q Q Z.0 1                         < O.n.U Q =.Q =.Q Q =.=.Q O./ =.Q =.Q =.n.=.u -   ",
"    : 6 N.Q =.=.Q =.Q =.=.Q O.=.=.Q O.Q Q =.O.=.Z.0 1                         < O.Z.Q =.=.O.Q =.=.O./ =.=.=.Q =.Q =.Q / e.u -   ",
"    : 0 n.=.Q =.Q =.=./ O.=.=.Q O.Q =.Q =./ Q =.Z.M 1                         < O.n.Q =.Q =.Q Q Q =.=.Q Q =./ O.=.=.Q n.=.u -   ",
"    # b n.Q =.Q =.O.Q =.Q =./ =.=.=./ =.Q =.O.Q n.M 1                         < O.e.Q Q =.Q O.=.O./ O./ =.Q =.Q / O.=.e.O.u -   ",
"    # M N.=.Q =./ =./ =.Q O.Q O.Q =.Q =./ =.O.=.n.p 1                         1 O.n.Q =./ =.Q =.=.Q =./ =./ O.=.=./ Q =.=.u -   ",
"    : 6 N.=.=.Q O.Q =.Q Q =.=./ =./ =.O.O.Q O.Q n.6 1                         < O.Z.Q O.O.Q =.O.Q =.=.O.Q =.=.Q Q =.Q n.e.u -   ",
"    # M N.*.U =.=./ =.=.=.Q O.=.Q Q =.Q =./ O.=.n.p 1                         < O.=.O./ =.Q =./ =.O.Q =.=.Q Q =.=./ Q =.e.u -   ",
"    # M N./ U =.Q =.Q O./ =.=.Q O.=./ =.Q =.=.Q Z.p 1                         < O.Z./ =.Q =.Q =.Q / =.Q O./ =.Q =.O.Q Z.=.7 -   ",
"    + M n.Q Q =.Q =.Q =./ =.O.Q Q =.Q =./ =.O.Q n.b 1                         < O.n.O.=.Q O./ O.=.Q =./ =.Q =.Q O.=.Q =.e.h -   ",
"    # p n.Q =.Q O./ =.O.=.Q =.=.O./ =.O.=.Q =.=.n.b 1                         < O.n.Q Q Q =.=.Q Q =.=.O.O.Q Q =.=.Q Q n.=.h -   ",
"    , 6 n.Q Q =.=.Q =.Q Q O.=./ =.Q =.Q Q O.O.Q n.p 1                         3 M n.Q O.=.Q O.=.=.O.Q =.Q =.=.O.Q O.=.n.=.7 -   ",
"    # M N.U =.Q / =./ =.Q =.Q =./ =./ =.Q =.=.O.n.p 1                         < O.Z.Q Q Q =.=.Q Q / =.Q =.U Q Q =.Q Q e.e.p -   ",
"    : M N.=.=.=.=.=.Q =.Q =./ O.=.=.Q =.Q =.O.Q n.6 1                         < O.n.O.=.Q =.=.Q =.Q =.Q =.Q =.U =.Q Q n.=.p -   ",
"    # b N.Q =.Q Q O.=./ =.O.=.Q Q O.=./ =.Q Q =.n.6 1                         < O.Z.Q Q =.O./ =./ =.Q =.=.O.Q =.Q =.O.n.e.7 -   ",
"    : M n.=.Q =.=./ Q O.=.Q =.O.=./ Q O.O.=.O.=.n.b 1                         < O.n./ Q Q =.=.Q O.=.Q O.Q =.Q Q =.Q =.=.=.7 +   ",
"    $ b n.Q =.O.Q =.Q =./ =.Q Q Q =.Q =.Q =.Q Q n.b 1                         < O.e.Q =.O./ O./ =.Q =./ =.Q O.=.=.O.=.n.O.p +   ",
"    $ 6 N.n.U Q =.Q O.=./ =./ =.O.=.O.=.Q =.O.Q n.6 1                         % =.N.=.=.O.=.Q =.=.O./ =.Q =.Q =.Q =.=.Z.=.7 +   ",
"    # b N.=.Q =./ =.=.Q O.Q =.Q =.Q Q =.=./ O.=.n.6 <                         1 I s.=.=./ =.=.Q Q Q =.Q O./ =.O.=.Q Q =.O.7 +   ",
"    $ b N.=.U =.=.Q / =.=./ =.=./ O.=./ Q =.Q =.n.6 1                         % L n.=.Q =.Q / =.=./ O.=.=.Q =.Q Q Q =.n.=.7 +   ",
"    : b N.U O.Q O.Q =.Q Q =.Q O.=.Q Q =.O./ =.Q n.6 1                         < O.Z.Q =.Q =.O.Q Q =.Q =./ =./ =.O.=.Q =.=.p +   ",
"    - 6 N.=.=.=.=./ =.=.=.O./ =.Q =.Q =.=./ =.Q n.p 1                         1 O.n.Q =.Q =.Q =.O.=./ =./ =.Q Q Q =.Q n.=.7 -   ",
"    # M N.=.=.Q Q =.Q O.Q Q =.Q O./ =.O.Q =./ =.n.0 1                         % O.n.Q Q =.Q =.O.=.Q O.Q =.Q O.=.=.O.Q =.=.7 +   ",
"    # 0 N.=.Q =.Q O.Q =.=./ O.=.=.Q =.Q =.Q O.=.Z.0 1                         < L n.U =./ Q =./ O.Q =.Q O.=.=.Q Q =.=.n.=.7 +   ",
"    : p N.Q =.Q =./ =.O.Q =.Q =./ =./ =.Q =.O.Q Z.M 1                         < L *.U Q O.=.Q =.=.=./ =.Q =.Q =.O.Q =.n.=.7 +   ",
"    : M N.=.=.=.Q =.=.Q O.=./ =./ O.=.Q =./ O.Q Z.0 1                         % O.=.=.Q / =.O.Q Q =.Q O.Q O.=./ =.Q Q =.O.7 +   ",
"    # b N.Q =.Q =.Q / =.=.Q O.Q =.Q Q =.=.O.=.O.n.0 3                         < L n.Q =.=.Q =.=.=./ Q =.=./ Q =.=.O.Q n.O.7 +   ",
"    : p Z.Q Q =.Q =.Q Q O.Q =.Q Q =.=.Q Q =.O./ n.e 1                         < L n.Q O.Q O.=./ Q =.=./ Q =.=.Q Q =.Q =.O.7 +   ",
"    - M Z./ =./ =.Q O.=.=.=./ =.=.O./ =.=.Q Q =.n.0 1                         < O.n./ =.Q =.Q =.=.O.Q =.=.O.Q =.=./ O.n.=.7 +   ",
"    , 0 G.Q Q =.=.Q / =.Q =.Q O.Q =./ Q Q =.=.O./ 0 1                         < O.n.O.Q Q =./ O./ =.Q =.Q =.=.Q =.Q =.n.O.7 +   ",
"    - p G./ / =.Q =.O.Q =./ Q =.=.Q O.=.=.Q O./ n.0 3                         < O.n.Q Q =.O.=.Q O.Q =.O.O./ O.Q Q =.Q =.=.7 +   ",
"    : 0 G.Q Q Q =./ Q =.=./ =./ O.=.=.Q Q =.Q =.n.e 1                         < O.e.O.Q =.Q =.O.=./ =./ =.Q =.Q O.=.=.n.,.7 +   ",
"    , D A.Q Q =.Q =.Q n.Q =.Q =./ =.Q =.O./ =.Q / e 1                         < O.n.Q =./ =.Q Q Q =.Q =.Q =./ n.=.Q =.Z.=.7 +   ",
"    ; h e.O.M O.M O.M O.M M O.O.O.Q =.Q =.Q O.=.Z.w 1                         < O./ Q =.Q =.Q =.=.=.=.I I I H ,.O.O.0.U ,.5 +   ",
"      ; , , : , , , , , , , : < u Q / =.Q =./ =.n.O.5 : o                 o % 5 Q n.U Q =.Q =.Q U L 6 1 + $ $ $ $ - $ , + @     ",
"                                4 O.Z.=.=.Q =.Q Q Q O.e u u u u p t t t 9 9 0 U =.Q Q =.Q O.=.=.n.M 2                           ",
"                                4 D =.Q Q =./ =.O.Q Q Q Z.=.n.Z.n.n.=.n.n.n./ =.O.Q =.Q =.Q O.Q n.M 2                           ",
"                                4 D e.=.=./ =./ =.=.Q =.Q =./ =./ =./ =.U =.Q O.=.=.e.=.Q =.=.=.=.M 2                           ",
"                                4 D Z.Q / =./ / Q O.Q O.=.=.=.Q O.Q =.=.O.Q O.=.=.=.Q Q =.O.=.O./ M 2                           ",
"                                4 D n.e.O./ / e.n.e.=.e.=.e.e.=.=.e.e.=.n.e.=.=.r.e.=.=.Q U U =.s.H 2                           ",
"                                3 7 p w v v w w v p v p v v p v v p h v p p v v 7 p p H 6 p H H H 4 3                           "
};
