/* XPM */
static char *result[] = {
/* columns rows colors chars-per-pixel */
"64 64 202 2 ",
"   c #050115",
".  c #0B0116",
"X  c #06031B",
"o  c #0B041B",
"O  c #0A0A1E",
"+  c #070A1A",
"@  c #11051B",
"#  c #140A1B",
"$  c #19171E",
"%  c #16111D",
"&  c #31130C",
"*  c #060023",
"=  c #090721",
"-  c #0C0C23",
";  c #07012E",
":  c #09022D",
">  c #0B0E29",
",  c #120A22",
"<  c #120D2B",
"1  c #0D1126",
"2  c #0E142A",
"3  c #0F192D",
"4  c #101325",
"5  c #191D23",
"6  c #11142C",
"7  c #12192E",
"8  c #070134",
"9  c #0A0134",
"0  c #0A0C32",
"q  c #0C023B",
"w  c #0C093C",
"e  c #150F30",
"r  c #0D1631",
"t  c #0E1C34",
"y  c #141632",
"u  c #191634",
"i  c #141C33",
"p  c #191B36",
"a  c #191639",
"s  c #161E39",
"d  c #191C3A",
"f  c #1B252B",
"g  c #1C2325",
"h  c #0F2037",
"j  c #0F2139",
"k  c #142136",
"l  c #182237",
"z  c #15233B",
"x  c #19243D",
"c  c #16293E",
"v  c #1A293E",
"b  c #1C2D30",
"n  c #1E383A",
"m  c #20272F",
"M  c #2D2A2D",
"N  c #2C2D38",
"B  c #442714",
"V  c #594634",
"C  c #735838",
"Z  c #0D0242",
"A  c #0C0349",
"S  c #0F0B4B",
"D  c #10024E",
"F  c #0F1343",
"G  c #0F154A",
"H  c #101741",
"J  c #121C44",
"K  c #15164E",
"L  c #151A4C",
"P  c #171653",
"I  c #161A53",
"U  c #181C55",
"Y  c #151C59",
"T  c #191A5A",
"R  c #16165A",
"E  c #162741",
"W  c #1A2641",
"Q  c #162B43",
"!  c #1B2C44",
"~  c #172E4A",
"^  c #1B2E49",
"/  c #15274C",
"(  c #163146",
")  c #1C3146",
"_  c #1D3B43",
"`  c #16324B",
"'  c #1C334B",
"]  c #1B394E",
"[  c #16295B",
"{  c #182257",
"}  c #173650",
"|  c #1C3652",
" . c #173A53",
".. c #1D3B54",
"X. c #1D3E5A",
"o. c #292F40",
"O. c #212A49",
"+. c #2F3643",
"@. c #20344C",
"#. c #223944",
"$. c #323C48",
"%. c #213C54",
"&. c #213D59",
"*. c #141964",
"=. c #1A2362",
"-. c #192469",
";. c #1E3C6A",
":. c #18297C",
">. c #1A2A73",
",. c #1D3C74",
"<. c #293C79",
"1. c #1F484A",
"2. c #1F4157",
"3. c #1D425C",
"4. c #1F4A5D",
"5. c #24464C",
"6. c #234B4B",
"7. c #224455",
"8. c #274C57",
"9. c #23425C",
"0. c #29445D",
"q. c #224C5D",
"w. c #364E5C",
"e. c #25545B",
"r. c #29505E",
"t. c #2A5C5A",
"y. c #255351",
"u. c #37505E",
"i. c #3C515E",
"p. c #30625E",
"a. c #1D4562",
"s. c #1E4A64",
"d. c #1F4F6A",
"f. c #1D556F",
"g. c #1E5872",
"h. c #224562",
"j. c #284561",
"k. c #234A64",
"l. c #294B64",
"z. c #224D6A",
"x. c #294E6A",
"c. c #235365",
"v. c #23526D",
"b. c #29526B",
"n. c #275968",
"m. c #2A5C6B",
"M. c #285563",
"N. c #385060",
"B. c #245572",
"V. c #2A5772",
"C. c #235974",
"Z. c #2B5C74",
"A. c #265678",
"S. c #295778",
"D. c #265B79",
"F. c #295D7A",
"G. c #2C636E",
"H. c #2D6363",
"J. c #306363",
"K. c #2A6372",
"L. c #276871",
"P. c #26627D",
"I. c #2B627D",
"U. c #2D6C79",
"Y. c #32677B",
"T. c #326B7C",
"R. c #2F7177",
"E. c #2D767C",
"W. c #31747D",
"Q. c #5C6B5F",
"!. c #536F64",
"~. c #597A71",
"^. c #265787",
"/. c #295994",
"(. c #276280",
"). c #296280",
"_. c #276884",
"`. c #2D6A83",
"'. c #336E81",
"]. c #2E7A8C",
"[. c #2D758F",
"{. c #337283",
"}. c #387A87",
"|. c #357C8A",
" X c #327885",
".X c #2F7F9A",
"XX c #32838C",
"oX c #39808F",
"OX c #348691",
"+X c #398B94",
"@X c #38869A",
"#X c #348E93",
"$X c #36909A",
"%X c #3D949A",
"&X c #3490A5",
"*X c #349BB0",
"=X c #578B84",
"-X c #7EA28F",
";X c #459EA3",
":X c #8B9984",
">X c #949E85",
",X c #87A58F",
/* pixels */
"T P @ # P U I I Y U P P T K P P P P U I U P I K U { L K I P P { L P P P R U U P R T P I U I P P { L I U K P P I L P { L U { L P ",
"q w # @ 9 q q q w q w q q w w q q q Z q q q w q Z w w q 9 q Z Z q 9 q w q q w q 9 q q q q w q q q q q w q q q q 9 q q q q q q w ",
"9 9 = @ 9 q q Z q 9 q Z q 9 9 q 9 q q q q q q Z 9 Z q 9 9 Z 9 Z 9 Z 9 8 q 9 9 q q q q 9 w q Z q 9 q 9 q q q 9 q 9 Z Z Z 9 q q q ",
"q q @ @ : 9 9 9 9 9 9 9 q 9 t > r 2 > > - - = X = = = = = X 2 r r 2 > 2 > 0 = = - = o = = = = = = X > o = = = + = - = X - = = = ",
"D Z @ @ 9 9 9 Z Z q 9 Z Z L P.X.3.} ..' ) ' ! z ..! ) ) #.s v.s.X.| | | } ..E ~ %.v c 7.! #.' ' ! ~ %.) ) ) ' l ( ' ) k ..) ) ) ",
": : @ @ q q 9 8 9 q : : : J 3.i s z s l ! ! v z ' ! ) ! v s ^ s s W z s d k y ! ' ! k ] ! ! ! ! x c ) ) ) v ! l ) #.v k ' ! ) ! ",
"q 9 # = Z 9 q q Z Z : q Z H ! s x l l x v v x k ^ x ! x x 7 z x W z W x l l 7 k ! v i ( x ! x x l k ) ! v l v 7 Q ! v i ' x ! x ",
": : @ @ : 9 : 9 9 9     X O 1 = - = = o O 4 - - 1 = o - - o > O X > = o - - X = 2 1 1 > - o = 2 - - 1 = + > > . O > - O > O o O ",
"q 9 @ @ q q q Z A q   - 3 ] 2.] ' ' @.i v.P.' ..' ~ r d.a.! 9.^ k X.! k 9.' k a.B.' | } | i s.h.( | | x Q (.| s 7.h.) ] @.) k m.",
": : @ # 9 8       + z x v ) v ) ! ! ' i v.^ x z s s i X.s z k 6 t ! x k ! ! x k.! z d s y 4 X.z ! W s 6 Q } i 7 3.! ! ) ! ) x z.",
"q A @ o q A X   + 3 | ! ! #.) ! ' #.) z 4.J s d s d y | s d d d i ' ! l ' ! W X.x s y d d s X.s s d p u Q ^ d s  .! ) ) ) ) c 7.",
"* o @ @ - - + o y i k s p l 7 i l i i 1 Q 2 < < < < = s < e < - 1 z y 1 k y 2 E < < < < < - c > < < < = 2 y < o z l i k 7 i 4 c ",
"+ 4 @ , E 2 i X.z 2 2 7 4 1 ( i - ~ Q ~ v 7 > - t t z s 3 1 1 2 2 2 2 - z z z k r 2 1 t j E c r 2 - 2 1 7 z j k i i 7 2 ' c c z ",
"s ! @ # | ! 3.C.! k ] @.) ( k.! c k. .| ! ) v ~ X.^ ' ! ! l ` ' ' ' ) c X.] } ! ! W Q X.| ' ! ! c ! ' c ( X.] ^ ! ! ! ( d.] ..! ",
"%.%.# 4 X.%...&.! s ] ' ) ) ..x k ! s x ! ! x z ! d W W ! s ' @.' ) #.z ! d z W ! d k ! s x W x l Q ! x z ! l x ! ! ! Q ' d x E ",
") l # # x l 7 s y - 7 y 7 2 i 2 - 7 < 7 < 4 6 2 r < 2 6 4 - 7 7 7 6 6 - r 2 y 6 6 6 - 3 > y 6 6 > 2 y 4 > y 6 6 6 4 3 1 y > 6 6 ",
"O 6 # % ' v x l i 2 ( c 2 r ! 2 i 7 7 - ( } c z i y - 2 7 2 7 6 3 ` Q z r 3 - c ( r r i 3 - h j 7 i 7 1 4 2 7 O ( } l k i t 1 3 ",
"l N $ 5 b.l.l.0.0.@.D.^ l ' x.! ] ' @.x g.X.' ] ! x i ] @.' @.v ( k.! ' ! ^ k 3.%.( ' ! ( l 3.' ! @.#.' @.' ] l C...^ ' ! W i ' ",
"N +.5 g l.j.9.7.&.! k.d u z %.! ) ! #.p a.d s s y p y ` ! ! ! v c ' s x l W p ' x s k x ! s ' ! x x ! ! ) ! ! l s.k d s y s 7 ) ",
"+.$.5 f 0.&.%.@.@.x ..u 6 7 ( x ! x x 7 ( y s y s p > E x x x i k ^ s u s d 7 W d y d l x 7 c x z l l x v l x 7 ] y s y 6 s 2 Q ",
"M N g f ' x z z k 7 3 2 - 4 4 1 = i r i t 1       > 3 3 > = r r 3 r - o r 2 6 7 >       - 1 4 2 1 2 i - - k i 3 3 1   o y 3 3 2 ",
"i.N.f n *XI.F.C._.9...] ' ..%.@.v D.z.k.' ' z i E ..| ^ ! s B.z.a.| ! Q A.X.&.| ) x i ! ! @.' @.v X.3.! } (.&...( ' k ! S.a.X.' ",
"u.u.b 1.&Xh.h.X.| x %.^ ' ) ! ! z X.s l ! ! ! v | l k W x z X.s z k p Q ..y k ! ! ! c ] ! ! ! ! x ) z y ` ' y k ! ! ! ( | i d W ",
"w.u.n 6.[...7.| | z ' ! ! ! x v 7 ! s x x v v k ^ z x z z i ! y W z d i W s W v x v l ( x ! v ! l W W s z Q s x W x x k / y W z ",
"#.5._ 6.7.l 7 c 7 7 7 2 > - 6 > + > - o > 6 O > 4 - o - > - - - o = - o 7 - = - 6 - - 2 - + , 1 O + 6 - 1 > - O - 2 - - - = o - ",
" XXX6.e.oXT.m.@Xl.l.0.7.' ( _.X.&.' ' i s.&.( @.' ) i k.9.%.| x z | ! ( B.! z ..k.) ' ' ' l ] %.x 3.S.' ' ) ) k a.k.' | ' ! i s.",
" XXXy.t.|.Y.n.Y.0.0.%.%.@.( X.l ! x l 7 X.! ! ! ! ! k ' d k d 6 z ^ d c ^ d y ' ! ) ) ! ! k ) ) x ..' x ! v ! l X.z E W d p i ( ",
"XX+Xt.H.oXW.n.I.l.0.9.%...( ^ p d d d p ( ' @.@.@.' k ` d d x p k ' x z ^ W 6 ~ @.! ' ' @.l ) %.! ' ' ! ! ! ) x } d d d p W l ( ",
"K.G.p.J.m.8.' ' c l 7 3 1 2 6 = - = = o 3 3 > 4 1 4 O 3 - = - o o 1 O + < - . > 3 > , 1 4 O 1 6 - 1 3 2 2 2 2 - 7 - = = - > O 7 ",
";X#X~.=XXXW.U.K.`.3.v.9.X...( Q i ! } | '  .} c a. ...v k 7 l z z l x 7 ( ( X...` ~ c s.] X.'  .` '  .3.] ! Q ( ) z i i | ` ..v ",
";X$X>X,XXX}.W.K.b.] I.| ( ! ^ ^ z ^ ! ! ! ^ x ( X.^ ^ @.@.x ' ' ' ) ! x ..Q ! Q ! x ~ a.! ! ! ! z ' Q Q ! ! ! ) ! ) ^ Q ' ! ! ! ",
";X#X:X-XXX}.'.V.b.] k.! x ! ! ! i Q W W ! W p c ! d W ^ @.k ' @.' #.! s | x W ! ! k k ' s E ! ! s E ! x v ! ! O.) ! ^ c ^ l W W ",
"R.K.Q.!.e.8.) ~ ! i k 6 4 - - 4 O 1 - > - 1 - - 1 > , > 6 - 4 4 , 1 1 + 2 - - - 4 1 O 1 - 1 + 2 + > 1 1 1 1 1 1 - 2 2 - 1 - - = ",
"$XW.C V L.E.e.].P.P.k. .( c v. .7.) v 7 3.s.` ' c c 7  .Q c Q l z v.2.3.2. .z ] z.( ' ! c 7 3...! ..] z z 3.z i  .` Q ! ~ c 7 s.",
"%XW.B & m. XK.`.3...! ! x ..z.v ! ! ) l v.( Q ! ! ! i ] ! ! ) v ' v.! ' ) ) z 3.@.) ' ( ' k s.) ! ! ! p ) %.x k 3.! ( ! v ! v k.",
"+XK.m m r.K.G.Z.W ! ! x s ! 9.z E W ! x 3.! k l k x i ! ! ! ! x c 2.v ) ) ) l ..^ ! ) ) ! l ] ! z x x l z ' x i ) ! ! x z ! k ) ",
"R.^.^./.,._ M.k.p z d z y c ..z ! z ! k  .x l l d x 4 z k x s 7 i ..v ! v ! 7 ] ( x ! v ! 7 Q l s p s i 7 x l 4 c ! x v z ! k Q ",
"c./ F G ; 3 ] i 7 - = o o 2 c l 2 ! ! v k 1 o X + o X o o o i 2 z Q c 2 ! ! l c z Q i ! Q z 7 - o + + o   o o + 1 7 1 1 ( ! c l ",
" X` ; r   ' I.v.K...' ' ! ' ..| W v.X.| ' ' v v %.) ) ! ) z z.....( ^ ~ C.| | ' ' ' ~ B...' ' ) x Q ' ) ) ) ) ) ) ' ) ) D.' ' ' ",
"'.B.[ [ 1 j.b.h.0.' ..' @.@.! ! x | s l v ! ! z %.' ' ) ' c ^ s x z l ! ' s x ! x s c ^ s z ! ! ! Q @.) ) ' ) ) ) ) ! ~ | s k ! ",
"v.7.H 0 O 7.&.' ' k z k z z i s 6 s i s 7 i i r ! k x s s 3 k s s y y 3 W r s s y i 2 z y s i s i i z s k s k k l s l 3 z y l i ",
"] @.<.A O ( 7 ' ! 1 z E 7 > Q i y 7 y - i k 2 7 4 4 = i z 7 p 4 + E r i 6 7 - 2 z r r 7 6 + r E - 3 7 > - z s - t z 7 7 3 1 O r ",
"{.m.=.9 k Z.4..Xx...`.h.W ] [.%...| | z f.0.' %.] @.l F.k.' 2.v ~ F...7.' | k b.x.%.%.' ' s C.z.^ } ' W ' A.^ s C.l.] @.] @.x P.",
"Z.q.L ; 7 l.s.C.W W k.u 6 Q | y z s y 4  .! ! ! ! ! l ..s s s < Q ' s x p y 7 %.v v ! ! W i 3.s d s s 6 Q ^ 6 3  .! ) ) ! ! z 4.",
"Z.s.=.8 k b.4.l.O.z k.d y c ^ y d a d 6 _ ! ! ' ! ! l ( a a a e z ' y d a d u ] ' ! ! ! ! l  .u y a p u c ! a y ] ! ) ) ) ' l ..",
"( c G 8 - k k 3 - o 7 * X 1 7 = o = = O 3 3 2 4 3 2 1 7 = = = X 2 2 = X o = X 7 4 1 1 3 1 1 i - = = = o 1 > o X 3 3 2 1 4 4 1 h ",
"^.f.I S 7 7.4.I.' Q X.^ ^ ^ ! E t ! ' X.( ] ! ' B.X.&.^ ! k ] | ..' ! s ^ ! ! ) ' v ~ v.X.X.E Q z c ' ` ' E Q | ^ | Q Q z.X.9.' ",
"0.] -.q i 0.c.V.W x %.! z x W E s ! x W ! ! k ' | z x z W s ^ x W z W z @.' ' ) ) ! ! ' z z E W l ! ! z x x x x ! x x ^ ..z z c ",
"&.( K ; 2 %.2.9.x l ! x x W x x 7 x z x x l l z Q s z x x y Q x W l x i ^ x ! ! x x i W i d x x s k W x x l d x x l k k W s k d ",
"2 1 I q + k 7 7 2 O 2 > = + , - o O - + 2 i 2 r 3 = = o - + + o o 2 1 - 1 - o 1 i 3 3 4 > - o - + o = = + O - o 2 s 7 2 2 > + > ",
"l.2.:.9 t b.k.k.l.! v.X.z Q d.! v ..' 7 f.g.| X.' ! i ~ ' k  .v c D.' @.' ) k c.z.....] ' i ` } c k ) ) ! ! ) i g.z.X.| ' ! s v.",
"k.3.*.; i l.0.&...! 9.k s c %.x ! ) O.l s.E d s i y 3 ! v i ' p c X.x #.! ) z 9.! k s s s 2 ( ! l v ) ! ) ! ! l d.s l k y y 7 3.",
"b.X.F : i z.0.7.&.) %.W p z X.v ' ! @.l X.d p d s J i ( ^ y c p h %.! ^ ! @.x 3.x u a s x y ( ^ x z @.! ) ! ' l 3.d d s p d p ..",
"k k =.A O l i i i 2 4 = X - 7 1 1 1 6 - h - = = - , o 6 4 + o o + 7 4 > 2 > - i , - = - > = 7 6 - 1 4 1 1 4 4 1 i = = = - - O 7 ",
"C.s.*.Z 4 7.] P.v.v.z.| ^ ' ! ! i ~ ! ( ' ! 1 3 ^ ..&.^ ! i c ! ! ! x z D.a.h.} ^ Q k | | | ^ ! ! ) v c z 3.^ ' ( ! 4 i | ~ ( ! ",
"k.' w : 7 0.3.z./ ! W x z ! ) ) z ! ! ! ( ) ! ! / ! W W W i ! ' ) ) v ) h./ ! W W z E / W k ! ! ) ) ) ! ! ' ! ! ! ! ! ~ | x d l ",
"X.` Y 9 i 9.] X.W W ! W W ^ O.@.z ( ! ' ' ! ! z W d z ! ! s ) @.' ) v v ' s x W x x z ^ d x ! #.@.) ^ ! v ' ! ' ^ ! ! z ! s W W ",
"y r Y 9 + 7 7 y > < - - > = O - o - , > - 4 - > > - - - > + , > - , > - 2 - - - , > - > - - O - - - , - - 1 > > , 4 1 - 2 = > O ",
"} ~ { q c X.^ ! ^ 7 s.a.k s k.W s z. .4 ] 3.E ! x k 4 | ' i  .c k a.} ( Q E 6 Q a.Q ! W z 6 X.;.i ~ k.Q ( Q Q 4 ` ..Q ! c x 4 z.",
"| ' R ; ( X.O.! ^ s C.' s | v.z E k.! s a.' ( @.' @.z ..! z 9.d ( X.Q ^ ! x u } ' ! ' ( @.k k.^ k 3.3.! ! ! x i a.' ( ' ) ) x C.",
"s / / F r s d s p 7 a.y y j } y i ~ k 7 } E W ! v ! i ! s r ' y t Q 6 s y p 6 z ! W ! ! v i  .z 4 ` Q s k s s 6 } E ! ! v v k ] ",
";.,.>.>.F 3 ^ ^ ^ c X.! W Q  .~ z | ' c  .| ' ( ' ' c ] ^ k Q i c ' ! W ! ! x ( | ' ( ' ' !  .] c ( ] ~ ! ^ ^ s 2.| ( ( ' ] c ] ",
"= : X *   i @.! x W W x x W ! W ! ! x x v W d x ! d c Q x E W x E E W W E W x W W x z W x W x x x W x l ! x x x Q l d x ! l x ! ",
"- + = = o o @ o @ o @ @ @ @ @ o @ o @ o o o @ @ o o @ o @ o o @ o o . @ o @ @ o o @ o @ . @ . @ o o o o @ o o @ o o @ o @ o o . "
};
