/* XPM */
static char *_47db06c4546491ba564f1a95875a995LYXHTbVJvnO6L1Gp[] = {
/* columns rows colors chars-per-pixel */
"64 64 212 2 ",
"   c None",
".  c #7E141C",
"X  c #85141B",
"o  c #84121C",
"O  c #84131C",
"+  c #85131C",
"@  c #85131D",
"#  c #86131C",
"$  c #86131D",
"%  c #83151D",
"&  c #83141E",
"*  c #82151E",
"=  c #84141C",
"-  c #85141C",
";  c #85141D",
":  c #84151D",
">  c #86141C",
",  c #86141D",
"<  c #86151D",
"1  c #85141E",
"2  c #86151E",
"3  c #85161E",
"4  c #86171F",
"5  c #8B121C",
"6  c #88141D",
"7  c #8B141C",
"8  c #8E141C",
"9  c #8E151D",
"0  c #8C151E",
"q  c #8D151E",
"w  c #8E141E",
"e  c #8E151E",
"r  c #8F151E",
"t  c #8D161E",
"y  c #96151E",
"u  c #96151F",
"i  c #97161F",
"p  c #8C1620",
"a  c #971620",
"s  c #971720",
"d  c #961621",
"f  c #971721",
"g  c #981620",
"h  c #951820",
"j  c #9A1925",
"k  c #9D1A24",
"l  c #A01621",
"z  c #A31722",
"x  c #A31723",
"c  c #AD1721",
"v  c #A11822",
"b  c #A21822",
"n  c #A31822",
"m  c #A21823",
"M  c #A31823",
"N  c #A51923",
"B  c #A11924",
"V  c #A11A24",
"C  c #AA1823",
"Z  c #A91924",
"A  c #A91825",
"S  c #AA1924",
"D  c #AA1825",
"F  c #AD1B26",
"G  c #B31A23",
"H  c #B31B23",
"J  c #B41923",
"K  c #B31A24",
"L  c #B41924",
"P  c #B51925",
"I  c #B41A24",
"U  c #B71A25",
"Y  c #BB1A25",
"T  c #BF1A27",
"R  c #BE1B27",
"E  c #B71E2A",
"W  c #BF1C28",
"Q  c #BE1D28",
"!  c #BF1D28",
"~  c #C01C28",
"^  c #C01D28",
"/  c #C11D28",
"(  c #C31C28",
")  c #C71E28",
"_  c #C71E29",
"`  c #C71D2A",
"'  c #C71F2C",
"]  c #CC1B2A",
"[  c #C91C29",
"{  c #CA1C28",
"}  c #CA1C29",
"|  c #CB1C29",
" . c #C81E28",
".. c #C81E29",
"X. c #C91F29",
"o. c #CB1D2A",
"O. c #C81E2A",
"+. c #C91E2A",
"@. c #CA1E2B",
"#. c #CC1D2A",
"$. c #CD1D2A",
"%. c #CD1D2B",
"&. c #CE1D2A",
"*. c #CE1D2B",
"=. c #CF1D2B",
"-. c #CC1E2A",
";. c #CD1E2A",
":. c #CC1E2B",
">. c #C91E2C",
",. c #CD1E2C",
"<. c #CD1E2D",
"1. c #D51B28",
"2. c #D51B29",
"3. c #D61B28",
"4. c #D71B28",
"5. c #D61A29",
"6. c #D61B29",
"7. c #D71B29",
"8. c #D71A2A",
"9. c #D71B2A",
"0. c #D71B2B",
"q. c #D01C29",
"w. c #D21C29",
"e. c #D21D29",
"r. c #D31D29",
"t. c #D01D2B",
"y. c #D11D2B",
"u. c #D21D2A",
"i. c #D31D2A",
"p. c #D01E2A",
"a. c #D11E2A",
"s. c #D01E2B",
"d. c #D21E2A",
"f. c #D21E2B",
"g. c #D31E2B",
"h. c #D21F2B",
"j. c #D31F2B",
"k. c #D51C28",
"l. c #D51D28",
"z. c #D41C29",
"x. c #D51C29",
"c. c #D51D29",
"v. c #D61C28",
"b. c #D71C28",
"n. c #D71D28",
"m. c #D61C29",
"M. c #D71C29",
"N. c #D71D29",
"B. c #D61E29",
"V. c #D51C2A",
"C. c #D41D2A",
"Z. c #D51D2A",
"A. c #D41D2B",
"S. c #D51D2B",
"D. c #D61C2A",
"F. c #D71C2A",
"G. c #D61D2A",
"H. c #D71D2A",
"J. c #D61C2B",
"K. c #D71C2B",
"L. c #D61D2B",
"P. c #D71D2B",
"I. c #D51E2A",
"U. c #D41E2B",
"Y. c #D51E2B",
"T. c #D41F2B",
"R. c #D61E2A",
"E. c #D61E2B",
"W. c #D61F2B",
"Q. c #D01F2C",
"!. c #D31E2C",
"~. c #D41D2C",
"^. c #D51D2C",
"/. c #D61D2C",
"(. c #D51E2C",
"). c #D41E2D",
"_. c #D61E2C",
"`. c #D61F2C",
"'. c #D71F2D",
"]. c #D81B29",
"[. c #D81A2A",
"{. c #D81C29",
"}. c #D81D29",
"|. c #D91D29",
" X c #D81C2A",
".X c #D91C2A",
"XX c #D81D2A",
"oX c #D91D2A",
"OX c #D91C2B",
"+X c #D81D2B",
"@X c #DA1D2A",
"#X c #DB1D2B",
"$X c #D91F2A",
"%X c #D91E2B",
"&X c #D81F2B",
"*X c #D91F2B",
"=X c #DA1E2A",
"-X c #DA1F2A",
";X c #DA1E2B",
":X c #DB1E2B",
">X c #DB1D2C",
",X c #D81F2C",
"<X c #DA1E2C",
"1X c #DA1E2D",
"2X c #D91E2E",
"3X c #DC1C2C",
"4X c #C4202B",
"5X c #CF202D",
"6X c #D0202D",
"7X c #D2202C",
"8X c #D7222E",
"9X c #D8222D",
/* pixels */
"      % # # > > > % X > > # # > X X > # & # %                                               . 5 o & o X X X X X X X # # & # % > ",
"    h 7X+X[.+XH.f.H.f.H.).).).H.H.H.f.H.).).5Xp                                           N ,.#XH.H.H.H.v.v.9XH.H.+XH.H.).H.8X8X",
"    f ).).[.1.1.v.v.v.H.1.H.H.1.v.v.H.1.+X+Xf.8                                           M ,.3X1.1.v.H.1.+Xv.v.v.|.1.[.0.1.1.OX",
"    f !.[.1.H.H.H.v.v.v.H.1.H.v.v.v.1.H.[.+Xf.8                                           M { +X1.v.H.v.H.1.H.1.v.v.1.H.1.1.H.9X",
"    i f.H.H.H.1.1.H.1.H.1.H.1.H.H.1.H.1.+XOXy.p                                           z { @XH.1.1.H.1.H.1.H.1.H.1.H.1.1.+X+X",
"    i 7XH.H.1.H.H.1.H.1.H.1.H.1.1.H.1.H.1.1.y.8                                           z { @X1.H.H.1.H.1.H.1.H.1.H.1.[.H.v.9X",
"    f f.H.1.H.1.1.H.1.H.1.H.1.H.H.1.H.1.+X+Xy.u                                           z { +XH.H.1.H.1.H.1.H.1.H.1.H.4.1.+X+X",
"    i f.H.z.1.H.H.1.H.1.H.1.H.1.1.H.1.H.4.+Xy.p                                           z ,.+Xz.1.H.1.H.1.H.1.H.1.H.v.v.1.v.9X",
"    i 7XH.H.1.H.1.H.1.H.1.H.1.H.1.H.1.H.4.+Xy.8                                           M { +X1.H.1.H.1.H.1.H.1.H.1.H.1.1.|.+X",
"    i f.H.1.H.1.H.1.H.1.H.1.H.1.H.1.H.1.|.+Xy.8                                           M { +Xv.1.H.1.H.1.H.1.H.1.H.1.H.1.|.9X",
"    i 7Xf.1.1.H.1.H.1.H.1.H.1.H.1.H.1.H.1.+Xf.8                                           M { #Xv.v.1.H.1.H.1.H.1.H.1.H.4.1.v.+X",
"    i f.H.1.H.1.H.1.H.1.H.1.H.1.H.1.H.1.|.H.f.8                                           M { #X1.H.H.1.H.1.H.1.H.1.H.1.v.1.v.9X",
"    i f.H.z.1.H.H.1.H.1.1.H.1.H.1.H.1.H.[.+Xy.8                                           V { +Xv.v.H.1.1.H.1.H.1.H.1.H.v.1.|.+X",
"    i 7XH.z.H.1.1.H.1.H.H.1.H.1.H.1.H.1.H.0.y.p                                           M | #Xr.1.1.H.H.1.H.1.H.1.H.1.H.1.|.9X",
"    i H.H.H.v.v.H.H.v.1.1.H.1.H.1.H.1.H.H.+X=.8                                           x { #Xv.1.H.1.1.H.1.H.1.H.1.H.4.1.v.+X",
"    i 7XH.v.H.f.v.r.f.H.H.1.H.1.H.1.H.v.1.+X!.8                                           M { +Xv.H.1.H.H.1.H.1.H.1.H.v.v.1.v.9X",
"    i 7XH.H.1.H.1.H.1.H.1.H.1.H.1.H.1.H.[.+Xf.8                                           z { @Xv.H.1.H.H.1.H.1.H.1.H.1.H.1.H.+X",
"    i f.H.v.H.1.H.1.H.1.H.1.H.1.H.1.H.1.H.+X=.8                                           z { @Xr.1.H.1.1.H.1.H.1.H.1.H.1.1.v.9X",
"    i 7XH.H.1.H.1.H.1.H.1.H.1.H.1.H.1.H.+X+X=.8                                           N { +X1.H.1.H.H.1.H.1.H.1.H.1.v.1.|.+X",
"    f f.H.1.H.1.H.1.H.1.H.1.H.1.H.1.H.1.1.[.y.p                                           x ,.+Xv.1.H.1.1.H.1.H.1.H.1.H.v.1.v.9X",
"    i 7Xf.1.H.1.1.H.1.H.1.H.1.H.1.H.1.H.+X+Xf.8                                           M { +Xv.v.H.1.H.1.H.1.H.1.H.1.v.1.|.+X",
"    i f.H.1.1.H.H.1.H.1.H.1.H.1.H.1.H.1.4.+Xf.8                                           M { +Xz.H.1.H.1.H.1.H.1.H.1.H.H.1.+X9X",
"    i 7XH.1.H.1.1.H.1.H.1.H.1.H.1.H.1.H.[.+Xf.8                                           M { +Xz.v.H.1.H.1.H.1.H.1.H.1.H.v.v.+X",
"    i f.H.H.1.H.H.1.H.1.H.1.H.1.H.1.H.1.+X).=.8                                           x { #X1.v.1.H.1.H.1.H.1.H.1.H.1.v.+XOX",
"    f f.H.1.H.1.H.1.H.1.1.H.1.H.1.H.1.H.|.H.f.8                                           x { +XH.1.H.1.1.H.1.H.H.1.H.1.H.1.).OX",
"    f H.H.1.1.H.1.H.1.H.H.1.H.1.H.1.H.1.1.|.,.8                                           M { +X1.H.1.H.H.1.H.1.1.H.1.H.1.1.OX2X",
"    f ,.H.f.H.f.H.f.H.f.1.1.H.1.1.H.1.H.+X+X,.8                                           V { +X1.H.H.1.1.v.H.f.H.7X).H.H.!.).8X",
"      % # # # > # % # # o k R f.+X1.H.1.1.|.r.c 5                                       8 U z.H.H.1.1.H.4.f.Y i > > > > > > > p ",
"                            N H.+X1.H.1.H.1.v.H.H.!.H.f.f.H.H.f.f.H.).H.H.H.f.H.H.f.f.H.H.v.1.H.1.H.1.H.H.f.C                   ",
"                            x f.|.1.1.H.1.H.1.+XH.H.H.1.H.H.H.1.H.H.H.1.H.H.H.H.H.1.+X1.H.1.H.1.H.1.H.1.H.H.C                   ",
"                            M !.+Xv.v.1.H.1.H.1.1.H.1.H.1.H.1.H.1.H.1.H.1.H.1.H.1.H.1.H.v.H.1.H.1.H.1.H.+Xf.A                   ",
"                            M H.|.v.v.H.1.H.1.H.H.1.H.1.H.1.H.1.H.1.H.1.H.1.H.1.H.1.H.1.H.1.H.1.H.1.H.1.+X).A                   ",
"                            M ).+Xv.H.v.1.H.1.H.1.H.1.H.H.1.H.v.1.H.1.H.1.H.1.H.1.H.1.H.1.H.1.v.H.H.1.+X+X7XC                   ",
"                            N OX+Xv.|.+X+X+XH.H.H.1.H.1.1.H.1.v.H.1.H.1.H.1.H.1.H.1.H.1.1.1.+X+X|.v.v.|.+XH.C                   ",
"                            j 4X{ { { 4X{ ) { f.1.1.[.H.H.1.v.f.v.v.H.r.1.H.1.H.v.H.v.1.f.,.) ) { ) { ) 4X4Xk                   ",
"                                              i ( +X1.H.1.H.H.v.H.r.v.H.H.1.H.1.H.v.v.H.( 5                                     ",
"                                                J +X4.H.1.H.1.H.1.H.v.H.1.H.1.H.H.z.H.f.!                                       ",
"                                                J +XH.1.H.1.H.1.H.1.H.1.H.1.H.1.1.H.1.f.!                                       ",
"                                                H +X1.H.1.H.1.H.1.H.1.H.1.H.1.H.H.1.1.f.!                                       ",
"                                                H +XH.1.H.1.H.1.H.1.H.1.H.1.H.1.1.H.+Xf.!                                       ",
"                                                H +X+XH.1.H.1.H.1.H.1.H.1.H.1.H.1.H.H.,.!                                       ",
"                                                H #Xv.v.H.1.H.1.H.1.H.1.H.1.H.1.H.1.H.r.!                                       ",
"                                                H #X1.H.1.H.1.H.1.H.1.H.1.H.1.H.1.H.H.f.^                                       ",
"                                                H +Xv.v.H.1.H.1.H.1.H.1.H.1.H.1.H.1.1.r.^                                       ",
"                                                H #X[.1.1.H.1.H.1.H.1.H.1.H.1.H.1.H.+Xr.Q                                       ",
"                                                H 9X1.+XH.1.H.1.H.1.H.1.H.1.H.1.H.1.v.,.!                                       ",
"                                                H +X1.H.1.H.1.H.1.H.1.H.1.H.1.H.1.H.H.f.!                                       ",
"                                                H +Xv.1.H.1.H.1.H.1.H.1.H.1.H.1.H.1.H.f.!                                       ",
"                                                H +X+Xv.1.H.1.H.H.1.H.1.H.1.H.1.H.1.1.f.^                                       ",
"                                                H +XH.v.H.1.H.1.1.H.1.H.1.H.1.H.1.H.H.f.!                                       ",
"                                                J 9X1.H.1.H.1.H.H.1.H.1.H.1.H.1.H.1.H.f.!                                       ",
"                                                J +XH.1.H.1.H.1.1.H.1.H.1.H.1.H.1.H.H.f.!                                       ",
"                                                H |.v.H.1.H.1.H.H.1.H.1.H.1.H.1.H.z.1.f.!                                       ",
"                                                H #X1.H.H.1.H.1.1.H.1.H.1.H.1.H.1.H.1.f.^                                       ",
"                                                H +X|.1.1.H.1.H.H.1.H.1.H.1.H.1.H.v.+Xf.!                                       ",
"                                                H +X1.|.H.1.H.1.1.H.1.H.1.H.1.H.1.1.H.f.!                                       ",
"                                                H +X1.H.1.H.1.H.H.1.1.H.1.H.1.H.H.1.H.f.Q                                       ",
"                                                U +XH.1.H.1.H.1.1.H.H.1.H.1.H.1.1.z.H.f.^                                       ",
"                                                H +X1.H.1.H.1.H.H.1.H.H.H.1.1.H.1.H.1.f.~                                       ",
"                                                H +XH.1.z.z.H.H.1.H.z.1.z.H.1.z.H.H.[.f.^                                       ",
"                                                U +X+XH.).H.H.H.v.|.+X[.1.4.4.|.|.v.+Xf.^                                       ",
"                                                F 7X,.,.=.=.{ @.,.| ,.,.,.,.| ,.,.,.f.{ E                                       ",
"                                                                                                                                ",
"                                                                                                                                "
};
