/* XPM */
static char *f9038e49a46b4ef7d33f5a31637bd415Mogkz3sOARg0wBdM[] = {
/* columns rows colors chars-per-pixel */
"64 64 197 2 ",
"   c None",
".  c #040305",
"X  c #0A0606",
"o  c #060609",
"O  c #090709",
"+  c #07090A",
"@  c #0B0B0D",
"#  c #100E0E",
"$  c #0D0D12",
"%  c #0D0C1A",
"&  c #110E13",
"*  c #100D1C",
"=  c #0E1215",
"-  c #0D141B",
";  c #0F181C",
":  c #121315",
">  c #121A17",
",  c #13151B",
"<  c #18151A",
"1  c #141A1D",
"2  c #1A1A1C",
"3  c #201F1E",
"4  c #19211F",
"5  c #17221E",
"6  c #20201F",
"7  c #130F25",
"8  c #0F1B23",
"9  c #0F1320",
"0  c #131523",
"q  c #151C22",
"w  c #1A1C24",
"e  c #14142A",
"r  c #161C2A",
"t  c #1B1E29",
"y  c #18142D",
"u  c #191632",
"i  c #1B1A34",
"p  c #1E1D3A",
"a  c #161332",
"s  c #211F20",
"d  c #231A3F",
"f  c #152223",
"g  c #1A2225",
"h  c #1C2A27",
"j  c #15232B",
"k  c #1C232B",
"l  c #1D2A2B",
"z  c #16282F",
"x  c #1C332C",
"c  c #162531",
"v  c #1E2632",
"b  c #172931",
"n  c #1D2A34",
"m  c #1C2C3A",
"M  c #1C213F",
"N  c #1E3532",
"B  c #1D313E",
"V  c #232323",
"C  c #242827",
"Z  c #21262D",
"A  c #212C2C",
"S  c #292D2B",
"D  c #22332C",
"F  c #30332F",
"G  c #202631",
"H  c #222B34",
"J  c #222D3B",
"K  c #253435",
"L  c #24323C",
"P  c #2B3B3B",
"I  c #283938",
"U  c #2F403F",
"Y  c #30403F",
"T  c #1B1A42",
"R  c #251E44",
"E  c #231F4A",
"W  c #1D2446",
"Q  c #1E3544",
"!  c #193646",
"~  c #222243",
"^  c #29224D",
"/  c #253543",
"(  c #293444",
")  c #253944",
"_  c #293A46",
"`  c #223B4C",
"'  c #2A3C4A",
"]  c #313D4A",
"[  c #2B2552",
"{  c #2D2956",
"}  c #2D2C5B",
"|  c #262951",
" . c #312D5D",
".. c #233F50",
"X. c #29315E",
"o. c #333759",
"O. c #2C2D62",
"+. c #312E62",
"@. c #2F3162",
"#. c #333465",
"$. c #35346C",
"%. c #35396D",
"&. c #38356F",
"*. c #353771",
"=. c #383772",
"-. c #353B73",
";. c #363E7A",
":. c #393C78",
">. c #18445E",
",. c #2E4443",
"<. c #2C424E",
"1. c #25424F",
"2. c #324344",
"3. c #36494A",
"4. c #3A4D4E",
"5. c #374747",
"6. c #244253",
"7. c #2B4554",
"8. c #27495B",
"9. c #294B5C",
"0. c #264658",
"q. c #314955",
"w. c #334C5A",
"e. c #2B505F",
"r. c #3D5353",
"t. c #3D5A5A",
"y. c #345458",
"u. c #1C516A",
"i. c #294E61",
"p. c #2C5364",
"a. c #2D5669",
"s. c #2E5A6D",
"d. c #2F5A6D",
"f. c #345463",
"g. c #385764",
"h. c #315C6E",
"j. c #3A5B68",
"k. c #37417D",
"l. c #38407C",
"z. c #1F6071",
"x. c #336275",
"c. c #336578",
"v. c #356A7B",
"b. c #3F6371",
"n. c #256873",
"m. c #455C5B",
"M. c #415757",
"N. c #4B6565",
"B. c #4C6867",
"V. c #4F6C6B",
"C. c #526D6C",
"Z. c #556369",
"A. c #456C7B",
"S. c #406473",
"D. c #47707E",
"F. c #557372",
"G. c #587574",
"H. c #5C7B7B",
"J. c #607E7E",
"K. c #5F807E",
"L. c #60817F",
"P. c #384484",
"I. c #374585",
"U. c #1E638B",
"Y. c #246E87",
"T. c #366F80",
"R. c #387282",
"E. c #4A7584",
"W. c #3393A3",
"Q. c #3095B3",
"!. c #3BA9BB",
"~. c #648483",
"^. c #668887",
"/. c #678A88",
"(. c #6B8D8C",
"). c #6D908F",
"_. c #6E9291",
"`. c #719594",
"'. c #739997",
"]. c #759B9A",
"[. c #789F9D",
"{. c #79A19E",
"}. c #77A09D",
"|. c #7CA5A3",
" X c #7FABA7",
".X c #2D98CC",
"XX c #33A4CA",
"oX c #3FBDDC",
"OX c #39B3D4",
"+X c #36ACD0",
"@X c #49BBC5",
"#X c #44C7DE",
"$X c #4AD0E5",
"%X c #58E3F1",
"&X c #81ADAA",
"*X c #84B2AE",
"=X c #86B5B1",
/* pixels */
"                          - 8 8 -                                                                                               ",
"                  8 - - j Q 6...6.Q B j                                                                                         ",
"                m e.Q 6.p.d.c.c.s.a.0.` 6.Q b 8                                                                                 ",
"                z 8.1.s.T.R.c.p.6...` 6.v.c.a.` n c                                                                             ",
"                  Q 6.s.T.d.i.h.a.` 6.` x.T.c.` Q 0.Q ;                                                                         ",
"                Q ` ..s.s.` a.c.8.` ` Q 6.i.0.B 0.7.) f                                                                         ",
"                e.6.` s.0.6.1.Q ! ` 0.i.m j > 1 / `                                                                             ",
"                1.d.` 0.6.Q 6.1.Q 8.s./ h 5 > > -                                                                               ",
"                  1.p.` ` Q 6.0.8.6.m h 5 h x > o                                                                               ",
"                    9.h.m ` s.x.x.8.1 > g h h K I h $                                                                           ",
"                    m d.h...9.s.d.8.1 1 > > D U 3.I =                                                                           ",
"                      z x.x.` 6.6.8.B 1 # @ A I P g $                                                                           ",
"                        B h.x.6.0.p./ -     1 t 1 = , r W W W                                                                   ",
"                          b f.x.f.6.q       $ 9 M | +.;.I.I.I.;.X.M                                                             ",
"                            Q 9.9.f = $ e ~ } $.k.;.$.;.P.P.I.k.-.O.a                                                           ",
"                              = n 8 v M  .%.-.=.;.:.$.:.k.k.*.E e % 7 7                                                         ",
"              $ : - - 0 n z v / <.J m v { $.%.%.-.l.%.=.;.$.T ; f N q %       < =                                               ",
"            % 0 y y e r J ' w.' w.] v J i  .%.&.%.l.=.=.-.T L B.5.N K f @   r.J.P $ @                                           ",
"          % % 0 Z H P K 0 r ' w.( ' J M t ~ #.#.#.-.=.=.#.9 z ,.r.t.B.V.f 4.`.H.5.g $ =                                         ",
"        % 0 L F.J.`.&X{./.r.e ( ' ( ' H t t  .#.#.-.-.#.#.q U y.G.H.C.N.2.^.C.N.~.M.r.1 >                                       ",
"        % 4.[.(.^.[.*X=X=X&XM.y ( ( J J G 0 R #.@.-.%.$.@.b y.t.V.F.P l t.t.B.H.m.^.G.N.G.>                                     ",
"        K `.*X/.).[.*X*X*X=X'.K r J u G ' r p #.#.-.%.#.@.x t.4.r.,.A > ,.P F.3.H.H.m.].H.1                                     ",
"        3.|.&X/.(.[.&X*X*X*X&Xm.* v J s v w 0  .@.#.%.+.X.; U 4.A # # X = g 3.I B.,.N.B.l $                                     ",
"        3.]. X).~.].&X*X*X&X[.m.+ e / J v v m d { [ } { } $ @ ; q > # X $ : f l <.h 2.g w f -                                   ",
"        G.'._.^.~.].{.|.&X'.^.M.+ @ $ r J ' / p { ^ [ [ +.u 0 = q 1 = X = 1 q h g k j = : q g 0 =                               ",
"      C.|.'./._.^.(.(.(.(.~.~.M., f f = & 0 % u { ^ [ E +.p / 0 j = % % 1 w : % 1 w , $ @ @ > w f 0                             ",
"      ).&X(.[.&X`.L.J.E.L.F.r.h x x N h : & @ y [ ^ [ R [ p ' v 8 j 0 e 1 1 , 1 1 1 1 =     @ = 1 g q -                         ",
"      J.'.^.|.{.).).^.].N.4 @ : N N N f : < & y [ ^ [ E ^ R n c + b , u * q 1 1 1 q =           $ : q g q =                     ",
"      F.(.'.`.^.).(.`.L.g # 1 5 h f < : < < & y E E R R ^ [ r - $ f % u e , q , 1 ,                 $ , q f D 5 x >             ",
"    ] ^.'.(.F.^.).(./.K > 2 5 1 > > < < < & & @ $ : , * i d 9 + 8 w $ 0 7 : q 1 1 @                   @ @ h U 5 1 ; q =         ",
"    B.N.4.Y H P M.Z.P : > = : : : & : & & = : 1 G G k l v r z j u.! o $ , q 1 : $                       + 5 1 j Q e.s.>.r       ",
"  3.P l ( o.] ( s & . @ = = = : > : > f f G P c k k J _ / ' n ! Y.u.  $ $ $ @                           > I 1 Q s.c.s.Q 9       ",
"+ l Z L ( _ _ n v q o - f t g t w k k l w J G w w H / v H / m Y.oXW.                                  + x D f 0.p.9.s.p.n       ",
"* t G J ' b.b.7.' h + $ q g q g h Z Z Z t G J t t g n k t c U.XXoX#X!.n.                              @ h 5 0 ` 8.Q 6.i.0.-     ",
": k k _ S.A.g.q._ l > + , 1 1 q w t g h t q t H J J t t g >..X+XOX$X%X!.                              @ 1 #   c m - j B m -     ",
"$ t k 7.f.y.w.P z J q.n + @ & > , 1 1 1 1 w w 0 t H t r q r u.XXoX$X@Xz.                                        -               ",
"o w g J q._ J _ g.A.A.' 0 $ 1 0 1 : : : & : : q 2 t q 0 0 0 0 >.Q.W.                                                            ",
"  , q g G z q.D.E.D.g.' t $ w 2 0 s w 0 w < & @ : = , 1 , , , * z q                                                             ",
"      $ l f.A.D.E.S.<.n l h 5.M.K y s t y w & : w i w q : , & , k k >                                                           ",
"        L g.q.w.g.j./ v J l w N.`.4.t t s < & : w s k t y w , : w w g                                                           ",
"        w B l l n G l h t q w g C.`.M.2 w & O & w s y t s t w , Z Z t ,                                                         ",
"          - q l g t t 1 A q 3.M.g M.P , &     $ y t s t y t 0 1 Z k k w $                                                       ",
"            , q g A C.2.m.C.M._.B.w , &       $ w s k k Z p w , t s t G t                                                       ",
"              t F.P F.^.2.~.M.4.).F.w X         0 t s k s k 0 < Z w w t l =                                                     ",
"              A H.m.D ~.r.3.~.P N.).g             : w t w w 1 t G t 0 s t ,                                                     ",
"              $ M.(.K r.^.Y C.~.h Z :               $ = , , 0 s Z G t q w H n                                                   ",
"              = G K.r.g H.4.L 4., & &               $ t t 0 : , , w q n n v / -                                                 ",
"            $ 1 q g g j n l h q w q 1             + q k t & 0 w , 0 t w q , v %                                                 ",
"            , 1 , w j n n w 1 w q q ,             $ % 1 0 = 2 1 , 0 < , , : :                                                   ",
"            = q 0 - 0 v q 1 1 1 1 ,               o % $ - w q , , , , , * $                                                     ",
"            > t z t , 1 , - : , , $               + @ @ & : = , , q w w 1 $                                                     ",
"          - t v G G z k t j k w :                   @ & : & @ % < 0 t k t , $                                                   ",
"        $ w v G G v J G v G k ,                     . @ $ & $ , w t G H Z Z w ,                                                 ",
"        1 n v H m G n G v l g -                       @ , : : w t k H H H H Z :                                                 ",
"      q v L J L J J J J v G k $                       @ : , t t k G H s 2 , @                                                   ",
"    @ , > : : : : : r l J n g @                         o @ q v G G < < 3 6 2 < :                                               ",
"    # # X @ @ # # O @ # 2 k Z $                         & @ & h t & & < 3 V V C C 4 :                                           ",
"        O : < < < : # @ & : 1                           $ * & $ $ & & < < 2 s V V C C C 2 >                                     ",
"      @ : s 3 2 < : : # @ @ @                           + @ & & & $ & : & , 2 3 3 6 V V V 2 < @                                 ",
"    @ < s V g 2 < : 2 : # O                                           + @ @ & & $ & & $ & @ +                                   ",
"    2 C S V V 2 < < 2 : @                                                                                                       ",
"  @ 3 S F S V V 2 2 , $                                                                                                         ",
"    & < 2 w 2 , > : $                                                                                                           ",
"      o @ % $ @ O                                                                                                               "
};
